<svg width="167" height="55" viewBox="0 0 167 55" fill="none" xmlns="http://www.w3.org/2000/svg">
<path d="M159.437 0.319427H6.89457C3.0868 0.319427 0 3.51239 0 7.45111V47.5668C0 51.5055 3.0868 54.6985 6.89457 54.6985H159.437C163.245 54.6985 166.331 51.5055 166.331 47.5668V7.45111C166.331 3.51239 163.245 0.319427 159.437 0.319427Z" fill="black"/>
<path d="M52.8795 40.4974H51.2881L55.891 27.9618H57.458L62.0609 40.4974H60.4694L56.7235 29.945H56.6255L52.8795 40.4974ZM53.4672 35.6007H59.8818V36.9473H53.4672V35.6007ZM63.8176 44.023V31.0957H65.2131V32.5892H65.3845C65.4906 32.426 65.6375 32.2179 65.8252 31.9649C66.017 31.7078 66.2904 31.4793 66.6454 31.2794C67.0045 31.0753 67.4901 30.9733 68.1022 30.9733C68.8938 30.9733 69.5916 31.1712 70.1955 31.567C70.7995 31.9629 71.2708 32.5239 71.6095 33.2503C71.9481 33.9766 72.1175 34.8335 72.1175 35.821C72.1175 36.8167 71.9481 37.6798 71.6095 38.4102C71.2708 39.1365 70.8015 39.6997 70.2017 40.0995C69.6018 40.4954 68.9101 40.6933 68.1267 40.6933C67.5227 40.6933 67.0392 40.5933 66.676 40.3934C66.3129 40.1893 66.0333 39.9588 65.8375 39.7017C65.6416 39.4405 65.4906 39.2243 65.3845 39.0529H65.2621V44.023H63.8176ZM65.2376 35.7966C65.2376 36.5066 65.3417 37.133 65.5498 37.6757C65.7579 38.2143 66.0619 38.6367 66.4618 38.9427C66.8617 39.2447 67.3514 39.3956 67.9308 39.3956C68.5347 39.3956 69.0387 39.2365 69.4427 38.9182C69.8507 38.5959 70.1568 38.1633 70.3608 37.6206C70.5689 37.0738 70.673 36.4658 70.673 35.7966C70.673 35.1355 70.5709 34.5397 70.3669 34.0093C70.167 33.4747 69.863 33.0524 69.4549 32.7422C69.0509 32.428 68.5429 32.2709 67.9308 32.2709C67.3432 32.2709 66.8494 32.4199 66.4496 32.7178C66.0497 33.0116 65.7477 33.4237 65.5437 33.9542C65.3396 34.4806 65.2376 35.0947 65.2376 35.7966ZM74.321 44.023V31.0957H75.7166V32.5892H75.888C75.9941 32.426 76.141 32.2179 76.3287 31.9649C76.5204 31.7078 76.7938 31.4793 77.1489 31.2794C77.508 31.0753 77.9935 30.9733 78.6056 30.9733C79.3973 30.9733 80.095 31.1712 80.699 31.567C81.3029 31.9629 81.7742 32.5239 82.1129 33.2503C82.4516 33.9766 82.6209 34.8335 82.6209 35.821C82.6209 36.8167 82.4516 37.6798 82.1129 38.4102C81.7742 39.1365 81.3049 39.6997 80.7051 40.0995C80.1052 40.4954 79.4136 40.6933 78.6301 40.6933C78.0262 40.6933 77.5426 40.5933 77.1795 40.3934C76.8163 40.1893 76.5368 39.9588 76.3409 39.7017C76.145 39.4405 75.9941 39.2243 75.888 39.0529H75.7655V44.023H74.321ZM75.7411 35.7966C75.7411 36.5066 75.8451 37.133 76.0532 37.6757C76.2613 38.2143 76.5653 38.6367 76.9652 38.9427C77.3651 39.2447 77.8548 39.3956 78.4342 39.3956C79.0382 39.3956 79.5421 39.2365 79.9461 38.9182C80.3542 38.5959 80.6602 38.1633 80.8642 37.6206C81.0723 37.0738 81.1764 36.4658 81.1764 35.7966C81.1764 35.1355 81.0744 34.5397 80.8704 34.0093C80.6704 33.4747 80.3664 33.0524 79.9583 32.7422C79.5544 32.428 79.0463 32.2709 78.4342 32.2709C77.8466 32.2709 77.3529 32.4199 76.953 32.7178C76.5531 33.0116 76.2511 33.4237 76.0471 33.9542C75.8431 34.4806 75.7411 35.0947 75.7411 35.7966ZM96.7235 31.0957C96.65 30.4755 96.3521 29.994 95.8298 29.6512C95.3075 29.3084 94.6668 29.137 93.9078 29.137C93.3529 29.137 92.8673 29.2268 92.4511 29.4064C92.0389 29.5859 91.7166 29.8328 91.484 30.147C91.2555 30.4612 91.1412 30.8182 91.1412 31.2181C91.1412 31.5528 91.2208 31.8404 91.3799 32.0812C91.5431 32.3179 91.7513 32.5158 92.0043 32.6749C92.2572 32.83 92.5225 32.9585 92.8 33.0605C93.0774 33.1585 93.3325 33.238 93.5651 33.2992L94.8382 33.642C95.1647 33.7277 95.5278 33.846 95.9277 33.997C96.3317 34.148 96.7173 34.3541 97.0846 34.6152C97.4559 34.8723 97.762 35.2028 98.0027 35.6068C98.2435 36.0108 98.3639 36.5066 98.3639 37.0942C98.3639 37.7716 98.1863 38.3837 97.8313 38.9305C97.4804 39.4773 96.9663 39.9118 96.2889 40.2342C95.6156 40.5566 94.7974 40.7178 93.8344 40.7178C92.9367 40.7178 92.1593 40.5729 91.5023 40.2832C90.8494 39.9935 90.3353 39.5895 89.9599 39.0712C89.5885 38.553 89.3784 37.9511 89.3294 37.2656H90.8964C90.9372 37.7389 91.0963 38.1307 91.3738 38.4408C91.6554 38.7468 92.0104 38.9753 92.4388 39.1263C92.8714 39.2732 93.3366 39.3467 93.8344 39.3467C94.4138 39.3467 94.9341 39.2528 95.3952 39.0651C95.8563 38.8733 96.2215 38.6081 96.4909 38.2694C96.7602 37.9266 96.8948 37.5267 96.8948 37.0697C96.8948 36.6535 96.7785 36.3148 96.5459 36.0536C96.3134 35.7925 96.0073 35.5803 95.6278 35.4171C95.2483 35.2538 94.8382 35.111 94.3975 34.9886L92.8551 34.5479C91.8757 34.2663 91.1004 33.8644 90.5291 33.3421C89.9578 32.8198 89.6722 32.1363 89.6722 31.2916C89.6722 30.5897 89.8619 29.9776 90.2414 29.4553C90.625 28.9289 91.1392 28.5209 91.7839 28.2311C92.4327 27.9373 93.157 27.7904 93.9568 27.7904C94.7648 27.7904 95.483 27.9353 96.1114 28.225C96.7398 28.5107 97.2376 28.9024 97.6049 29.4002C97.9762 29.8981 98.1721 30.4632 98.1925 31.0957H96.7235ZM104.753 31.0957V32.3199H99.8803V31.0957H104.753ZM101.3 28.8432H102.745V37.8042C102.745 38.2123 102.804 38.5183 102.922 38.7223C103.045 38.9223 103.2 39.057 103.388 39.1263C103.579 39.1916 103.781 39.2243 103.994 39.2243C104.153 39.2243 104.283 39.2161 104.385 39.1998C104.487 39.1794 104.569 39.1631 104.63 39.1508L104.924 40.4484C104.826 40.4852 104.689 40.5219 104.514 40.5586C104.338 40.5994 104.116 40.6198 103.847 40.6198C103.439 40.6198 103.039 40.5321 102.647 40.3566C102.259 40.1812 101.937 39.9139 101.68 39.5548C101.427 39.1957 101.3 38.7428 101.3 38.196V28.8432ZM110.644 40.6933C109.795 40.6933 109.05 40.4913 108.41 40.0873C107.773 39.6833 107.275 39.1182 106.916 38.3918C106.561 37.6655 106.384 36.8167 106.384 35.8455C106.384 34.8662 106.561 34.0113 106.916 33.2809C107.275 32.5505 107.773 31.9833 108.41 31.5793C109.05 31.1753 109.795 30.9733 110.644 30.9733C111.493 30.9733 112.235 31.1753 112.872 31.5793C113.513 31.9833 114.01 32.5505 114.365 33.2809C114.724 34.0113 114.904 34.8662 114.904 35.8455C114.904 36.8167 114.724 37.6655 114.365 38.3918C114.01 39.1182 113.513 39.6833 112.872 40.0873C112.235 40.4913 111.493 40.6933 110.644 40.6933ZM110.644 39.3956C111.289 39.3956 111.819 39.2304 112.235 38.8999C112.652 38.5693 112.96 38.1347 113.16 37.5961C113.36 37.0575 113.459 36.4739 113.459 35.8455C113.459 35.2171 113.36 34.6316 113.16 34.0888C112.96 33.5461 112.652 33.1075 112.235 32.7728C111.819 32.4382 111.289 32.2709 110.644 32.2709C109.999 32.2709 109.469 32.4382 109.052 32.7728C108.636 33.1075 108.328 33.5461 108.128 34.0888C107.928 34.6316 107.828 35.2171 107.828 35.8455C107.828 36.4739 107.928 37.0575 108.128 37.5961C108.328 38.1347 108.636 38.5693 109.052 38.8999C109.469 39.2304 109.999 39.3956 110.644 39.3956ZM117.109 40.4974V31.0957H118.505V32.5158H118.603C118.774 32.0506 119.084 31.6731 119.533 31.3834C119.982 31.0937 120.488 30.9488 121.051 30.9488C121.157 30.9488 121.29 30.9509 121.449 30.9549C121.608 30.959 121.728 30.9651 121.81 30.9733V32.4423C121.761 32.4301 121.649 32.4117 121.473 32.3872C121.302 32.3587 121.12 32.3444 120.929 32.3444C120.471 32.3444 120.063 32.4403 119.704 32.6321C119.349 32.8198 119.068 33.0809 118.86 33.4155C118.656 33.7461 118.554 34.1235 118.554 34.5479V40.4974H117.109ZM127.178 40.6933C126.272 40.6933 125.491 40.4933 124.834 40.0934C124.181 39.6894 123.677 39.1263 123.322 38.4041C122.971 37.6777 122.795 36.833 122.795 35.87C122.795 34.907 122.971 34.0582 123.322 33.3237C123.677 32.5851 124.171 32.0098 124.803 31.5976C125.44 31.1814 126.182 30.9733 127.031 30.9733C127.521 30.9733 128.004 31.0549 128.482 31.2181C128.959 31.3814 129.394 31.6466 129.785 32.0139C130.177 32.377 130.489 32.8585 130.722 33.4584C130.955 34.0582 131.071 34.7968 131.071 35.6741V36.2862H123.824V35.0376H129.602C129.602 34.5071 129.496 34.0337 129.284 33.6175C129.075 33.2013 128.778 32.8728 128.39 32.6321C128.006 32.3913 127.553 32.2709 127.031 32.2709C126.456 32.2709 125.958 32.4138 125.538 32.6994C125.121 32.981 124.801 33.3482 124.577 33.8012C124.352 34.2541 124.24 34.7397 124.24 35.2579V36.0904C124.24 36.8004 124.362 37.4023 124.607 37.896C124.856 38.3857 125.201 38.7591 125.642 39.0162C126.082 39.2691 126.594 39.3956 127.178 39.3956C127.557 39.3956 127.9 39.3426 128.206 39.2365C128.516 39.1263 128.784 38.9631 129.008 38.7468C129.233 38.5265 129.406 38.2531 129.528 37.9266L130.924 38.3184C130.777 38.7917 130.53 39.2079 130.183 39.567C129.836 39.922 129.408 40.1995 128.898 40.3995C128.388 40.5953 127.814 40.6933 127.178 40.6933Z" fill="white"/>
<path d="M54.1037 21.2341H51.3616L52.8183 12.4592H55.6119C56.4631 12.4592 57.1644 12.6377 57.7157 12.9947C58.2698 13.3518 58.6554 13.8617 58.8725 14.5244C59.0925 15.187 59.1253 15.9783 58.9711 16.898C58.8225 17.8007 58.534 18.5762 58.1056 19.2246C57.68 19.8701 57.1287 20.3671 56.4517 20.7156C55.7776 21.0613 54.9949 21.2341 54.1037 21.2341ZM52.5827 20.2915H54.138C54.8635 20.2915 55.4891 20.1486 56.0147 19.863C56.5431 19.5773 56.9687 19.1703 57.2915 18.6419C57.6171 18.1134 57.8399 17.4865 57.9599 16.7609C58.0799 16.064 58.0684 15.4655 57.9256 14.9657C57.7856 14.4629 57.51 14.0773 57.0987 13.8088C56.6902 13.5375 56.1432 13.4018 55.4577 13.4018H53.7224L52.5827 20.2915ZM62.613 21.3712C62.0074 21.3712 61.5004 21.2269 61.0919 20.9384C60.6835 20.6499 60.395 20.2458 60.2264 19.7259C60.0608 19.206 60.0336 18.6005 60.145 17.9092C60.2536 17.2351 60.4692 16.6481 60.792 16.1482C61.1176 15.6455 61.5218 15.257 62.0046 14.9828C62.4902 14.7057 63.0243 14.5672 63.607 14.5672C64.2126 14.5672 64.7182 14.7129 65.1238 15.0042C65.5322 15.2927 65.8207 15.6983 65.9893 16.2211C66.1578 16.7409 66.1864 17.3493 66.075 18.0463C65.9664 18.7147 65.7479 19.2988 65.4194 19.7987C65.0938 20.2957 64.6896 20.6828 64.2069 20.9599C63.727 21.2341 63.1957 21.3712 62.613 21.3712ZM62.6301 20.4628C63.0929 20.4628 63.4942 20.3443 63.8341 20.1072C64.1769 19.8701 64.4539 19.5574 64.6653 19.1689C64.8795 18.7804 65.0238 18.3605 65.0981 17.9092C65.1666 17.4807 65.1638 17.0823 65.0895 16.7138C65.0152 16.3425 64.8567 16.044 64.6139 15.8183C64.3711 15.5898 64.0298 15.4755 63.5899 15.4755C63.1271 15.4755 62.723 15.5955 62.3773 15.8354C62.0346 16.0754 61.7575 16.391 61.5461 16.7823C61.3347 17.1737 61.1933 17.595 61.1219 18.0463C61.0534 18.4748 61.0548 18.8732 61.1262 19.2417C61.2005 19.6073 61.359 19.903 61.6018 20.1286C61.8475 20.3514 62.1902 20.4628 62.6301 20.4628ZM68.3629 21.2341L67.4546 14.6529H68.5172L69.0999 19.6916H69.1684L71.4136 14.6529H72.4933L73.0417 19.6745H73.1103L75.3726 14.6529H76.4352L73.3331 21.2341H72.3391L71.7392 16.1782H71.6364L69.357 21.2341H68.3629ZM78.3375 17.2751L77.6863 21.2341H76.6751L77.772 14.6529H78.7489L78.5775 15.6812H78.6632C78.8688 15.347 79.1473 15.0785 79.4987 14.8757C79.85 14.67 80.2742 14.5672 80.7712 14.5672C81.2111 14.5672 81.5824 14.6586 81.8852 14.8414C82.1908 15.0214 82.4065 15.2956 82.5322 15.6641C82.6607 16.0297 82.6793 16.4924 82.5879 17.0523L81.8852 21.2341H80.874L81.5596 17.1208C81.6453 16.6067 81.5781 16.2039 81.3582 15.9126C81.1411 15.6212 80.7969 15.4755 80.3256 15.4755C80 15.4755 79.6986 15.5455 79.4215 15.6855C79.1473 15.8255 78.9145 16.0297 78.7232 16.2982C78.5346 16.5667 78.4061 16.8923 78.3375 17.2751ZM86.2009 12.4592L84.7441 21.2341H83.7329L85.1897 12.4592H86.2009ZM89.3126 21.3712C88.707 21.3712 88.2 21.2269 87.7915 20.9384C87.3831 20.6499 87.0946 20.2458 86.9261 19.7259C86.7604 19.206 86.7332 18.6005 86.8446 17.9092C86.9532 17.2351 87.1689 16.6481 87.4916 16.1482C87.8173 15.6455 88.2214 15.257 88.7042 14.9828C89.1898 14.7057 89.7239 14.5672 90.3066 14.5672C90.9122 14.5672 91.4178 14.7129 91.8234 15.0042C92.2318 15.2927 92.5203 15.6983 92.6889 16.2211C92.8574 16.7409 92.886 17.3493 92.7746 18.0463C92.666 18.7147 92.4475 19.2988 92.119 19.7987C91.7934 20.2957 91.3892 20.6828 90.9065 20.9599C90.4266 21.2341 89.8953 21.3712 89.3126 21.3712ZM89.3297 20.4628C89.7925 20.4628 90.1938 20.3443 90.5337 20.1072C90.8765 19.8701 91.1535 19.5574 91.3649 19.1689C91.5792 18.7804 91.7234 18.3605 91.7977 17.9092C91.8662 17.4807 91.8634 17.0823 91.7891 16.7138C91.7148 16.3425 91.5563 16.044 91.3135 15.8183C91.0707 15.5898 90.7294 15.4755 90.2895 15.4755C89.8267 15.4755 89.4226 15.5955 89.0769 15.8354C88.7342 16.0754 88.4571 16.391 88.2457 16.7823C88.0343 17.1737 87.893 17.595 87.8215 18.0463C87.753 18.4748 87.7544 18.8732 87.8258 19.2417C87.9001 19.6073 88.0586 19.903 88.3014 20.1286C88.5471 20.3514 88.8898 20.4628 89.3297 20.4628ZM95.7149 21.3883C95.2978 21.3883 94.9322 21.3098 94.618 21.1527C94.3038 20.9927 94.071 20.7628 93.9196 20.4628C93.7682 20.1601 93.7268 19.7944 93.7954 19.366C93.8611 18.9889 93.9882 18.6833 94.1767 18.4491C94.3652 18.212 94.5937 18.0263 94.8622 17.8921C95.1336 17.755 95.425 17.6536 95.7363 17.5879C96.0505 17.5193 96.3633 17.4665 96.6746 17.4293C97.0802 17.3779 97.4102 17.3379 97.6644 17.3094C97.9186 17.2808 98.11 17.2337 98.2385 17.168C98.3671 17.1023 98.4456 16.9894 98.4742 16.8295V16.7952C98.5427 16.3753 98.487 16.0483 98.3071 15.814C98.1271 15.5769 97.8058 15.4584 97.343 15.4584C96.8632 15.4584 96.4618 15.5641 96.1391 15.7755C95.8163 15.9868 95.5778 16.2125 95.4235 16.4524L94.5323 16.1097C94.7666 15.7098 95.0465 15.3984 95.3721 15.1756C95.6977 14.95 96.0391 14.7929 96.3961 14.7043C96.7532 14.6129 97.0974 14.5672 97.4287 14.5672C97.6401 14.5672 97.8786 14.5929 98.1443 14.6443C98.4099 14.6929 98.6584 14.7943 98.8898 14.9485C99.124 15.1028 99.2997 15.3356 99.4168 15.6469C99.5368 15.9583 99.5539 16.3753 99.4682 16.898L98.7484 21.2341H97.7372L97.8915 20.3429H97.8401C97.7487 20.4857 97.6087 20.6385 97.4202 20.8013C97.2345 20.9641 96.9988 21.1027 96.7132 21.2169C96.4304 21.3312 96.0976 21.3883 95.7149 21.3883ZM96.0062 20.48C96.4061 20.48 96.756 20.4014 97.056 20.2443C97.3587 20.0872 97.6015 19.8844 97.7844 19.6359C97.97 19.3874 98.0857 19.126 98.1314 18.8518L98.2857 17.9263C98.2342 17.9778 98.1328 18.0249 97.9814 18.0677C97.8301 18.1077 97.6587 18.1434 97.4673 18.1749C97.2788 18.2034 97.0945 18.2291 96.9146 18.252C96.7375 18.272 96.5947 18.2891 96.4861 18.3034C96.2176 18.3377 95.962 18.3934 95.7192 18.4705C95.4792 18.5448 95.2764 18.6576 95.1108 18.809C94.9479 18.9575 94.8465 19.1603 94.8065 19.4174C94.7466 19.7687 94.8308 20.0344 95.0593 20.2143C95.2879 20.3914 95.6035 20.48 96.0062 20.48ZM103.071 21.3712C102.519 21.3712 102.056 21.2326 101.682 20.9556C101.308 20.6756 101.044 20.2815 100.89 19.773C100.738 19.2617 100.72 18.6576 100.834 17.9606C100.951 17.2694 101.17 16.6695 101.489 16.1611C101.812 15.6526 102.208 15.2599 102.676 14.9828C103.145 14.7057 103.656 14.5672 104.21 14.5672C104.639 14.5672 104.966 14.6386 105.191 14.7814C105.42 14.9214 105.586 15.0814 105.688 15.2613C105.791 15.4384 105.87 15.5841 105.924 15.6983H106.01L106.55 12.4592H107.561L106.104 21.2341H105.127L105.299 20.2229H105.179C105.084 20.3429 104.953 20.4943 104.784 20.6771C104.616 20.857 104.393 21.0184 104.116 21.1612C103.842 21.3012 103.493 21.3712 103.071 21.3712ZM103.319 20.4628C103.725 20.4628 104.087 20.3572 104.407 20.1458C104.73 19.9315 104.999 19.6359 105.213 19.2589C105.427 18.879 105.576 18.4405 105.658 17.9435C105.741 17.4522 105.738 17.0223 105.65 16.6538C105.561 16.2825 105.391 15.994 105.14 15.7883C104.889 15.5798 104.556 15.4755 104.142 15.4755C103.716 15.4755 103.346 15.5855 103.032 15.8055C102.718 16.0225 102.462 16.3182 102.265 16.6924C102.068 17.0637 101.931 17.4807 101.854 17.9435C101.777 18.4119 101.775 18.8375 101.849 19.2203C101.924 19.6002 102.081 19.903 102.321 20.1286C102.563 20.3514 102.896 20.4628 103.319 20.4628ZM114.198 21.3712C113.592 21.3712 113.085 21.2269 112.677 20.9384C112.268 20.6499 111.98 20.2458 111.811 19.7259C111.645 19.206 111.618 18.6005 111.73 17.9092C111.838 17.2351 112.054 16.6481 112.377 16.1482C112.702 15.6455 113.107 15.257 113.589 14.9828C114.075 14.7057 114.609 14.5672 115.192 14.5672C115.797 14.5672 116.303 14.7129 116.708 15.0042C117.117 15.2927 117.405 15.6983 117.574 16.2211C117.742 16.7409 117.771 17.3493 117.66 18.0463C117.551 18.7147 117.333 19.2988 117.004 19.7987C116.678 20.2957 116.274 20.6828 115.792 20.9599C115.312 21.2341 114.78 21.3712 114.198 21.3712ZM114.215 20.4628C114.678 20.4628 115.079 20.3443 115.419 20.1072C115.762 19.8701 116.039 19.5574 116.25 19.1689C116.464 18.7804 116.608 18.3605 116.683 17.9092C116.751 17.4807 116.748 17.0823 116.674 16.7138C116.6 16.3425 116.441 16.044 116.199 15.8183C115.956 15.5898 115.614 15.4755 115.175 15.4755C114.712 15.4755 114.308 15.5955 113.962 15.8354C113.619 16.0754 113.342 16.391 113.131 16.7823C112.919 17.1737 112.778 17.595 112.707 18.0463C112.638 18.4748 112.639 18.8732 112.711 19.2417C112.785 19.6073 112.944 19.903 113.186 20.1286C113.432 20.3514 113.775 20.4628 114.215 20.4628ZM120.343 17.2751L119.692 21.2341H118.68L119.777 14.6529H120.754L120.583 15.6812H120.669C120.874 15.347 121.153 15.0785 121.504 14.8757C121.855 14.67 122.28 14.5672 122.777 14.5672C123.216 14.5672 123.588 14.6586 123.891 14.8414C124.196 15.0214 124.412 15.2956 124.538 15.6641C124.666 16.0297 124.685 16.4924 124.593 17.0523L123.891 21.2341H122.879L123.565 17.1208C123.651 16.6067 123.583 16.2039 123.364 15.9126C123.146 15.6212 122.802 15.4755 122.331 15.4755C122.005 15.4755 121.704 15.5455 121.427 15.6855C121.153 15.8255 120.92 16.0297 120.729 16.2982C120.54 16.5667 120.411 16.8923 120.343 17.2751ZM133.091 14.6529L132.954 15.5098H129.543L129.68 14.6529H133.091ZM130.931 13.0762H131.942L130.897 19.3488C130.851 19.6345 130.858 19.8487 130.918 19.9915C130.981 20.1315 131.075 20.2258 131.201 20.2743C131.33 20.32 131.468 20.3429 131.617 20.3429C131.728 20.3429 131.82 20.3372 131.891 20.3257C131.962 20.3114 132.02 20.3 132.062 20.2915L132.131 21.1998C132.054 21.2255 131.95 21.2512 131.818 21.2769C131.69 21.3055 131.531 21.3198 131.343 21.3198C131.057 21.3198 130.788 21.2583 130.537 21.1355C130.286 21.0127 130.093 20.8256 129.959 20.5742C129.824 20.3229 129.789 20.0058 129.852 19.6231L130.931 13.0762ZM135.319 17.2751L134.667 21.2341H133.656L135.113 12.4592H136.124L135.593 15.6812H135.679C135.884 15.3384 136.158 15.0671 136.501 14.8671C136.847 14.6672 137.281 14.5672 137.804 14.5672C138.249 14.5672 138.625 14.6572 138.931 14.8371C139.239 15.0142 139.456 15.287 139.582 15.6555C139.71 16.0211 139.729 16.4867 139.638 17.0523L138.935 21.2341H137.924L138.609 17.1208C138.695 16.5981 138.625 16.1939 138.399 15.9083C138.177 15.6198 137.829 15.4755 137.358 15.4755C137.027 15.4755 136.718 15.5455 136.433 15.6855C136.15 15.8255 135.91 16.0297 135.713 16.2982C135.519 16.5667 135.387 16.8923 135.319 17.2751ZM143.527 21.3712C142.896 21.3712 142.374 21.2312 141.963 20.9513C141.552 20.6685 141.265 20.2743 141.102 19.7687C140.939 19.2603 140.913 18.669 141.025 17.9949C141.136 17.3208 141.358 16.7266 141.689 16.2125C142.02 15.6955 142.433 15.2927 142.927 15.0042C143.421 14.7129 143.964 14.5672 144.555 14.5672C144.898 14.5672 145.228 14.6243 145.545 14.7386C145.862 14.8528 146.136 15.0385 146.368 15.2956C146.599 15.5498 146.76 15.8869 146.852 16.3068C146.943 16.7266 146.938 17.2437 146.835 17.8578L146.766 18.2863H141.693L141.83 17.4122H145.875C145.941 17.0409 145.923 16.7095 145.824 16.4182C145.726 16.1268 145.556 15.8969 145.314 15.7283C145.074 15.5598 144.77 15.4755 144.401 15.4755C144.021 15.4755 143.667 15.5784 143.338 15.784C143.01 15.9868 142.736 16.2439 142.516 16.5553C142.296 16.8638 142.159 17.178 142.104 17.4979L141.985 18.252C141.899 18.7975 141.912 19.2317 142.023 19.5545C142.137 19.8773 142.336 20.1101 142.619 20.2529C142.901 20.3929 143.256 20.4628 143.681 20.4628C143.953 20.4628 144.203 20.4257 144.431 20.3514C144.66 20.2743 144.864 20.1601 145.044 20.0087C145.224 19.8544 145.375 19.663 145.498 19.4345L146.423 19.7087C146.266 20.0401 146.045 20.3314 145.759 20.5828C145.476 20.8313 145.145 21.0256 144.765 21.1655C144.388 21.3026 143.975 21.3712 143.527 21.3712Z" fill="white"/>
<path d="M21.0887 35.2827C19.1324 32.5102 17.6156 27.4734 19.6581 24.0502C20.6664 22.3475 22.4419 21.2957 24.3723 21.26C25.8719 21.2244 27.2594 22.2403 28.1729 22.2403C29.0864 22.2403 30.7929 21.028 32.5596 21.2152C34.2143 21.2598 35.757 22.071 36.7653 23.426C35.2744 24.2996 34.335 25.9043 34.2833 27.6783C34.335 29.6841 35.5501 31.4672 37.3599 32.1804C36.998 33.3215 36.455 34.391 35.757 35.3449C34.8176 36.7178 33.8264 38.0548 32.2579 38.0815C30.7325 38.1172 30.2241 37.2079 28.4746 37.2079C26.7251 37.2079 26.1649 38.0548 24.6998 38.1172H24.6222C23.1657 38.1172 22.0454 36.6288 21.0887 35.3005V35.2827ZM27.3283 19.3522C27.2508 18.0774 27.6903 16.8384 28.5349 15.9113C29.4226 14.9396 30.6292 14.3332 31.9133 14.2084C32.0081 15.5189 31.5858 16.8113 30.7412 17.783C29.9311 18.7368 28.7762 19.3074 27.5524 19.3609C27.4748 19.3609 27.4059 19.3609 27.3283 19.3609V19.3522Z" fill="white"/>
</svg>
