<svg width="148" height="31" viewBox="0 0 148 31" fill="none" xmlns="http://www.w3.org/2000/svg">
<path d="M0 0.966431C0.543958 0.966431 1.08792 0.966431 1.63187 0.966431C4.40606 1.01033 7.18568 0.966431 9.94899 1.12557C12.8646 1.32312 14.7467 3.12301 15.1492 5.7515C15.53 8.2483 14.453 9.98783 11.5754 11.3816C11.8746 11.464 12.0759 11.5079 12.2717 11.5682C13.2566 11.8125 14.1462 12.3496 14.8251 13.1098C15.504 13.87 15.9409 14.8183 16.0794 15.832C16.4928 18.2904 15.5354 20.639 13.4847 21.6816C12.1605 22.3785 10.7133 22.8055 9.22552 22.9383C6.17392 23.1248 3.11144 22.9986 0 22.9986V0.966431ZM3.92194 13.4504V19.5744C5.65172 19.5744 7.32167 19.6622 8.9753 19.5744C11.026 19.4373 12.1792 18.2629 12.1901 16.5399C12.1901 14.7071 11.3198 13.6425 9.37239 13.4998C7.58277 13.3462 5.77683 13.4504 3.92194 13.4504ZM3.8893 10.0976C5.78771 9.94393 7.59909 9.92198 9.36695 9.62017C9.935 9.52112 10.4466 9.21347 10.8032 8.7565C11.1597 8.29954 11.336 7.72561 11.298 7.14532C11.298 5.89967 10.6616 4.91741 9.34519 4.69791C7.56101 4.40159 5.72787 4.38512 3.90562 4.24245L3.8893 10.0976Z" fill="black"/>
<path d="M132.231 28.0197C132.96 27.01 133.672 26.0277 134.347 25.1058C135.353 25.6546 136.261 26.2801 137.257 26.7082C138.583 27.2485 140.055 27.3048 141.418 26.8673C143.159 26.3679 144.089 25.029 144.241 22.8395C144.274 22.3292 144.241 21.8188 144.241 21.3085C144.171 21.3085 144.089 21.2536 144.073 21.2701C141.897 23.7065 138.089 23.5693 135.913 22.4499C134.621 21.7552 133.558 20.6939 132.856 19.3969C132.154 18.1 131.844 16.6242 131.964 15.1515C131.974 14.0809 132.196 13.0231 132.618 12.0409C133.041 11.0587 133.654 10.1721 134.423 9.4336C136.697 7.29349 141.913 6.76669 144.41 10.2018V8.13307H148V9.03301C148 13.3352 148 17.6374 148 21.9395C147.988 22.9634 147.855 23.9821 147.603 24.9741C146.798 28.1623 144.579 30.0116 141.271 30.3848C138.165 30.7305 135.228 30.3848 132.66 28.3818C132.511 28.2687 132.368 28.1478 132.231 28.0197ZM144.421 15.5137C144.421 12.8633 142.729 11.1237 140.069 11.0853C139.488 11.0577 138.907 11.1519 138.364 11.362C137.821 11.5721 137.326 11.8935 136.912 12.306C136.498 12.7185 136.173 13.2131 135.958 13.7586C135.743 14.3041 135.643 14.8886 135.663 15.4753C135.658 16.0473 135.766 16.6145 135.98 17.1441C136.194 17.6736 136.511 18.1549 136.911 18.5598C137.312 18.9648 137.788 19.2853 138.312 19.5029C138.837 19.7204 139.399 19.8305 139.966 19.8269C142.62 19.8543 144.404 18.1148 144.421 15.5137Z" fill="black"/>
<path d="M84.0796 22.9986H80.3535V22.0548C80.3535 19.3769 80.3535 16.699 80.3535 14.0156C80.3535 12.9181 80.038 11.8865 78.95 11.3762C78.4516 11.1253 77.8935 11.0201 77.3388 11.0725C76.7842 11.1249 76.2551 11.3327 75.8114 11.6725C75.4395 11.9396 75.1344 12.2904 74.92 12.6971C74.7057 13.1038 74.5882 13.5552 74.5766 14.0156C74.495 16.4905 74.4896 18.9543 74.4624 21.4402C74.4624 21.9505 74.4624 22.4554 74.4624 22.9986H70.7635C70.7635 22.6913 70.7254 22.3895 70.7254 22.0932C70.7254 19.6714 70.7254 17.2514 70.7254 14.8333C70.7254 14.6302 70.7254 14.4327 70.7254 14.2351C70.6873 12.1663 69.8823 11.1182 68.2939 11.0743C67.8675 11.0391 67.4385 11.0921 67.0332 11.2302C66.6279 11.3683 66.2549 11.5885 65.937 11.8773C65.6191 12.1661 65.3631 12.5174 65.1847 12.9097C65.0063 13.3019 64.9093 13.7268 64.8996 14.1583C64.8017 16.7484 64.8507 19.344 64.8343 21.9395V22.9986H61.1409V8.18244H64.5624V10.1744C65.0839 9.39395 65.7956 8.76193 66.6291 8.33909C67.4626 7.91625 68.39 7.7168 69.322 7.75991C71.3238 7.75991 72.8958 8.47877 73.8749 10.4378C74.6473 9.2525 75.5449 8.30317 76.8776 8.00685C80.6853 7.14531 83.7641 8.45133 84.0415 13.1102C84.2373 16.3368 84.0796 19.6183 84.0796 22.9986Z" fill="black"/>
<path d="M90.8409 9.93845C92.0458 8.66827 93.67 7.88713 95.4068 7.74255C97.1436 7.59797 98.8727 8.09997 100.268 9.15374C102.694 11.1731 103.45 13.851 103.053 16.8856C102.688 19.7061 101.318 21.8243 98.5869 22.9218C97.2401 23.5029 95.7411 23.6206 94.3214 23.2566C92.9018 22.8926 91.6404 22.0672 90.7321 20.9079V22.9986H87.1692V0.5H90.8409V9.93845ZM99.4028 15.6015C99.4531 14.998 99.3791 14.3905 99.1854 13.8172C98.9917 13.2439 98.6825 12.7173 98.2773 12.2704C97.8721 11.8235 97.3796 11.466 96.8307 11.2205C96.2819 10.9749 95.6887 10.8466 95.0883 10.8436C94.4879 10.8405 93.8934 10.9628 93.3422 11.2028C92.7909 11.4428 92.2949 11.7953 91.8852 12.238C91.4756 12.6808 91.1612 13.2043 90.9618 13.7756C90.7624 14.3469 90.6823 14.9536 90.7267 15.5576C90.6763 16.1612 90.7503 16.7687 90.944 17.3419C91.1377 17.9152 91.4469 18.4419 91.8522 18.8888C92.2574 19.3356 92.7499 19.6931 93.2987 19.9387C93.8476 20.1842 94.4408 20.3125 95.0412 20.3156C95.6416 20.3186 96.2361 20.1963 96.7873 19.9563C97.3385 19.7163 97.8346 19.3639 98.2442 18.9211C98.6539 18.4783 98.9683 17.9548 99.1677 17.3836C99.3671 16.8123 99.4471 16.2055 99.4028 15.6015Z" fill="black"/>
<path d="M33.0236 7.72701C34.6035 7.66958 36.1632 8.09983 37.4943 8.96029C38.8253 9.82076 39.8645 11.0705 40.4728 12.5425C41.0812 14.0145 41.2299 15.6387 40.899 17.1983C40.5681 18.7578 39.7733 20.1783 38.6209 21.2701C36.1568 23.5474 33.1814 23.915 30.1298 22.9602C28.8272 22.5928 27.6552 21.8589 26.7507 20.8445C25.8463 19.83 25.2467 18.5768 25.022 17.2313C23.9341 12.0511 27.5079 7.80932 33.0236 7.72701ZM28.5904 15.5412C28.5904 16.7055 29.0488 17.8221 29.8649 18.6453C30.681 19.4686 31.7879 19.9311 32.942 19.9311C34.0962 19.9311 35.203 19.4686 36.0191 18.6453C36.8352 17.8221 37.2937 16.7055 37.2937 15.5412C37.2937 14.3769 36.8352 13.2603 36.0191 12.437C35.203 11.6137 34.0962 11.1512 32.942 11.1512C31.7879 11.1512 30.681 11.6137 29.8649 12.437C29.0488 13.2603 28.5904 14.3769 28.5904 15.5412Z" fill="black"/>
<path d="M50.7676 7.73249C55.054 7.73249 58.383 10.6189 58.7801 14.4491C59.3676 19.8598 55.3913 23.723 50.0768 23.3828C48.4937 23.3186 46.9679 22.7681 45.7037 21.8048C44.4395 20.8415 43.4972 19.5115 43.0031 17.9929C42.509 16.4743 42.4867 14.8397 42.9392 13.308C43.3917 11.7763 44.2973 10.4207 45.5347 9.42263C47.0221 8.24518 48.879 7.64543 50.7676 7.73249ZM46.416 15.5796C46.4066 16.1579 46.5106 16.7324 46.7221 17.2701C46.9335 17.8077 47.2482 18.2979 47.648 18.7125C48.0479 19.1271 48.525 19.4578 49.0519 19.6858C49.5789 19.9138 50.1453 20.0345 50.7187 20.0409C51.3011 20.0498 51.8794 19.9406 52.4193 19.7198C52.9592 19.499 53.4496 19.1711 53.8615 18.7556C54.2734 18.34 54.5985 17.8453 54.8173 17.3007C55.0362 16.7561 55.1444 16.1727 55.1356 15.5851C55.15 15.0058 55.0507 14.4294 54.8432 13.8891C54.6357 13.3487 54.3243 12.8552 53.9268 12.4369C53.5294 12.0186 53.0538 11.6838 52.5274 11.4518C52.0011 11.2198 51.4344 11.0953 50.8601 11.0853C50.2693 11.0647 49.6806 11.1668 49.1305 11.3853C48.5805 11.6037 48.0808 11.934 47.6625 12.3554C47.2442 12.7768 46.9163 13.2805 46.6991 13.8351C46.4818 14.3898 46.3799 14.9835 46.3996 15.5796H46.416Z" fill="black"/>
<path d="M119.774 16.8746H108.547C108.77 18.4715 109.52 19.6183 111 20.1122C113.176 20.853 114.993 20.1561 116.499 18.3782L119.187 20.403C118.467 21.3285 117.55 22.0785 116.504 22.5972C115.458 23.1159 114.309 23.39 113.143 23.3992C108.949 23.5199 105.729 21.0451 104.919 17.0337C104.698 15.5964 104.866 14.1257 105.405 12.7766C105.944 11.4276 106.834 10.2502 107.98 9.36868C109.127 8.48713 110.489 7.93406 111.921 7.76778C113.353 7.6015 114.803 7.82818 116.119 8.4239C118.496 9.65858 119.442 11.8042 119.763 14.312C119.819 15.1651 119.823 16.021 119.774 16.8746ZM116.01 14.0376C116.146 11.9853 114.672 10.564 112.409 10.5311C110.287 10.4927 108.563 12.0895 108.65 14.0376H116.01Z" fill="black"/>
<path d="M18.6958 0.5H22.3294V22.9657H18.6958V0.5Z" fill="black"/>
<path d="M125.986 22.9986H122.287V8.13308H125.932V10.1854C126.675 9.09138 127.767 8.28755 129.027 7.9081C129.216 7.85501 129.409 7.81287 129.603 7.78189C131.638 7.53495 131.779 7.63372 131.747 9.64214V11.475C131.027 11.3603 130.299 11.3034 129.571 11.3048C127.237 11.4914 125.943 13.006 125.932 15.4918C125.932 17.5715 125.932 19.6513 125.964 21.731C125.991 22.1261 125.986 22.5157 125.986 22.9986Z" fill="black"/>
</svg>
