<svg width="20" height="28" viewBox="0 0 20 28" fill="none" xmlns="http://www.w3.org/2000/svg">
<path d="M10.0001 0.666687C7.52473 0.666687 5.15076 1.65002 3.40042 3.40036C1.65008 5.1507 0.666748 7.52467 0.666748 10C0.666748 13.1734 2.25341 15.96 4.66675 17.6534V20.6667C4.66675 21.0203 4.80722 21.3594 5.05727 21.6095C5.30732 21.8595 5.64646 22 6.00008 22H14.0001C14.3537 22 14.6928 21.8595 14.9429 21.6095C15.1929 21.3594 15.3334 21.0203 15.3334 20.6667V17.6534C17.7467 15.96 19.3334 13.1734 19.3334 10C19.3334 7.52467 18.3501 5.1507 16.5997 3.40036C14.8494 1.65002 12.4754 0.666687 10.0001 0.666687ZM6.00008 26C6.00008 26.3536 6.14056 26.6928 6.39061 26.9428C6.64065 27.1929 6.97979 27.3334 7.33341 27.3334H12.6667C13.0204 27.3334 13.3595 27.1929 13.6096 26.9428C13.8596 26.6928 14.0001 26.3536 14.0001 26V24.6667H6.00008V26Z" fill="white"/>
</svg>
