<svg width="26" height="27" viewBox="0 0 26 27" fill="none" xmlns="http://www.w3.org/2000/svg">
<path d="M26 13C26.0005 15.2445 25.4199 17.4508 24.3147 19.4042C23.2095 21.3577 21.6174 22.9917 19.6934 24.1473C17.7693 25.3029 15.5788 25.9407 13.3352 25.9986C11.0915 26.0564 8.87107 25.5324 6.89 24.4775L2.63375 25.8963C2.28136 26.0138 1.9032 26.0309 1.54166 25.9455C1.18012 25.8602 0.849484 25.6759 0.586814 25.4132C0.324144 25.1506 0.139818 24.8199 0.0544969 24.4584C-0.0308244 24.0968 -0.0137696 23.7187 0.10375 23.3663L1.5225 19.11C0.595185 17.3666 0.0772463 15.4348 0.00799667 13.4613C-0.061253 11.4877 0.320007 9.52438 1.12284 7.72021C1.92567 5.91604 3.12897 4.31847 4.6414 3.04878C6.15383 1.77909 7.93564 0.870635 9.85158 0.392383C11.7675 -0.0858696 13.7672 -0.121353 15.699 0.288624C17.6307 0.698602 19.4436 1.54327 21.0001 2.7585C22.5566 3.97374 23.8158 5.52761 24.6822 7.30216C25.5485 9.07671 25.9992 11.0253 26 13Z" fill="white"/>
</svg>
