<svg width="54" height="47" viewBox="0 0 54 47" fill="none" xmlns="http://www.w3.org/2000/svg">
<path d="M50.3571 26.8571V36.0893C50.3571 38.6071 48.8464 40.7893 46.4964 41.9643L43.6428 43.3071L40.7893 41.9643C38.4393 40.9571 36.9286 38.6071 36.9286 36.0893V26.8571H50.3571ZM53.7143 23.5H33.5714V36.0893C33.5714 39.7821 35.7536 43.3071 39.2786 44.9857L43.6428 47L48.0071 44.9857C51.5321 43.3071 53.7143 39.95 53.7143 36.0893V23.5Z" fill="#2B2C6B"/>
<path d="M26.8571 38.6071H12.5893C5.70714 38.6071 0 32.9 0 26.0179C0 19.8071 4.53214 14.7714 10.4071 13.5964C11.9179 5.70714 18.8 0 26.8571 0C36.0893 0 43.6429 7.55357 43.6429 16.7857H40.2857C40.2857 9.4 34.2429 3.35714 26.8571 3.35714C19.975 3.35714 14.2679 8.56071 13.4286 15.275V16.7857H11.9179C7.05 17.1214 3.35714 21.15 3.35714 26.0179C3.35714 31.0536 7.55357 35.25 12.5893 35.25H26.8571V38.6071Z" fill="#2B2C6B"/>
</svg>
