<svg width="24" height="24" viewBox="0 0 24 24" fill="none" xmlns="http://www.w3.org/2000/svg">
<path d="M1.33333 0H9.33333C10.0667 0 10.6667 0.6 10.6667 1.33333V9.33333C10.6667 10.0667 10.0667 10.6667 9.33333 10.6667H1.33333C0.6 10.6667 0 10.0667 0 9.33333V1.33333C0 0.6 0.6 0 1.33333 0ZM14.6667 0H22.6667C23.4 0 24 0.6 24 1.33333V9.33333C24 10.0667 23.4 10.6667 22.6667 10.6667H14.6667C13.9333 10.6667 13.3333 10.0667 13.3333 9.33333V1.33333C13.3333 0.6 13.9333 0 14.6667 0ZM1.33333 13.3333H9.33333C10.0667 13.3333 10.6667 13.9333 10.6667 14.6667V22.6667C10.6667 23.4 10.0667 24 9.33333 24H1.33333C0.6 24 0 23.4 0 22.6667V14.6667C0 13.9333 0.6 13.3333 1.33333 13.3333ZM18.6667 13.3333C17.9333 13.3333 17.3333 13.9333 17.3333 14.6667V17.3333H14.6667C13.9333 17.3333 13.3333 17.9333 13.3333 18.6667C13.3333 19.4 13.9333 20 14.6667 20H17.3333V22.6667C17.3333 23.4 17.9333 24 18.6667 24C19.4 24 20 23.4 20 22.6667V20H22.6667C23.4 20 24 19.4 24 18.6667C24 17.9333 23.4 17.3333 22.6667 17.3333H20V14.6667C20 13.9333 19.4 13.3333 18.6667 13.3333Z" fill="white"/>
</svg>
