<svg width="18" height="19" viewBox="0 0 18 19" fill="none" xmlns="http://www.w3.org/2000/svg">
<path fill-rule="evenodd" clip-rule="evenodd" d="M5.26847 0.935791H12.9461C15.5554 0.935791 17.6796 3.06041 17.6796 5.6614V13.3387C17.6796 15.948 15.5554 18.0643 12.9461 18.0643H5.26847C2.65911 18.0643 0.53479 15.9397 0.53479 13.3387V5.6614C0.53479 3.05204 2.65911 0.935791 5.26847 0.935791ZM12.9461 16.5509C14.7191 16.5509 16.1576 15.1117 16.1576 13.3387V5.6614C16.1576 3.88838 14.7191 2.45001 12.9461 2.45001H5.26847C3.49544 2.45001 2.05697 3.88838 2.05697 5.6614V13.3387C2.05697 15.1117 3.49544 16.5509 5.26847 16.5509H12.9461Z" fill="#2B3C87"/>
<path fill-rule="evenodd" clip-rule="evenodd" d="M4.82513 9.50812C4.82513 7.14966 6.7487 5.22681 9.10716 5.22681C11.4656 5.22681 13.3892 7.14966 13.3892 9.50812C13.3892 11.8666 11.4656 13.7902 9.10716 13.7902C6.7487 13.7902 4.82513 11.8666 4.82513 9.50812ZM6.29709 9.50812C6.29709 11.0553 7.55158 12.3185 9.10716 12.3185C10.6627 12.3185 11.9173 11.0553 11.9173 9.50812C11.9173 7.9609 10.6627 6.69856 9.10716 6.69856C7.55158 6.69856 6.29709 7.9609 6.29709 9.50812Z" fill="#2B3C87"/>
<path d="M13.3892 4.15625C13.1049 4.15625 12.829 4.27343 12.6366 4.46579C12.4359 4.66651 12.3188 4.94263 12.3188 5.22699C12.3188 5.51134 12.4359 5.78664 12.6366 5.98736C12.829 6.18808 13.1049 6.29691 13.3892 6.29691C13.6736 6.29691 13.9496 6.17972 14.1503 5.98736C14.351 5.78664 14.4514 5.51134 14.4514 5.22699C14.4514 4.94263 14.3427 4.66651 14.1503 4.46579C13.9496 4.26507 13.6736 4.15625 13.3892 4.15625Z" fill="#2B3C87"/>
</svg>
