<svg width="28" height="28" viewBox="0 0 28 28" fill="none" xmlns="http://www.w3.org/2000/svg">
<path d="M25.8667 0.666626H2.13341C1.74443 0.666626 1.37138 0.821149 1.09632 1.0962C0.821272 1.37126 0.666748 1.74431 0.666748 2.13329V25.8666C0.666748 26.2556 0.821272 26.6287 1.09632 26.9037C1.37138 27.1788 1.74443 27.3333 2.13341 27.3333H14.9067V17H11.4401V13H14.9067V9.99996C14.8349 9.29564 14.9181 8.58413 15.1504 7.91534C15.3826 7.24656 15.7584 6.63669 16.2514 6.12851C16.7443 5.62033 17.3424 5.22615 18.0038 4.97361C18.6653 4.72107 19.3739 4.61629 20.0801 4.66663C21.1178 4.66024 22.1551 4.71366 23.1867 4.82663V8.42663H21.0667C19.3867 8.42663 19.0667 9.22663 19.0667 10.3866V12.96H23.0667L22.5467 16.96H19.0667V27.3333H25.8667C26.0594 27.3333 26.2501 27.2954 26.428 27.2216C26.606 27.1479 26.7676 27.0399 26.9038 26.9037C27.04 26.7675 27.1481 26.6058 27.2218 26.4279C27.2955 26.2499 27.3334 26.0592 27.3334 25.8666V2.13329C27.3334 1.94069 27.2955 1.74997 27.2218 1.57202C27.1481 1.39408 27.04 1.2324 26.9038 1.0962C26.7676 0.96001 26.606 0.851976 26.428 0.778269C26.2501 0.704563 26.0594 0.666626 25.8667 0.666626Z" fill="#2B3C87"/>
</svg>
