<svg width="19" height="15" viewBox="0 0 19 15" fill="none" xmlns="http://www.w3.org/2000/svg">
<path d="M19 1.81287C18.3226 2.11396 17.6034 2.31464 16.8339 2.40664C17.6201 1.93829 18.2055 1.19376 18.4899 0.323972C17.7539 0.767229 16.9427 1.06818 16.098 1.23545C15.5293 0.633285 14.7766 0.232563 13.957 0.0903866C13.1374 -0.0434269 12.3011 0.0901579 11.5651 0.483235C10.8291 0.876312 10.252 1.4953 9.90907 2.25636C9.56617 3.00906 9.48262 3.86202 9.67497 4.6649C8.17794 4.58963 6.71434 4.19646 5.3762 3.51903C4.03807 2.8416 2.85883 1.88831 1.91377 0.725804C1.5876 1.28615 1.40362 1.92993 1.40362 2.61572C1.40362 3.23461 1.55418 3.84504 1.8469 4.39702C2.13962 4.949 2.56612 5.40908 3.07629 5.75197C2.47413 5.73525 1.89702 5.56834 1.37013 5.28399V5.33381C1.37013 6.2036 1.67123 7.04797 2.22321 7.71703C2.77519 8.39446 3.5446 8.8549 4.39766 9.02217C3.84568 9.17271 3.26022 9.19787 2.69988 9.08914C2.94241 9.84184 3.41084 10.4944 4.03809 10.9627C4.66534 11.4311 5.43476 11.69 6.22091 11.7068C4.88278 12.7522 3.23512 13.3206 1.53736 13.3206C1.23628 13.3206 0.935235 13.3043 0.634155 13.2708C2.357 14.3748 4.36422 14.9682 6.40488 14.9598C13.3381 14.9598 17.1266 9.22312 17.1266 4.23857C17.1266 4.07967 17.1266 3.91233 17.1183 3.75343C17.8542 3.21818 18.4898 2.55741 19 1.80471V1.81287Z" fill="#2B3C87"/>
</svg>
