<svg width="17" height="17" viewBox="0 0 17 17" fill="none" xmlns="http://www.w3.org/2000/svg">
<path fill-rule="evenodd" clip-rule="evenodd" d="M0.278625 1.93464C0.278625 1.58338 0.42077 1.24856 0.663306 1.00602C0.914207 0.755119 1.24883 0.621338 1.59173 0.621338H14.7221C14.8978 0.621338 15.065 0.654889 15.2239 0.721796C15.3828 0.788703 15.5334 0.880569 15.6504 1.00602C15.7759 1.13147 15.8679 1.27427 15.9348 1.43317C16.0017 1.59207 16.0351 1.76738 16.0351 1.93464V15.0652C16.0351 15.2409 16.0017 15.4078 15.9348 15.5667C15.8679 15.7256 15.7675 15.8768 15.6504 15.9939C15.525 16.1193 15.3828 16.2112 15.2239 16.2781C15.065 16.345 14.8894 16.3786 14.7221 16.3786H1.59173C1.4161 16.3786 1.24875 16.345 1.08984 16.2781C0.930941 16.2112 0.788756 16.111 0.663306 15.9939C0.537856 15.8684 0.445888 15.7256 0.378981 15.5667C0.312075 15.4078 0.278625 15.2325 0.278625 15.0652V1.93464ZM6.51764 6.62677H8.65034V7.69669C8.95978 7.0778 9.74592 6.52631 10.9335 6.52631C13.2 6.52631 13.7436 7.75585 13.7436 10.0056V14.1783H11.4437V10.5242C11.4437 9.24463 11.1343 8.51669 10.3565 8.51669C9.26926 8.51669 8.81756 9.29481 8.81756 10.5242V14.1783H6.51764V6.62677ZM2.57854 14.0786H4.87846V6.52631H2.57854V14.0786ZM5.20464 4.05896C5.20464 4.25968 5.1712 4.4524 5.10429 4.63639C5.02902 4.82039 4.92029 4.98752 4.78648 5.1297C4.65266 5.27188 4.48543 5.38031 4.30144 5.45558C4.11745 5.53085 3.92504 5.57237 3.72432 5.57237C3.5236 5.57237 3.33129 5.53085 3.1473 5.45558C2.9633 5.38031 2.80433 5.27188 2.66216 5.1297C2.52834 4.98752 2.41962 4.82039 2.34435 4.63639C2.26908 4.4524 2.23563 4.25968 2.24399 4.05896C2.25235 3.67425 2.41128 3.30649 2.68727 3.03887C2.96326 2.77124 3.33124 2.6207 3.72432 2.6207C4.11739 2.6207 4.48537 2.77124 4.76136 3.03887C5.03735 3.30649 5.19628 3.67425 5.20464 4.05896Z" fill="#2B3C87"/>
</svg>
