<svg width="167" height="55" viewBox="0 0 167 55" fill="none" xmlns="http://www.w3.org/2000/svg">
<path d="M160.106 9.15527e-05H7.56327C3.7555 9.15527e-05 0.668701 3.19305 0.668701 7.13177V47.2475C0.668701 51.1862 3.7555 54.3791 7.56327 54.3791H160.106C163.913 54.3791 167 51.1862 167 47.2475V7.13177C167 3.19305 163.913 9.15527e-05 160.106 9.15527e-05Z" fill="black"/>
<path d="M61.6033 31.5598C61.4687 31.1476 61.2912 30.7783 61.0708 30.4519C60.8545 30.1214 60.5954 29.8398 60.2935 29.6072C59.9956 29.3746 59.6569 29.1971 59.2774 29.0747C58.8979 28.9523 58.4817 28.8911 58.0287 28.8911C57.2861 28.8911 56.6107 29.0829 56.0027 29.4664C55.3947 29.85 54.9112 30.4152 54.5521 31.1619C54.193 31.9087 54.0134 32.8248 54.0134 33.9102C54.0134 34.9956 54.195 35.9117 54.5582 36.6585C54.9214 37.4052 55.4131 37.9704 56.0333 38.354C56.6536 38.7375 57.3514 38.9293 58.1267 38.9293C58.8449 38.9293 59.4773 38.7763 60.0241 38.4703C60.575 38.1601 61.0035 37.7235 61.3095 37.1604C61.6197 36.5932 61.7747 35.926 61.7747 35.1589L62.2399 35.2568H58.4694V33.9102H63.2437V35.2568C63.2437 36.2892 63.0234 37.1869 62.5827 37.95C62.1461 38.713 61.5421 39.3047 60.7709 39.725C60.0037 40.1413 59.1223 40.3494 58.1267 40.3494C57.0167 40.3494 56.0415 40.0882 55.2009 39.5659C54.3644 39.0436 53.7115 38.3009 53.2422 37.3379C52.777 36.3749 52.5444 35.2323 52.5444 33.9102C52.5444 32.9186 52.677 32.027 52.9423 31.2354C53.2116 30.4396 53.5911 29.7623 54.0808 29.2032C54.5704 28.6442 55.1499 28.2157 55.8191 27.9178C56.4883 27.62 57.2249 27.471 58.0287 27.471C58.6898 27.471 59.306 27.571 59.8772 27.7709C60.4526 27.9668 60.9647 28.2463 61.4136 28.6095C61.8665 28.9686 62.244 29.3991 62.546 29.901C62.8479 30.3988 63.056 30.9518 63.1703 31.5598H61.6033ZM69.4671 40.3738C68.6184 40.3738 67.8737 40.1719 67.233 39.7679C66.5964 39.3639 66.0986 38.7987 65.7395 38.0724C65.3845 37.346 65.207 36.4973 65.207 35.5261C65.207 34.5468 65.3845 33.6919 65.7395 32.9615C66.0986 32.231 66.5964 31.6638 67.233 31.2598C67.8737 30.8559 68.6184 30.6539 69.4671 30.6539C70.3159 30.6539 71.0586 30.8559 71.6951 31.2598C72.3358 31.6638 72.8336 32.231 73.1886 32.9615C73.5477 33.6919 73.7273 34.5468 73.7273 35.5261C73.7273 36.4973 73.5477 37.346 73.1886 38.0724C72.8336 38.7987 72.3358 39.3639 71.6951 39.7679C71.0586 40.1719 70.3159 40.3738 69.4671 40.3738ZM69.4671 39.0762C70.1119 39.0762 70.6424 38.911 71.0586 38.5804C71.4748 38.2499 71.7829 37.8153 71.9828 37.2767C72.1828 36.738 72.2828 36.1545 72.2828 35.5261C72.2828 34.8977 72.1828 34.3121 71.9828 33.7694C71.7829 33.2267 71.4748 32.788 71.0586 32.4534C70.6424 32.1188 70.1119 31.9515 69.4671 31.9515C68.8224 31.9515 68.2919 32.1188 67.8757 32.4534C67.4595 32.788 67.1514 33.2267 66.9515 33.7694C66.7515 34.3121 66.6515 34.8977 66.6515 35.5261C66.6515 36.1545 66.7515 36.738 66.9515 37.2767C67.1514 37.8153 67.4595 38.2499 67.8757 38.5804C68.2919 38.911 68.8224 39.0762 69.4671 39.0762ZM79.7518 40.3738C78.903 40.3738 78.1583 40.1719 77.5176 39.7679C76.8811 39.3639 76.3832 38.7987 76.0241 38.0724C75.6691 37.346 75.4916 36.4973 75.4916 35.5261C75.4916 34.5468 75.6691 33.6919 76.0241 32.9615C76.3832 32.231 76.8811 31.6638 77.5176 31.2598C78.1583 30.8559 78.903 30.6539 79.7518 30.6539C80.6005 30.6539 81.3432 30.8559 81.9798 31.2598C82.6204 31.6638 83.1183 32.231 83.4733 32.9615C83.8324 33.6919 84.0119 34.5468 84.0119 35.5261C84.0119 36.4973 83.8324 37.346 83.4733 38.0724C83.1183 38.7987 82.6204 39.3639 81.9798 39.7679C81.3432 40.1719 80.6005 40.3738 79.7518 40.3738ZM79.7518 39.0762C80.3965 39.0762 80.927 38.911 81.3432 38.5804C81.7594 38.2499 82.0675 37.8153 82.2674 37.2767C82.4674 36.738 82.5674 36.1545 82.5674 35.5261C82.5674 34.8977 82.4674 34.3121 82.2674 33.7694C82.0675 33.2267 81.7594 32.788 81.3432 32.4534C80.927 32.1188 80.3965 31.9515 79.7518 31.9515C79.107 31.9515 78.5766 32.1188 78.1603 32.4534C77.7441 32.788 77.436 33.2267 77.2361 33.7694C77.0361 34.3121 76.9362 34.8977 76.9362 35.5261C76.9362 36.1545 77.0361 36.738 77.2361 37.2767C77.436 37.8153 77.7441 38.2499 78.1603 38.5804C78.5766 38.911 79.107 39.0762 79.7518 39.0762ZM90.0119 43.8995C89.3141 43.8995 88.7143 43.8097 88.2124 43.6302C87.7104 43.4547 87.2922 43.2221 86.9576 42.9324C86.627 42.6467 86.3638 42.3407 86.168 42.0142L87.3187 41.2063C87.4493 41.3777 87.6146 41.5735 87.8145 41.7939C88.0144 42.0183 88.2878 42.2122 88.6347 42.3754C88.9856 42.5427 89.4447 42.6263 90.0119 42.6263C90.7709 42.6263 91.3973 42.4427 91.891 42.0755C92.3848 41.7082 92.6316 41.1328 92.6316 40.3494V38.4396H92.5092C92.4031 38.611 92.2521 38.8232 92.0563 39.0762C91.8645 39.3251 91.587 39.5475 91.2238 39.7434C90.8647 39.9352 90.3792 40.0311 89.7671 40.0311C89.0081 40.0311 88.3266 39.8515 87.7227 39.4924C87.1228 39.1333 86.6475 38.611 86.2965 37.9255C85.9497 37.24 85.7762 36.4075 85.7762 35.4282C85.7762 34.4652 85.9456 33.6266 86.2843 32.9125C86.623 32.1943 87.0943 31.6393 87.6982 31.2476C88.3021 30.8518 88.9999 30.6539 89.7915 30.6539C90.4036 30.6539 90.8892 30.7559 91.2483 30.9599C91.6115 31.1599 91.889 31.3884 92.0808 31.6455C92.2766 31.8985 92.4276 32.1066 92.5337 32.2698H92.6806V30.7763H94.0762V40.4473C94.0762 41.2553 93.8925 41.9122 93.5253 42.4182C93.1621 42.9283 92.6724 43.3017 92.0563 43.5383C91.4442 43.7791 90.7627 43.8995 90.0119 43.8995ZM89.9629 38.7334C90.5424 38.7334 91.032 38.6008 91.4319 38.3356C91.8318 38.0704 92.1358 37.6888 92.344 37.191C92.5521 36.6932 92.6561 36.0974 92.6561 35.4037C92.6561 34.7263 92.5541 34.1285 92.3501 33.6103C92.146 33.092 91.8441 32.686 91.4442 32.3922C91.0443 32.0984 90.5505 31.9515 89.9629 31.9515C89.3508 31.9515 88.8408 32.1066 88.4327 32.4167C88.0287 32.7268 87.7247 33.143 87.5207 33.6654C87.3207 34.1877 87.2208 34.7671 87.2208 35.4037C87.2208 36.0566 87.3228 36.634 87.5268 37.1359C87.7349 37.6337 88.041 38.0255 88.445 38.3111C88.853 38.5927 89.359 38.7334 89.9629 38.7334ZM98.1649 27.6424V40.178H96.7204V27.6424H98.1649ZM104.753 40.3738C103.847 40.3738 103.065 40.1739 102.408 39.774C101.755 39.37 101.251 38.8069 100.896 38.0846C100.545 37.3583 100.37 36.5136 100.37 35.5506C100.37 34.5876 100.545 33.7388 100.896 33.0043C101.251 32.2657 101.745 31.6903 102.378 31.2782C103.014 30.862 103.757 30.6539 104.606 30.6539C105.095 30.6539 105.579 30.7355 106.056 30.8987C106.534 31.0619 106.968 31.3272 107.36 31.6944C107.752 32.0576 108.064 32.5391 108.297 33.139C108.529 33.7388 108.645 34.4774 108.645 35.3547V35.9668H101.398V34.7181H107.176C107.176 34.1877 107.07 33.7143 106.858 33.2981C106.65 32.8819 106.352 32.5534 105.964 32.3126C105.581 32.0719 105.128 31.9515 104.606 31.9515C104.03 31.9515 103.532 32.0943 103.112 32.38C102.696 32.6615 102.376 33.0288 102.151 33.4817C101.927 33.9347 101.814 34.4203 101.814 34.9385V35.7709C101.814 36.481 101.937 37.0829 102.182 37.5766C102.431 38.0663 102.775 38.4396 103.216 38.6967C103.657 38.9497 104.169 39.0762 104.753 39.0762C105.132 39.0762 105.475 39.0232 105.781 38.9171C106.091 38.8069 106.358 38.6437 106.583 38.4274C106.807 38.2071 106.981 37.9337 107.103 37.6072L108.499 37.9989C108.352 38.4723 108.105 38.8885 107.758 39.2476C107.411 39.6026 106.983 39.8801 106.472 40.08C105.962 40.2759 105.389 40.3738 104.753 40.3738ZM115.886 40.178V27.6424H120.122C121.105 27.6424 121.909 27.8199 122.534 28.1749C123.162 28.5259 123.627 29.0012 123.929 29.6011C124.231 30.2009 124.382 30.8702 124.382 31.6087C124.382 32.3473 124.231 33.0186 123.929 33.6225C123.631 34.2264 123.17 34.7079 122.546 35.067C121.922 35.422 121.122 35.5996 120.147 35.5996H117.111V34.253H120.098C120.771 34.253 121.312 34.1367 121.72 33.9041C122.128 33.6715 122.424 33.3573 122.607 32.9615C122.795 32.5616 122.889 32.1107 122.889 31.6087C122.889 31.1068 122.795 30.658 122.607 30.2621C122.424 29.8663 122.126 29.5562 121.713 29.3318C121.301 29.1033 120.755 28.989 120.073 28.989H117.404V40.178H115.886ZM128.076 27.6424V40.178H126.632V27.6424H128.076ZM133.489 40.3983C132.893 40.3983 132.352 40.2861 131.867 40.0617C131.381 39.8332 130.995 39.5047 130.71 39.0762C130.424 38.6437 130.281 38.1214 130.281 37.5093C130.281 36.9706 130.387 36.534 130.599 36.1994C130.812 35.8607 131.095 35.5955 131.45 35.4037C131.805 35.2119 132.197 35.0691 132.626 34.9752C133.058 34.8773 133.493 34.7998 133.929 34.7426C134.501 34.6692 134.964 34.6141 135.319 34.5774C135.678 34.5366 135.939 34.4692 136.102 34.3754C136.269 34.2815 136.353 34.1183 136.353 33.8857V33.8367C136.353 33.2328 136.188 32.7635 135.857 32.4289C135.531 32.0943 135.035 31.927 134.37 31.927C133.68 31.927 133.14 32.078 132.748 32.38C132.356 32.6819 132.081 33.0043 131.922 33.3471L130.551 32.8574C130.795 32.2861 131.122 31.8413 131.53 31.523C131.942 31.2007 132.391 30.9762 132.876 30.8497C133.366 30.7192 133.848 30.6539 134.321 30.6539C134.623 30.6539 134.97 30.6906 135.362 30.7641C135.757 30.8334 136.139 30.9783 136.506 31.1986C136.877 31.419 137.186 31.7516 137.43 32.1963C137.675 32.6411 137.798 33.2369 137.798 33.9836V40.178H136.353V38.9048H136.28C136.182 39.1089 136.019 39.3272 135.79 39.5598C135.561 39.7924 135.257 39.9903 134.878 40.1535C134.499 40.3167 134.035 40.3983 133.489 40.3983ZM133.709 39.1007C134.28 39.1007 134.762 38.9885 135.153 38.7641C135.549 38.5396 135.847 38.2499 136.047 37.8949C136.251 37.5399 136.353 37.1665 136.353 36.7748V35.4527C136.292 35.5261 136.157 35.5934 135.949 35.6546C135.745 35.7118 135.508 35.7628 135.239 35.8077C134.974 35.8485 134.715 35.8852 134.462 35.9178C134.213 35.9464 134.011 35.9709 133.856 35.9913C133.48 36.0403 133.129 36.1198 132.803 36.23C132.481 36.3361 132.219 36.4973 132.02 36.7136C131.824 36.9257 131.726 37.2155 131.726 37.5827C131.726 38.0846 131.911 38.4641 132.283 38.7212C132.658 38.9742 133.134 39.1007 133.709 39.1007ZM141.028 43.7036C140.783 43.7036 140.565 43.6832 140.373 43.6424C140.181 43.6057 140.049 43.5689 139.975 43.5322L140.342 42.2591C140.693 42.3489 141.003 42.3815 141.273 42.357C141.542 42.3325 141.781 42.2122 141.989 41.9959C142.201 41.7837 142.395 41.4389 142.57 40.9615L142.84 40.2269L139.363 30.7763H140.93L143.525 38.2683H143.623L146.218 30.7763H147.785L143.795 41.5491C143.615 42.0346 143.393 42.4366 143.127 42.7549C142.862 43.0772 142.554 43.316 142.203 43.471C141.856 43.6261 141.465 43.7036 141.028 43.7036Z" fill="white"/>
<path d="M59.0228 14.8819C58.9799 14.5934 58.9057 14.3349 58.8 14.1064C58.6971 13.875 58.56 13.6793 58.3886 13.5194C58.2173 13.3566 58.0102 13.2323 57.7674 13.1466C57.5274 13.0581 57.2489 13.0138 56.9319 13.0138C56.412 13.0138 55.9093 13.1481 55.4237 13.4166C54.941 13.6851 54.5225 14.0807 54.1683 14.6034C53.817 15.1261 53.5784 15.7674 53.4528 16.5272C53.3271 17.287 53.3399 17.9283 53.4913 18.451C53.6456 18.9737 53.9098 19.3693 54.284 19.6378C54.661 19.9063 55.1209 20.0406 55.6636 20.0406C56.1664 20.0406 56.6348 19.9335 57.069 19.7192C57.5032 19.5021 57.8673 19.1965 58.1616 18.8023C58.4558 18.4053 58.6457 17.9383 58.7314 17.4013L59.0399 17.4698H56.4006L56.572 16.5272H59.914L59.7426 17.4698C59.6283 18.1953 59.3741 18.8252 58.9799 19.3593C58.5857 19.8935 58.0944 20.3062 57.506 20.5976C56.9176 20.8889 56.2749 21.0346 55.5779 21.0346C54.801 21.0346 54.1497 20.8518 53.6241 20.4862C53.0986 20.1206 52.7287 19.6007 52.5144 18.9266C52.3002 18.2525 52.2702 17.4527 52.4245 16.5272C52.5359 15.8331 52.7301 15.209 53.0072 14.6548C53.2871 14.0978 53.6299 13.6236 54.0355 13.2323C54.4439 12.841 54.8995 12.5411 55.4023 12.3325C55.9078 12.124 56.4406 12.0198 57.0004 12.0198C57.4632 12.0198 57.8831 12.0898 58.2601 12.2297C58.64 12.3668 58.9671 12.5625 59.2413 12.8167C59.5155 13.0681 59.7283 13.3694 59.8797 13.7208C60.0311 14.0692 60.1111 14.4563 60.1196 14.8819H59.0228ZM63.602 21.0518C62.9707 21.0518 62.4494 20.9118 62.0381 20.6319C61.6267 20.3491 61.3397 19.9549 61.1769 19.4493C61.014 18.9409 60.9883 18.3496 61.0997 17.6755C61.2111 17.0014 61.4325 16.4072 61.7639 15.8931C62.0952 15.3761 62.508 14.9733 63.0021 14.6848C63.4963 14.3935 64.039 14.2478 64.6303 14.2478C64.973 14.2478 65.303 14.3049 65.62 14.4192C65.9371 14.5334 66.2113 14.7191 66.4427 14.9762C66.674 15.2304 66.8354 15.5674 66.9268 15.9873C67.0182 16.4072 67.0125 16.9242 66.9097 17.5384L66.8411 17.9668H61.7681L61.9052 17.0928H65.9499C66.0156 16.7214 65.9985 16.3901 65.8985 16.0987C65.8014 15.8074 65.6314 15.5774 65.3886 15.4089C65.1487 15.2404 64.8445 15.1561 64.476 15.1561C64.0961 15.1561 63.7419 15.2589 63.4134 15.4646C63.0849 15.6674 62.8107 15.9245 62.5908 16.2358C62.3708 16.5443 62.2337 16.8585 62.1795 17.1785L62.0595 17.9325C61.9738 18.4781 61.9867 18.9123 62.0981 19.2351C62.2123 19.5578 62.4108 19.7906 62.6936 19.9335C62.9764 20.0734 63.3306 20.1434 63.7562 20.1434C64.0276 20.1434 64.2775 20.1063 64.506 20.032C64.7345 19.9549 64.9388 19.8406 65.1187 19.6892C65.2987 19.535 65.4501 19.3436 65.5729 19.1151L66.4984 19.3893C66.3413 19.7207 66.1199 20.012 65.8342 20.2634C65.5515 20.5119 65.2201 20.7061 64.8402 20.8461C64.4632 20.9832 64.0504 21.0518 63.602 21.0518ZM71.8648 14.3335L71.7277 15.1904H68.3172L68.4543 14.3335H71.8648ZM69.7054 12.7567H70.7166L69.6711 19.0294C69.6254 19.3151 69.6326 19.5293 69.6925 19.6721C69.7554 19.8121 69.8496 19.9063 69.9753 19.9549C70.1039 20.0006 70.2424 20.0234 70.3909 20.0234C70.5023 20.0234 70.5937 20.0177 70.6652 20.0063C70.7366 19.992 70.7937 19.9806 70.8365 19.972L70.9051 20.8804C70.828 20.9061 70.7237 20.9318 70.5923 20.9575C70.4638 20.9861 70.3052 21.0003 70.1167 21.0003C69.8311 21.0003 69.5626 20.9389 69.3112 20.8161C69.0598 20.6933 68.867 20.5062 68.7328 20.2548C68.5985 20.0034 68.5628 19.6864 68.6257 19.3036L69.7054 12.7567ZM75.6824 20.9146L76.7793 14.3335H77.7905L76.6936 20.9146H75.6824ZM77.5934 13.2195C77.3963 13.2195 77.2263 13.1523 77.0835 13.0181C76.9436 12.8838 76.8736 12.7224 76.8736 12.5339C76.8736 12.3454 76.9436 12.184 77.0835 12.0498C77.2263 11.9155 77.3963 11.8484 77.5934 11.8484C77.7905 11.8484 77.959 11.9155 78.099 12.0498C78.2418 12.184 78.3132 12.3454 78.3132 12.5339C78.3132 12.7224 78.2418 12.8838 78.099 13.0181C77.959 13.1523 77.7905 13.2195 77.5934 13.2195ZM82.5046 14.3335L82.3675 15.1904H78.957L79.0941 14.3335H82.5046ZM80.3452 12.7567H81.3564L80.3109 19.0294C80.2652 19.3151 80.2723 19.5293 80.3323 19.6721C80.3952 19.8121 80.4894 19.9063 80.6151 19.9549C80.7437 20.0006 80.8822 20.0234 81.0307 20.0234C81.1421 20.0234 81.2335 20.0177 81.3049 20.0063C81.3763 19.992 81.4335 19.9806 81.4763 19.972L81.5449 20.8804C81.4678 20.9061 81.3635 20.9318 81.2321 20.9575C81.1036 20.9861 80.945 21.0003 80.7565 21.0003C80.4709 21.0003 80.2024 20.9389 79.951 20.8161C79.6996 20.6933 79.5068 20.5062 79.3726 20.2548C79.2383 20.0034 79.2026 19.6864 79.2655 19.3036L80.3452 12.7567ZM89.0387 21.0518C88.4331 21.0518 87.9261 20.9075 87.5176 20.619C87.1092 20.3305 86.8207 19.9263 86.6521 19.4065C86.4865 18.8866 86.4593 18.281 86.5707 17.5898C86.6793 16.9157 86.8949 16.3287 87.2177 15.8288C87.5433 15.3261 87.9475 14.9376 88.4303 14.6634C88.9158 14.3863 89.45 14.2478 90.0327 14.2478C90.6383 14.2478 91.1439 14.3935 91.5495 14.6848C91.9579 14.9733 92.2464 15.3789 92.415 15.9016C92.5835 16.4215 92.612 17.0299 92.5006 17.7269C92.3921 18.3953 92.1736 18.9794 91.8451 19.4793C91.5195 19.9763 91.1153 20.3634 90.6326 20.6404C90.1527 20.9146 89.6214 21.0518 89.0387 21.0518ZM89.0558 20.1434C89.5186 20.1434 89.9199 20.0249 90.2598 19.7878C90.6026 19.5507 90.8796 19.2379 91.091 18.8495C91.3052 18.461 91.4495 18.0411 91.5238 17.5898C91.5923 17.1613 91.5895 16.7628 91.5152 16.3944C91.4409 16.023 91.2824 15.7245 91.0396 15.4989C90.7968 15.2704 90.4555 15.1561 90.0156 15.1561C89.5528 15.1561 89.1486 15.2761 88.803 15.516C88.4603 15.756 88.1832 16.0716 87.9718 16.4629C87.7604 16.8543 87.619 17.2756 87.5476 17.7269C87.4791 18.1553 87.4805 18.5538 87.5519 18.9223C87.6262 19.2879 87.7847 19.5836 88.0275 19.8092C88.2732 20.032 88.6159 20.1434 89.0558 20.1434ZM95.1839 16.9557L94.5326 20.9146H93.5215L94.6183 14.3335H95.5952L95.4238 15.3618H95.5095C95.7152 15.0276 95.9937 14.7591 96.345 14.5563C96.6964 14.3506 97.1205 14.2478 97.6176 14.2478C98.0574 14.2478 98.4288 14.3392 98.7316 14.522C99.0372 14.7019 99.2529 14.9762 99.3785 15.3446C99.5071 15.7103 99.5256 16.173 99.4342 16.7329L98.7316 20.9146H97.7204L98.4059 16.8014C98.4916 16.2873 98.4245 15.8845 98.2045 15.5931C97.9875 15.3018 97.6433 15.1561 97.172 15.1561C96.8463 15.1561 96.545 15.2261 96.2679 15.3661C95.9937 15.506 95.7609 15.7103 95.5695 15.9788C95.381 16.2473 95.2524 16.5729 95.1839 16.9557Z" fill="white"/>
<path d="M20.8698 39.2691L31.4013 27.7067L34.5814 31.1567L21.1542 39.135C21.0594 39.1885 20.9646 39.2421 20.8698 39.2778V39.2691ZM19.9563 39.2691C19.5943 38.9392 19.4134 38.4485 19.4651 37.9493C19.4651 37.3609 19.4392 32.4137 19.4133 27.4216C19.3874 22.367 19.3616 17.25 19.3616 16.5369C19.3013 16.0376 19.5082 15.5383 19.9046 15.2441L30.9445 27.1987L19.9563 39.2599V39.2691ZM35.176 30.8002L31.8581 27.1987L35.176 23.5523L39.7437 26.2537C40.1746 26.5033 40.3901 26.8064 40.3901 27.1273C40.3384 27.5374 40.0971 27.894 39.7437 28.0723L35.176 30.7824V30.8002ZM31.3926 26.7081L20.6803 15.1104C20.844 15.1283 21.0077 15.1904 21.1456 15.2706L34.5728 23.2137L31.3926 26.7081Z" fill="white"/>
</svg>
