<svg width="26" height="32" viewBox="0 0 26 32" fill="none" xmlns="http://www.w3.org/2000/svg">
<path d="M22.712 12.8H21V8C21 8 21 0 13 0C4.99995 0 4.99995 8 4.99995 8V12.8H3.28795C2.46896 12.8 1.68352 13.1253 1.10441 13.7045C0.525293 14.2836 0.199951 15.069 0.199951 15.888V28.928C0.20418 29.7442 0.531388 30.5256 1.11004 31.1012C1.6887 31.6769 2.47173 32 3.28795 32H22.712C23.5309 32 24.3164 31.6747 24.8955 31.0955C25.4746 30.5164 25.8 29.731 25.8 28.912V15.888C25.8 15.069 25.4746 14.2836 24.8955 13.7045C24.3164 13.1253 23.5309 12.8 22.712 12.8ZM8.19995 8.8C8.19995 6.4 8.19995 3.2 13 3.2C17.8 3.2 17.8 6.4 17.8 8.8V12.8H8.19995V8.8ZM13 25.6C12.3671 25.6 11.7484 25.4123 11.2221 25.0607C10.6959 24.7091 10.2857 24.2093 10.0435 23.6246C9.80134 23.0399 9.73797 22.3965 9.86144 21.7757C9.98491 21.155 10.2897 20.5848 10.7372 20.1373C11.1847 19.6897 11.7549 19.385 12.3757 19.2615C12.9964 19.138 13.6398 19.2014 14.2245 19.4436C14.8093 19.6858 15.309 20.0959 15.6607 20.6222C16.0123 21.1484 16.2 21.7671 16.2 22.4C16.2 23.2487 15.8628 24.0626 15.2627 24.6627C14.6626 25.2629 13.8486 25.6 13 25.6Z" fill="white"/>
</svg>
