<svg width="32" height="32" viewBox="0 0 32 32" fill="none" xmlns="http://www.w3.org/2000/svg">
<path d="M17.6 14.832V0L27.2 17.6L20.8 27.2H11.2L4.80005 17.6L14.4 0V14.832C13.79 15.1842 13.3132 15.7279 13.0436 16.3787C12.7741 17.0295 12.7268 17.7511 12.9091 18.4315C13.0914 19.1119 13.4932 19.7132 14.052 20.142C14.6109 20.5708 15.2956 20.8033 16 20.8033C16.7045 20.8033 17.3892 20.5708 17.9481 20.142C18.5069 19.7132 18.9087 19.1119 19.091 18.4315C19.2733 17.7511 19.226 17.0295 18.9565 16.3787C18.6869 15.7279 18.2101 15.1842 17.6 14.832ZM9.60005 28.8H22.4V32H9.60005V28.8Z" fill="white"/>
</svg>
