<svg width="24" height="24" viewBox="0 0 24 24" fill="none" xmlns="http://www.w3.org/2000/svg">
<path d="M14.4 10.6667C14.0222 10.6667 13.7053 10.5387 13.4493 10.2827C13.1933 10.0267 13.0658 9.71022 13.0667 9.33333V4C13.0667 3.62222 13.1947 3.30533 13.4507 3.04933C13.7067 2.79333 14.0231 2.66578 14.4 2.66667C14.7778 2.66667 15.0947 2.79467 15.3507 3.05067C15.6067 3.30667 15.7342 3.62311 15.7333 4V6.13333L21.4667 0.4C21.7111 0.155555 22.0222 0.0333335 22.4 0.0333335C22.7778 0.0333335 23.0889 0.155555 23.3333 0.4C23.5778 0.644444 23.7 0.955556 23.7 1.33333C23.7 1.71111 23.5778 2.02222 23.3333 2.26667L17.6 8H19.7333C20.1111 8 20.428 8.128 20.684 8.384C20.94 8.64 21.0676 8.95644 21.0667 9.33333C21.0667 9.71111 20.9387 10.028 20.6827 10.284C20.4267 10.54 20.1102 10.6676 19.7333 10.6667H14.4ZM22.6 24C19.7333 24 16.9391 23.3609 14.2173 22.0827C11.4956 20.8044 9.08444 19.1156 6.984 17.016C4.88356 14.9164 3.19467 12.5053 1.91733 9.78267C0.64 7.06 0.000888889 4.26578 0 1.4C0 1 0.133333 0.666667 0.4 0.4C0.666667 0.133333 1 0 1.4 0H6.8C7.11111 0 7.38889 0.0999999 7.63333 0.3C7.87778 0.5 8.02222 0.755556 8.06667 1.06667L8.93333 5.73333C8.97778 6.04445 8.972 6.328 8.916 6.584C8.86 6.84 8.73244 7.06756 8.53333 7.26667L5.33333 10.5333C6.26667 12.1333 7.43333 13.6333 8.83333 15.0333C10.2333 16.4333 11.7778 17.6444 13.4667 18.6667L16.6 15.5333C16.8 15.3333 17.0613 15.1836 17.384 15.084C17.7067 14.9844 18.0231 14.9564 18.3333 15L22.9333 15.9333C23.2444 16 23.5 16.1502 23.7 16.384C23.9 16.6178 24 16.8898 24 17.2V22.6C24 23 23.8667 23.3333 23.6 23.6C23.3333 23.8667 23 24 22.6 24Z" fill="white"/>
</svg>
