<svg width="48" height="36" viewBox="0 0 48 36" fill="none" xmlns="http://www.w3.org/2000/svg">
<path d="M30.5455 0C35.1747 0 39.6143 1.89642 42.8877 5.27208C46.161 8.64773 48 13.2261 48 18C48 22.7739 46.161 27.3523 42.8877 30.7279C39.6143 34.1036 35.1747 36 30.5455 36C25.9162 36 21.4766 34.1036 18.2032 30.7279C14.9299 27.3523 13.0909 22.7739 13.0909 18C13.0909 13.2261 14.9299 8.64773 18.2032 5.27208C21.4766 1.89642 25.9162 0 30.5455 0ZM30.5455 4.5C27.0735 4.5 23.7438 5.92232 21.2888 8.45406C18.8338 10.9858 17.4545 14.4196 17.4545 18C17.4545 21.5804 18.8338 25.0142 21.2888 27.5459C23.7438 30.0777 27.0735 31.5 30.5455 31.5C34.0174 31.5 37.3471 30.0777 39.8021 27.5459C42.2571 25.0142 43.6364 21.5804 43.6364 18C43.6364 14.4196 42.2571 10.9858 39.8021 8.45406C37.3471 5.92232 34.0174 4.5 30.5455 4.5ZM28.3636 9H31.6364V17.505L36.72 22.7475L34.4073 25.1325L28.3636 18.9V9ZM2.18182 31.5C1.60316 31.5 1.04821 31.2629 0.63904 30.841C0.229869 30.419 0 29.8467 0 29.25C0 28.6533 0.229869 28.081 0.63904 27.659C1.04821 27.2371 1.60316 27 2.18182 27H10.5382C11.2145 28.5975 12.0873 30.105 13.0909 31.5H2.18182ZM4.36364 20.25C3.78498 20.25 3.23003 20.0129 2.82086 19.591C2.41169 19.169 2.18182 18.5967 2.18182 18C2.18182 17.4033 2.41169 16.831 2.82086 16.409C3.23003 15.9871 3.78498 15.75 4.36364 15.75H8.83636L8.72727 18L8.83636 20.25H4.36364ZM6.54545 9C5.9668 9 5.41185 8.76295 5.00268 8.34099C4.59351 7.91903 4.36364 7.34674 4.36364 6.75C4.36364 6.15326 4.59351 5.58097 5.00268 5.15901C5.41185 4.73705 5.9668 4.5 6.54545 4.5H13.0909C12.0873 5.895 11.2145 7.4025 10.5382 9H6.54545Z" fill="#2B3C87"/>
</svg>
