<svg width="39" height="48" viewBox="0 0 39 48" fill="none" xmlns="http://www.w3.org/2000/svg">
<path d="M19.5 0L0 8.72727V21.8182C0 33.9273 8.32 45.2509 19.5 48C30.68 45.2509 39 33.9273 39 21.8182V8.72727L19.5 0ZM19.5 8.72727C21.2239 8.72727 22.8772 9.41688 24.0962 10.6444C25.3152 11.8719 26 13.5368 26 15.2727C26 17.0087 25.3152 18.6736 24.0962 19.9011C22.8772 21.1286 21.2239 21.8182 19.5 21.8182C17.7761 21.8182 16.1228 21.1286 14.9038 19.9011C13.6848 18.6736 13 17.0087 13 15.2727C13 13.5368 13.6848 11.8719 14.9038 10.6444C16.1228 9.41688 17.7761 8.72727 19.5 8.72727ZM30.615 34.9091C27.9898 38.9556 24.067 41.9742 19.5 43.4618C14.933 41.9742 11.0102 38.9556 8.385 34.9091C7.64833 33.8182 7.02 32.7273 6.5 31.5709C6.5 27.9709 12.3717 25.0255 19.5 25.0255C26.6283 25.0255 32.5 27.9055 32.5 31.5709C31.98 32.7273 31.3517 33.8182 30.615 34.9091Z" fill="#2B2C6B"/>
</svg>
