<svg width="45" height="40" viewBox="0 0 45 40" fill="none" xmlns="http://www.w3.org/2000/svg">
<path fill-rule="evenodd" clip-rule="evenodd" d="M37.9746 14.2843H32.3484C31.57 14.2843 30.9394 13.6437 30.9394 12.8529C30.9394 12.0621 31.57 11.4214 32.3484 11.4214H37.9746C38.753 11.4214 39.3836 12.0621 39.3836 12.8529C39.3836 13.6437 38.753 14.2843 37.9746 14.2843ZM37.9746 20H32.3484C31.57 20 30.9394 19.3593 30.9394 18.5685C30.9394 17.7778 31.57 17.1371 32.3484 17.1371H37.9746C38.753 17.1371 39.3836 17.7778 39.3836 18.5685C39.3836 19.3593 38.753 20 37.9746 20ZM23.9139 28.5686H37.9746C38.753 28.5686 39.3836 29.2092 39.3836 30C39.3836 30.7908 38.753 31.4314 37.9746 31.4314H23.9139C23.1355 31.4314 22.5049 30.7908 22.5049 30C22.5049 29.2092 23.1355 28.5686 23.9139 28.5686ZM23.9139 22.8529H37.9746C38.753 22.8529 39.3836 23.4935 39.3836 24.2843C39.3836 25.0751 38.753 25.7157 37.9746 25.7157H23.9139C23.1355 25.7157 22.5049 25.0751 22.5049 24.2843C22.5049 23.4935 23.1355 22.8529 23.9139 22.8529ZM11.2525 12.1421C11.2525 10.1702 12.829 8.56856 14.7701 8.56856H24.6135C26.5546 8.56856 28.1312 10.1702 28.1312 12.1421V18.5685C28.1312 19.3593 27.5006 20 26.7221 20C25.9437 20 25.3131 19.3593 25.3131 18.5685V12.8529C25.3131 12.0621 24.6825 11.4214 23.9041 11.4214H15.4697C14.6913 11.4214 14.0606 12.0621 14.0606 12.8529V15.7157C14.0606 16.5065 14.6913 17.1471 15.4697 17.1471H21.0959C21.8743 17.1471 22.5049 17.7878 22.5049 18.5786C22.5049 19.3694 21.8743 20.01 21.0959 20.01H14.7701C12.829 20.01 11.2525 18.4084 11.2525 16.4364V12.1522V12.1421ZM12.6615 28.5686H18.2877C19.0661 28.5686 19.6967 29.2092 19.6967 30C19.6967 30.7908 19.0661 31.4314 18.2877 31.4314H12.6615C11.8831 31.4314 11.2525 30.7908 11.2525 30C11.2525 29.2092 11.8831 28.5686 12.6615 28.5686ZM12.6615 22.8529H18.2877C19.0661 22.8529 19.6967 23.4935 19.6967 24.2843C19.6967 25.0751 19.0661 25.7157 18.2877 25.7157H12.6615C11.8831 25.7157 11.2525 25.0751 11.2525 24.2843C11.2525 23.4935 11.8831 22.8529 12.6615 22.8529ZM39.3836 40H8.44428C3.78367 40 0.00983285 36.1562 0.00983285 31.4314V21.4315C0.00983285 20.6407 0.640467 20 1.41888 20C2.19729 20 2.82789 20.6407 2.82789 21.4315V31.4314C2.82789 34.5846 5.35033 37.1471 8.45412 37.1471H38.684C40.6251 37.1471 42.2017 35.5456 42.2017 33.5736V6.42641C42.2017 4.45443 40.6251 2.85289 38.684 2.85289H11.9619C10.0208 2.85289 8.44428 4.45443 8.44428 6.42641V30C8.44428 30.7908 7.81365 31.4314 7.03524 31.4314C6.25683 31.4314 5.62623 30.7908 5.62623 30V5.71573C5.62623 2.56258 8.14866 0 11.2525 0H39.3738C42.4776 0 45 2.56258 45 5.71573V34.2843C45 37.4374 42.4776 40 39.3738 40M1.40901 17.1371C0.630604 17.1371 0 16.4965 0 15.7057C0 14.9149 0.630604 14.2743 1.40901 14.2743C2.18743 14.2743 2.81803 14.9149 2.81803 15.7057C2.81803 16.4965 2.18743 17.1371 1.40901 17.1371Z" fill="#575756"/>
</svg>
