<svg width="204" height="29" viewBox="0 0 204 29" fill="none" xmlns="http://www.w3.org/2000/svg">
<path d="M9.61857 29C9.61857 28.8714 9.61857 28.7427 9.61857 28.6049V10.3926C9.61857 9.91477 9.61857 9.91477 9.14131 9.91477H0V0H28.6905V9.89639H28.2408H19.5584C18.9985 9.89639 18.9985 9.89639 18.9985 10.4385V28.4854C18.9985 28.6508 18.9985 28.8254 18.9985 28.9908L9.61857 29Z" fill="#0A9600"/>
<path d="M28.7272 29C28.7272 28.0811 28.7272 27.1622 28.7272 26.2433V10.0067H38.0888V19.2966H57.1423V29H28.7272Z" fill="#0A9600"/>
<path d="M57.1241 0V9.8872H38.1439V0H57.1241Z" fill="#0A9600"/>
<path d="M119.25 24.0104H118.901C117.699 24.0104 116.506 24.0104 115.303 24.0104C115.01 24.0104 114.936 23.9185 114.936 23.6337C114.936 21.3824 114.936 19.1312 114.936 16.8891C114.937 16.467 114.882 16.0467 114.771 15.6394C114.698 15.366 114.526 15.1293 114.289 14.975C114.051 14.8207 113.766 14.7595 113.486 14.8032C112.789 14.8032 112.367 15.0421 112.201 15.6394C112.081 16.0576 112.019 16.4906 112.018 16.9258C112.018 19.122 112.018 21.3273 112.018 23.5234V23.9829H107.732V23.5786C107.732 18.6074 107.732 13.6362 107.732 8.66506C107.715 8.5426 107.746 8.41846 107.817 8.31779C107.889 8.21713 107.996 8.14747 108.117 8.12292L111.614 6.71703L112.036 6.57001V12.2579L112.458 11.9914C113.027 11.608 113.67 11.3493 114.345 11.2321C115.021 11.1149 115.713 11.1419 116.377 11.3115C117.057 11.4602 117.676 11.8123 118.151 12.321C118.626 12.8297 118.936 13.4711 119.039 14.16C119.18 14.7348 119.257 15.3234 119.268 15.9151C119.268 18.5155 119.268 21.116 119.268 23.7164C119.259 23.8175 119.25 23.891 119.25 24.0104Z" fill="#0A9600"/>
<path d="M76.609 24.0105H72.0199V11.7617C72.0199 11.2931 72.0199 11.2931 71.5427 11.2931H67.2749V7.35107H81.2806V11.3207H76.609V24.0105Z" fill="#0A9600"/>
<path d="M92.1749 18.9841H84.8325C84.8221 19.2532 84.8675 19.5215 84.9659 19.7721C85.0643 20.0227 85.2135 20.2501 85.4041 20.4401C85.5947 20.63 85.8225 20.7784 86.0733 20.8757C86.324 20.9731 86.5922 21.0173 86.8609 21.0057C87.8812 21.018 88.8892 20.7815 89.7978 20.3165L90.2017 20.1236L91.8445 22.8802C91.5508 23.0364 91.2847 23.1926 91.0093 23.3213C89.3671 24.1553 87.5124 24.4754 85.6861 24.2402C84.6488 24.1356 83.6683 23.716 82.8759 23.0377C82.0836 22.3594 81.5173 21.4548 81.2531 20.4452C80.6796 18.6836 80.6796 16.7853 81.2531 15.0238C81.5972 13.8563 82.3328 12.8432 83.3359 12.1553C84.3389 11.4674 85.5482 11.1466 86.7599 11.2471C88.0082 11.2065 89.2271 11.6315 90.1802 12.4397C91.1332 13.2478 91.7525 14.3816 91.9179 15.621C92.0423 16.357 92.125 17.0994 92.1658 17.8447C92.1933 18.1847 92.1749 18.5523 92.1749 18.9841ZM88.366 16.2826C88.2008 14.8584 87.4482 14.2243 86.1725 14.4449C85.7645 14.535 85.4036 14.7719 85.1584 15.1106C84.9131 15.4493 84.8004 15.8663 84.8417 16.2826H88.366Z" fill="#0A9600"/>
<path d="M105.116 14.0865L102.197 16.2918C102.005 15.9978 101.839 15.7129 101.647 15.4372C101.518 15.2405 101.349 15.0733 101.152 14.9466C100.954 14.8198 100.732 14.7365 100.499 14.7021C100.169 14.6393 99.8264 14.6976 99.535 14.8662C99.2435 15.0349 99.0223 15.3027 98.9116 15.621C98.5843 16.5006 98.474 17.4463 98.5903 18.3777C98.6276 18.8216 98.717 19.2595 98.8565 19.6825C98.9328 19.9474 99.0762 20.188 99.2728 20.381C99.4694 20.574 99.7125 20.7128 99.9785 20.784C100.244 20.8552 100.524 20.8564 100.791 20.7873C101.057 20.7183 101.302 20.5814 101.5 20.39C101.886 20.0252 102.248 19.6354 102.583 19.223L105.244 21.2997C104.763 22.236 104.025 23.0148 103.115 23.5441C102.206 24.0733 101.165 24.3308 100.114 24.2861C98.7116 24.3255 97.3423 23.8555 96.2591 22.9629C95.2781 22.0645 94.6471 20.8467 94.4786 19.5263C94.1528 17.8938 94.2798 16.2032 94.8457 14.6378C95.1997 13.6549 95.8441 12.8031 96.6934 12.1958C97.5426 11.5885 98.5564 11.2544 99.5999 11.2379C100.48 11.1348 101.372 11.2226 102.216 11.4952C103.465 11.9773 104.496 12.8985 105.116 14.0865Z" fill="#0A9600"/>
<path d="M204 24.0656H199.65V23.6154C199.65 21.2722 199.65 18.929 199.65 16.5859C199.645 16.404 199.627 16.2227 199.595 16.0437C199.575 15.8204 199.502 15.6051 199.38 15.417C199.258 15.2288 199.092 15.0735 198.896 14.9646C198.7 14.8557 198.481 14.7966 198.257 14.7925C198.033 14.7884 197.812 14.8394 197.612 14.9411C197.382 15.0497 197.186 15.221 197.048 15.4354C196.91 15.6499 196.835 15.8989 196.832 16.154C196.798 16.4068 196.783 16.6617 196.786 16.9167V24.038H192.472C192.472 23.9002 192.472 23.7716 192.472 23.6429C192.472 18.6534 192.472 13.6546 192.472 8.6651C192.452 8.54986 192.476 8.43128 192.539 8.33266C192.602 8.23405 192.699 8.16252 192.812 8.13215C194.033 7.6727 195.244 7.21326 196.483 6.6895L196.832 6.56085V12.2487L197.208 12.0098C197.786 11.6161 198.441 11.3509 199.13 11.232C199.819 11.1131 200.525 11.1434 201.201 11.3207C201.858 11.5026 202.448 11.8709 202.901 12.3812C203.354 12.8915 203.649 13.522 203.752 14.1968C203.835 14.5276 203.899 14.8676 203.972 15.2076L204 24.0656Z" fill="black"/>
<path d="M132.687 17.8815L136.578 19.9398C136.583 19.9887 136.583 20.0379 136.578 20.0868C136.028 21.3107 135.145 22.3546 134.03 23.099C132.915 23.8433 131.613 24.2579 130.273 24.2953C128.89 24.4087 127.501 24.1717 126.235 23.6061C125.387 23.2132 124.629 22.6487 124.01 21.9481C123.391 21.2474 122.923 20.426 122.637 19.5355C121.724 17.0343 121.724 14.2905 122.637 11.7893C123.119 10.3785 124.033 9.15574 125.249 8.29468C126.465 7.43362 127.921 6.97806 129.41 6.99271C130.403 6.95974 131.395 7.07117 132.356 7.32351C133.21 7.58423 133.993 8.03686 134.645 8.64681C135.297 9.25677 135.801 10.0079 136.119 10.8428C136.275 11.192 136.413 11.5504 136.578 11.9363L132.347 13.5995L132.2 13.2963C132.025 12.9003 131.829 12.5139 131.613 12.1385C131.404 11.7942 131.111 11.5097 130.76 11.3122C130.41 11.1147 130.014 11.0109 129.612 11.0109C129.21 11.0109 128.815 11.1147 128.464 11.3122C128.114 11.5097 127.82 11.7942 127.611 12.1385C127.239 12.7633 127.01 13.4633 126.941 14.1876C126.734 15.4947 126.818 16.8316 127.189 18.102C127.283 18.516 127.47 18.9032 127.736 19.2343C128.001 19.5654 128.338 19.8318 128.722 20.0133C129.246 20.2332 129.829 20.2712 130.378 20.1214C130.927 19.9715 131.41 19.6424 131.751 19.1863C132.081 18.8188 132.356 18.3777 132.687 17.8815Z" fill="black"/>
<path d="M157.477 11.4677H161.827V24.0288H157.486V23.2478L157.082 23.5051C156.503 23.8961 155.846 24.1561 155.157 24.2672C154.467 24.3783 153.762 24.3377 153.09 24.1483C152.398 23.9719 151.777 23.5892 151.308 23.0508C150.839 22.5125 150.545 21.8441 150.465 21.1344C150.337 20.555 150.272 19.9634 150.272 19.3701C150.272 16.8523 150.272 14.3346 150.272 11.826C150.272 11.7066 150.272 11.5871 150.272 11.4585H154.595C154.595 11.6055 154.595 11.7434 154.595 11.8812C154.595 14.1141 154.595 16.3562 154.595 18.589C154.597 19.0115 154.655 19.4319 154.769 19.8387C154.874 20.0832 155.048 20.2915 155.27 20.4379C155.492 20.5842 155.752 20.6622 156.017 20.6622C156.283 20.6622 156.543 20.5842 156.765 20.4379C156.987 20.2915 157.161 20.0832 157.266 19.8387C157.375 19.4941 157.431 19.1345 157.431 18.7728C157.431 16.4848 157.431 14.1784 157.431 11.9179L157.477 11.4677Z" fill="black"/>
<path d="M169.27 11.4585V12.2487C169.436 12.1385 169.555 12.0741 169.665 11.9914C170.27 11.5852 170.958 11.3191 171.679 11.2126C172.4 11.1061 173.135 11.1619 173.832 11.3758C174.476 11.5655 175.051 11.9383 175.488 12.4488C175.924 12.9593 176.203 13.5856 176.292 14.2519C176.436 14.9008 176.513 15.5628 176.521 16.2275C176.521 18.7544 176.521 21.2905 176.521 23.8175C176.521 23.8726 176.521 23.9369 176.521 24.0196H172.18V23.5969C172.18 21.2814 172.18 18.9566 172.18 16.6318C172.178 16.4154 172.153 16.1998 172.106 15.9886C172.062 15.6508 171.895 15.3412 171.638 15.1186C171.38 14.8961 171.049 14.7763 170.709 14.782C170.369 14.7876 170.043 14.9184 169.793 15.1494C169.543 15.3804 169.386 15.6955 169.353 16.0345C169.308 16.2955 169.287 16.56 169.289 16.8248C169.289 19.076 169.289 21.3273 169.289 23.5694V24.0288H164.975V11.4585H169.27Z" fill="black"/>
<path d="M189.884 14.0773L186.91 16.3286C186.758 16.0377 186.58 15.761 186.378 15.5016C186.143 15.2145 185.853 14.9771 185.525 14.8032C185.357 14.7252 185.175 14.6824 184.989 14.6774C184.804 14.6724 184.62 14.7053 184.448 14.7741C184.276 14.843 184.12 14.9463 183.99 15.0777C183.859 15.2091 183.757 15.3659 183.689 15.5383C183.34 16.3415 183.204 17.2215 183.294 18.0928C183.317 18.6235 183.409 19.1488 183.57 19.6549C183.643 19.9236 183.785 20.1682 183.983 20.3639C184.181 20.5597 184.427 20.6996 184.696 20.7695C184.966 20.8395 185.248 20.837 185.516 20.7623C185.784 20.6876 186.028 20.5433 186.222 20.3441C186.597 19.9796 186.949 19.593 187.278 19.1863L190.031 21.2997C188.985 22.8894 187.709 24.1115 185.717 24.2769C184.774 24.3785 183.82 24.2942 182.909 24.0288C182.101 23.8027 181.364 23.3746 180.766 22.7846C180.169 22.1947 179.731 21.4624 179.495 20.6565C178.89 18.8026 178.89 16.8041 179.495 14.9503C179.804 13.9137 180.432 13.0009 181.288 12.3412C182.145 11.6815 183.187 11.3084 184.267 11.2747C184.931 11.2225 185.599 11.2441 186.259 11.339C187.03 11.4927 187.757 11.8188 188.384 12.293C189.012 12.7671 189.525 13.3771 189.884 14.0773Z" fill="black"/>
<path d="M143.526 24.0288H139.203V11.4677H143.517V12.2947L143.847 12.0374C144.415 11.5686 145.106 11.274 145.837 11.1893C146.568 11.1045 147.308 11.2331 147.968 11.5596C148.133 11.6331 148.253 11.7066 148.198 11.9363C147.876 13.3055 147.573 14.693 147.28 16.0621C147.267 16.1014 147.248 16.1386 147.225 16.1724C147.069 16.0345 146.931 15.9059 146.784 15.7865C146.425 15.4598 145.979 15.2457 145.499 15.1708C145.271 15.1123 145.033 15.1064 144.803 15.1536C144.572 15.2008 144.356 15.2998 144.169 15.4432C143.983 15.5866 143.831 15.7707 143.726 15.9814C143.621 16.192 143.565 16.4239 143.563 16.6594C143.554 16.8308 143.554 17.0026 143.563 17.174V24.0288H143.526Z" fill="black"/>
</svg>
