<svg width="34" height="36" viewBox="0 0 34 36" fill="none" xmlns="http://www.w3.org/2000/svg">
<path d="M27.3796 32.7739L31.936 16.7739C32.0074 16.5234 32.0192 16.2599 31.9707 16.0041C31.9221 15.7483 31.8145 15.5071 31.6562 15.2995C31.498 15.0919 31.2934 14.9236 31.0585 14.8077C30.8237 14.6918 30.5649 14.6315 30.3026 14.6316H20.561C20.4214 14.6316 20.2835 14.6003 20.1577 14.5401C20.032 14.4799 19.9215 14.3923 19.8345 14.2839C19.7476 14.1754 19.6864 14.0489 19.6556 13.9137C19.6248 13.7785 19.6251 13.6382 19.6565 13.5032L20.0807 11.6808C20.4694 10.0093 20.5941 8.28716 20.4507 6.57768L20.3726 5.64884C20.289 4.65237 19.8522 3.71758 19.1398 3.01053C18.4881 2.36363 17.6042 2.00014 16.6825 2H16.4788C15.9214 2 15.408 2.29979 15.1382 2.78316L12.882 6.81263C11.8706 8.6198 10.3629 10.1048 8.53432 11.0947L2.88414 14.1516C2.61627 14.2966 2.39276 14.5107 2.23717 14.7713C2.08157 15.0318 1.99964 15.3291 2 15.632V32.3158C2 32.7625 2.17879 33.1909 2.49704 33.5067C2.81529 33.8226 3.24693 34 3.69701 34H25.747C26.1166 33.9999 26.4759 33.8801 26.7706 33.6588C27.0652 33.4375 27.2791 33.1268 27.3796 32.7739Z" stroke="#2B3C87" stroke-width="4" stroke-linecap="round" stroke-linejoin="round"/>
</svg>
