<svg width="16" height="10" viewBox="0 0 16 10" fill="none" xmlns="http://www.w3.org/2000/svg">
<path fill-rule="evenodd" clip-rule="evenodd" d="M13.5021 3.57107H11.5016C11.2249 3.57107 11.0007 3.41092 11.0007 3.21322C11.0007 3.01552 11.2249 2.85536 11.5016 2.85536H13.5021C13.7789 2.85536 14.0031 3.01552 14.0031 3.21322C14.0031 3.41092 13.7789 3.57107 13.5021 3.57107ZM13.5021 4.99999H11.5016C11.2249 4.99999 11.0007 4.83983 11.0007 4.64214C11.0007 4.44444 11.2249 4.28428 11.5016 4.28428H13.5021C13.7789 4.28428 14.0031 4.44444 14.0031 4.64214C14.0031 4.83983 13.7789 4.99999 13.5021 4.99999ZM8.50274 7.14215H13.5021C13.7789 7.14215 14.0031 7.30231 14.0031 7.5C14.0031 7.6977 13.7789 7.85786 13.5021 7.85786H8.50274C8.22597 7.85786 8.00175 7.6977 8.00175 7.5C8.00175 7.30231 8.22597 7.14215 8.50274 7.14215ZM8.50274 5.71321H13.5021C13.7789 5.71321 14.0031 5.87337 14.0031 6.07107C14.0031 6.26877 13.7789 6.42893 13.5021 6.42893H8.50274C8.22597 6.42893 8.00175 6.26877 8.00175 6.07107C8.00175 5.87337 8.22597 5.71321 8.50274 5.71321ZM4.00087 3.03553C4.00087 2.54254 4.56142 2.14214 5.25159 2.14214H8.75147C9.44164 2.14214 10.0022 2.54254 10.0022 3.03553V4.64214C10.0022 4.83983 9.77798 4.99999 9.50121 4.99999C9.22444 4.99999 9.00022 4.83983 9.00022 4.64214V3.21322C9.00022 3.01552 8.776 2.85536 8.49923 2.85536H5.50032C5.22356 2.85536 4.99934 3.01552 4.99934 3.21322V3.92893C4.99934 4.12663 5.22356 4.28679 5.50032 4.28679H7.50077C7.77754 4.28679 8.00175 4.44694 8.00175 4.64464C8.00175 4.84234 7.77754 5.0025 7.50077 5.0025H5.25159C4.56142 5.0025 4.00087 4.6021 4.00087 4.1091V3.03804V3.03553ZM4.50186 7.14215H6.5023C6.77907 7.14215 7.00328 7.30231 7.00328 7.5C7.00328 7.6977 6.77907 7.85786 6.5023 7.85786H4.50186C4.2251 7.85786 4.00087 7.6977 4.00087 7.5C4.00087 7.30231 4.2251 7.14215 4.50186 7.14215ZM4.50186 5.71321H6.5023C6.77907 5.71321 7.00328 5.87337 7.00328 6.07107C7.00328 6.26877 6.77907 6.42893 6.5023 6.42893H4.50186C4.2251 6.42893 4.00087 6.26877 4.00087 6.07107C4.00087 5.87337 4.2251 5.71321 4.50186 5.71321ZM14.0031 10H3.00241C1.34531 10 0.00349613 9.03904 0.00349613 7.85786V5.35786C0.00349613 5.16017 0.227722 4.99999 0.50449 4.99999C0.781258 4.99999 1.00547 5.16017 1.00547 5.35786V7.85786C1.00547 8.64615 1.90234 9.28678 3.00591 9.28678H13.7543C14.4445 9.28678 15.005 8.88639 15.005 8.3934V1.6066C15.005 1.11361 14.4445 0.713222 13.7543 0.713222H4.25312C3.56295 0.713222 3.00241 1.11361 3.00241 1.6066V7.5C3.00241 7.6977 2.77819 7.85786 2.50142 7.85786C2.22465 7.85786 2.00044 7.6977 2.00044 7.5V1.42893C2.00044 0.640646 2.8973 0 4.00087 0H13.9996C15.1031 0 16 0.640646 16 1.42893V8.57107C16 9.35935 15.1031 10 13.9996 10M0.500983 4.28428C0.224215 4.28428 0 4.12412 0 3.92642C0 3.72873 0.224215 3.56857 0.500983 3.56857C0.777751 3.56857 1.00197 3.72873 1.00197 3.92642C1.00197 4.12412 0.777751 4.28428 0.500983 4.28428Z" fill="#F9F9F9"/>
</svg>
