<svg width="26" height="26" viewBox="0 0 26 26" fill="none" xmlns="http://www.w3.org/2000/svg">
<path d="M24.5 0.5H1.5C0.946875 0.5 0.5 0.946875 0.5 1.5V24.5C0.5 25.0531 0.946875 25.5 1.5 25.5H24.5C25.0531 25.5 25.5 25.0531 25.5 24.5V1.5C25.5 0.946875 25.0531 0.5 24.5 0.5ZM19.7281 9.55313C19.7375 9.7 19.7375 9.85313 19.7375 10.0031C19.7375 14.5906 16.2437 19.875 9.85938 19.875C7.89062 19.875 6.06562 19.3031 4.52812 18.3188C4.80937 18.35 5.07813 18.3625 5.36563 18.3625C6.99063 18.3625 8.48438 17.8125 9.675 16.8813C8.15 16.85 6.86875 15.85 6.43125 14.475C6.96562 14.5531 7.44687 14.5531 7.99687 14.4125C7.21164 14.253 6.50586 13.8265 5.99943 13.2056C5.49299 12.5846 5.21715 11.8075 5.21875 11.0063V10.9625C5.67812 11.2219 6.21875 11.3812 6.78438 11.4031C6.30888 11.0862 5.91893 10.6569 5.6491 10.1532C5.37926 9.64953 5.23789 9.08704 5.2375 8.51562C5.2375 7.86875 5.40625 7.27812 5.70938 6.76562C6.58095 7.83855 7.66853 8.71607 8.90145 9.34114C10.1344 9.96622 11.485 10.3249 12.8656 10.3938C12.375 8.03438 14.1375 6.125 16.2563 6.125C17.2563 6.125 18.1562 6.54375 18.7906 7.21875C19.575 7.07188 20.325 6.77812 20.9937 6.38437C20.7344 7.1875 20.1906 7.86562 19.4688 8.29375C20.1688 8.21875 20.8438 8.025 21.4688 7.75313C20.9969 8.44688 20.4062 9.0625 19.7281 9.55313Z" fill="#2B3C87"/>
</svg>
