<svg width="48" height="48" viewBox="0 0 48 48" fill="none" xmlns="http://www.w3.org/2000/svg">
<path d="M24 0C10.752 0 0 10.752 0 24C0 37.248 10.752 48 24 48C37.248 48 48 37.248 48 24C48 10.752 37.248 0 24 0ZM32.664 15.216C35.232 15.216 37.296 17.28 37.296 19.848C37.296 22.416 35.232 24.48 32.664 24.48C30.096 24.48 28.032 22.416 28.032 19.848C28.008 17.28 30.096 15.216 32.664 15.216ZM18.264 11.424C21.384 11.424 23.928 13.968 23.928 17.088C23.928 20.208 21.384 22.752 18.264 22.752C15.144 22.752 12.6 20.208 12.6 17.088C12.6 13.944 15.12 11.424 18.264 11.424ZM18.264 33.336V42.336C12.504 40.536 7.944 36.096 5.928 30.432C8.448 27.744 14.736 26.376 18.264 26.376C19.536 26.376 21.144 26.568 22.824 26.904C18.888 28.992 18.264 31.752 18.264 33.336ZM24 43.2C23.352 43.2 22.728 43.176 22.104 43.104V33.336C22.104 29.928 29.16 28.224 32.664 28.224C35.232 28.224 39.672 29.16 41.88 30.984C39.072 38.112 32.136 43.2 24 43.2Z" fill="#2B2C6B"/>
</svg>
