<svg width="26" height="26" viewBox="0 0 26 26" fill="none" xmlns="http://www.w3.org/2000/svg">
<path d="M12.9997 8.83472C10.7059 8.83472 8.83404 10.7066 8.83404 13.0003C8.83404 15.2941 10.7059 17.166 12.9997 17.166C15.2934 17.166 17.1653 15.2941 17.1653 13.0003C17.1653 10.7066 15.2934 8.83472 12.9997 8.83472ZM25.4934 13.0003C25.4934 11.2753 25.5091 9.56596 25.4122 7.84409C25.3153 5.84409 24.8591 4.06909 23.3966 2.60659C21.9309 1.14097 20.159 0.687843 18.159 0.590968C16.434 0.494094 14.7247 0.509719 13.0028 0.509719C11.2778 0.509719 9.56842 0.494094 7.84654 0.590968C5.84654 0.687843 4.07154 1.14409 2.60904 2.60659C1.14341 4.07222 0.690285 5.84409 0.59341 7.84409C0.496535 9.56909 0.51216 11.2785 0.51216 13.0003C0.51216 14.7222 0.496535 16.4347 0.59341 18.1566C0.690285 20.1566 1.14654 21.9316 2.60904 23.3941C4.07466 24.8597 5.84654 25.3128 7.84654 25.4097C9.57154 25.5066 11.2809 25.491 13.0028 25.491C14.7278 25.491 16.4372 25.5066 18.159 25.4097C20.159 25.3128 21.9341 24.8566 23.3966 23.3941C24.8622 21.9285 25.3153 20.1566 25.4122 18.1566C25.5122 16.4347 25.4934 14.7253 25.4934 13.0003ZM12.9997 19.4097C9.45279 19.4097 6.59029 16.5472 6.59029 13.0003C6.59029 9.45347 9.45279 6.59097 12.9997 6.59097C16.5465 6.59097 19.409 9.45347 19.409 13.0003C19.409 16.5472 16.5465 19.4097 12.9997 19.4097ZM19.6715 7.82534C18.8434 7.82534 18.1747 7.15659 18.1747 6.32847C18.1747 5.50034 18.8434 4.83159 19.6715 4.83159C20.4997 4.83159 21.1684 5.50034 21.1684 6.32847C21.1687 6.52511 21.1301 6.71987 21.055 6.90159C20.9798 7.08331 20.8696 7.24842 20.7306 7.38747C20.5915 7.52651 20.4264 7.63676 20.2447 7.7119C20.063 7.78704 19.8682 7.82559 19.6715 7.82534Z" fill="white"/>
</svg>
