<svg width="28" height="28" viewBox="0 0 28 28" fill="none" xmlns="http://www.w3.org/2000/svg">
<path fill-rule="evenodd" clip-rule="evenodd" d="M4.625 0.875C3.63044 0.875 2.67661 1.27009 1.97335 1.97335C1.27009 2.67661 0.875 3.63044 0.875 4.625V23.375C0.875 24.3696 1.27009 25.3234 1.97335 26.0266C2.67661 26.7299 3.63044 27.125 4.625 27.125H23.375C24.3696 27.125 25.3234 26.7299 26.0266 26.0266C26.7299 25.3234 27.125 24.3696 27.125 23.375V4.625C27.125 3.63044 26.7299 2.67661 26.0266 1.97335C25.3234 1.27009 24.3696 0.875 23.375 0.875H4.625ZM6.69125 8.93188C7.2855 8.93188 7.85541 8.69581 8.27561 8.27561C8.69581 7.85541 8.93188 7.2855 8.93188 6.69125C8.93188 6.097 8.69581 5.52709 8.27561 5.10689C7.85541 4.68669 7.2855 4.45063 6.69125 4.45063C6.097 4.45063 5.52709 4.68669 5.10689 5.10689C4.68669 5.52709 4.45063 6.097 4.45063 6.69125C4.45063 7.2855 4.68669 7.85541 5.10689 8.27561C5.52709 8.69581 6.097 8.93188 6.69125 8.93188ZM8.56625 23.0244V10.6888H4.81625V23.0244H8.56625ZM11.0562 10.6888H14.8063V12.3406C15.3594 11.4744 16.5744 10.3081 18.8337 10.3081C21.53 10.3081 22.9944 12.095 22.9944 15.4944C22.9944 15.6575 23.0094 16.4019 23.0094 16.4019V23.0225H19.2594V16.4037C19.2594 15.4944 19.0681 13.7075 17.0469 13.7075C15.0238 13.7075 14.8531 15.9538 14.8063 17.4237V23.0225H11.0562V10.6888Z" fill="white"/>
</svg>
