<svg width="28" height="28" viewBox="0 0 28 28" fill="none" xmlns="http://www.w3.org/2000/svg">
<path d="M24.5601 0.55957H3.44006C2.67623 0.55957 1.9437 0.862998 1.40359 1.4031C0.863486 1.94321 0.560059 2.67575 0.560059 3.43957L0.560059 24.5596C0.560059 25.3234 0.863486 26.0559 1.40359 26.596C1.9437 27.1361 2.67623 27.4396 3.44006 27.4396H11.6751V18.301H7.89506V13.9996H11.6751V10.7212C11.6751 6.99217 13.8951 4.93237 17.2953 4.93237C18.9237 4.93237 20.6265 5.22277 20.6265 5.22277V8.88277H18.7503C16.9017 8.88277 16.3251 10.03 16.3251 11.2066V13.9996H20.4519L19.7919 18.301H16.3251V27.4396H24.5601C25.3239 27.4396 26.0564 27.1361 26.5965 26.596C27.1366 26.0559 27.4401 25.3234 27.4401 24.5596V3.43957C27.4401 2.67575 27.1366 1.94321 26.5965 1.4031C26.0564 0.862998 25.3239 0.55957 24.5601 0.55957V0.55957Z" fill="white"/>
</svg>
