<svg width="70" height="15" viewBox="0 0 70 15" fill="none" xmlns="http://www.w3.org/2000/svg">
<path d="M6.38702 2.40051C6.5864 1.78689 7.45452 1.78689 7.6539 2.40051L8.4363 4.80851C8.52547 5.08293 8.7812 5.26873 9.06974 5.26873H11.6017C12.2469 5.26873 12.5151 6.09436 11.9931 6.4736L9.94478 7.96182C9.71134 8.13143 9.61366 8.43206 9.70283 8.70648L10.4852 11.1145C10.6846 11.7281 9.98229 12.2384 9.4603 11.8591L7.41194 10.3709C7.17851 10.2013 6.86241 10.2013 6.62897 10.3709L4.58061 11.8591C4.05862 12.2384 3.3563 11.7281 3.55568 11.1145L4.33809 8.70648C4.42725 8.43205 4.32957 8.13143 4.09613 7.96182L2.04777 6.4736C1.52579 6.09436 1.79405 5.26873 2.43926 5.26873H4.97117C5.25972 5.26873 5.51545 5.08293 5.60461 4.80851L6.38702 2.40051Z" fill="white"/>
<path d="M19.6691 2.40051C19.8685 1.78689 20.7366 1.78689 20.936 2.40051L21.7184 4.80851C21.8076 5.08293 22.0633 5.26873 22.3518 5.26873H24.8838C25.529 5.26873 25.7972 6.09436 25.2752 6.4736L23.2269 7.96182C22.9934 8.13143 22.8958 8.43206 22.9849 8.70648L23.7673 11.1145C23.9667 11.7281 23.2644 12.2384 22.7424 11.8591L20.694 10.3709C20.4606 10.2013 20.1445 10.2013 19.9111 10.3709L17.8627 11.8591C17.3407 12.2384 16.6384 11.7281 16.8378 11.1145L17.6202 8.70648C17.7094 8.43205 17.6117 8.13143 17.3782 7.96182L15.3299 6.4736C14.8079 6.09436 15.0762 5.26873 15.7214 5.26873H18.2533C18.5418 5.26873 18.7976 5.08293 18.8867 4.80851L19.6691 2.40051Z" fill="white"/>
<path d="M33.6132 2.40051C33.8126 1.78689 34.6807 1.78689 34.8801 2.40051L35.6625 4.80851C35.7517 5.08293 36.0074 5.26873 36.2959 5.26873H38.8279C39.4731 5.26873 39.7413 6.09436 39.2193 6.4736L37.171 7.96182C36.9375 8.13143 36.8399 8.43206 36.929 8.70648L37.7114 11.1145C37.9108 11.7281 37.2085 12.2384 36.6865 11.8591L34.6381 10.3709C34.4047 10.2013 34.0886 10.2013 33.8552 10.3709L31.8068 11.8591C31.2848 12.2384 30.5825 11.7281 30.7819 11.1145L31.5643 8.70648C31.6534 8.43205 31.5558 8.13143 31.3223 7.96182L29.274 6.4736C28.752 6.09436 29.0202 5.26873 29.6655 5.26873H32.1974C32.4859 5.26873 32.7416 5.08293 32.8308 4.80851L33.6132 2.40051Z" fill="white"/>
<path d="M47.5574 2.40051C47.7567 1.78689 48.6249 1.78689 48.8242 2.40051L49.6066 4.80851C49.6958 5.08293 49.9515 5.26873 50.2401 5.26873H52.772C53.4172 5.26873 53.6855 6.09436 53.1635 6.4736L51.1151 7.96182C50.8817 8.13143 50.784 8.43206 50.8732 8.70648L51.6556 11.1145C51.855 11.7281 51.1526 12.2384 50.6307 11.8591L48.5823 10.3709C48.3489 10.2013 48.0328 10.2013 47.7993 10.3709L45.751 11.8591C45.229 12.2384 44.5267 11.7281 44.726 11.1145L45.5084 8.70648C45.5976 8.43205 45.4999 8.13143 45.2665 7.96182L43.2181 6.4736C42.6961 6.09436 42.9644 5.26873 43.6096 5.26873H46.1415C46.4301 5.26873 46.6858 5.08293 46.775 4.80851L47.5574 2.40051Z" fill="white"/>
<path d="M62.4517 2.50342L63.2341 4.91142C63.3678 5.32305 63.7514 5.60175 64.1842 5.60175H66.7162C67.0388 5.60175 67.1729 6.01456 66.9119 6.20419L64.8635 7.69241C64.5134 7.94681 64.3669 8.39775 64.5006 8.80939L65.283 11.2174C65.3827 11.5242 65.0315 11.7793 64.7706 11.5897L62.7222 10.1015C62.372 9.84708 61.8979 9.84708 61.5477 10.1015L59.4994 11.5897C59.2384 11.7793 58.8872 11.5242 58.9869 11.2174L59.7693 8.80939C59.9031 8.39775 59.7565 7.94681 59.4064 7.69241L57.358 6.20418C57.097 6.01456 57.2312 5.60175 57.5538 5.60175H60.0857C60.5185 5.60175 60.9021 5.32305 61.0358 4.91142L61.8182 2.50342C61.9179 2.19661 62.352 2.19661 62.4517 2.50342Z" stroke="white" stroke-width="0.666038"/>
</svg>
