<svg width="70" height="15" viewBox="0 0 70 15" fill="none" xmlns="http://www.w3.org/2000/svg">
<path d="M6.69372 2.40195C6.8931 1.78832 7.76122 1.78832 7.9606 2.40195L8.743 4.80994C8.83217 5.08437 9.0879 5.27016 9.37644 5.27016H11.9084C12.5536 5.27016 12.8218 6.09579 12.2998 6.47504L10.2515 7.96326C10.018 8.13286 9.92036 8.43349 10.0095 8.70791L10.7919 11.1159C10.9913 11.7295 10.289 12.2398 9.76701 11.8606L7.71865 10.3723C7.48521 10.2027 7.16911 10.2027 6.93567 10.3723L4.88731 11.8606C4.36533 12.2398 3.663 11.7295 3.86238 11.1159L4.64479 8.70791C4.73395 8.43349 4.63627 8.13286 4.40283 7.96326L2.35447 6.47504C1.83249 6.09579 2.10075 5.27016 2.74596 5.27016H5.27787C5.56642 5.27016 5.82215 5.08437 5.91131 4.80994L6.69372 2.40195Z" fill="white"/>
<path d="M19.9739 2.40195C20.1732 1.78832 21.0414 1.78832 21.2407 2.40195L22.0232 4.80994C22.1123 5.08437 22.368 5.27016 22.6566 5.27016H25.1885C25.8337 5.27016 26.102 6.09579 25.58 6.47504L23.5316 7.96326C23.2982 8.13286 23.2005 8.43349 23.2897 8.70791L24.0721 11.1159C24.2715 11.7295 23.5691 12.2398 23.0472 11.8606L20.9988 10.3723C20.7654 10.2027 20.4493 10.2027 20.2158 10.3723L18.1675 11.8606C17.6455 12.2398 16.9432 11.7295 17.1425 11.1159L17.9249 8.70791C18.0141 8.43349 17.9164 8.13286 17.683 7.96326L15.6346 6.47504C15.1126 6.09579 15.3809 5.27016 16.0261 5.27016H18.558C18.8466 5.27016 19.1023 5.08437 19.1915 4.80994L19.9739 2.40195Z" fill="white"/>
<path d="M33.918 2.40195C34.1173 1.78832 34.9855 1.78832 35.1848 2.40195L35.9672 4.80994C36.0564 5.08437 36.3121 5.27016 36.6007 5.27016H39.1326C39.7778 5.27016 40.0461 6.09579 39.5241 6.47504L37.4757 7.96326C37.2423 8.13286 37.1446 8.43349 37.2338 8.70791L38.0162 11.1159C38.2156 11.7295 37.5132 12.2398 36.9912 11.8606L34.9429 10.3723C34.7095 10.2027 34.3934 10.2027 34.1599 10.3723L32.1116 11.8606C31.5896 12.2398 30.8872 11.7295 31.0866 11.1159L31.869 8.70791C31.9582 8.43349 31.8605 8.13286 31.6271 7.96326L29.5787 6.47504C29.0567 6.09579 29.325 5.27016 29.9702 5.27016H32.5021C32.7907 5.27016 33.0464 5.08437 33.1356 4.80994L33.918 2.40195Z" fill="white"/>
<path d="M47.8641 2.40195C48.0635 1.78832 48.9316 1.78832 49.131 2.40195L49.9134 4.80994C50.0026 5.08437 50.2583 5.27016 50.5469 5.27016H53.0788C53.724 5.27016 53.9922 6.09579 53.4703 6.47504L51.4219 7.96326C51.1885 8.13286 51.0908 8.43349 51.1799 8.70791L51.9623 11.1159C52.1617 11.7295 51.4594 12.2398 50.9374 11.8606L48.8891 10.3723C48.6556 10.2027 48.3395 10.2027 48.1061 10.3723L46.0577 11.8606C45.5357 12.2398 44.8334 11.7295 45.0328 11.1159L45.8152 8.70791C45.9044 8.43349 45.8067 8.13286 45.5732 7.96326L43.5249 6.47504C43.0029 6.09579 43.2712 5.27016 43.9164 5.27016H46.4483C46.7368 5.27016 46.9926 5.08437 47.0817 4.80994L47.8641 2.40195Z" fill="white"/>
<path d="M61.8082 2.40195C62.0076 1.78832 62.8757 1.78832 63.0751 2.40195L63.8575 4.80994C63.9467 5.08437 64.2024 5.27016 64.4909 5.27016H67.0229C67.6681 5.27016 67.9363 6.09579 67.4143 6.47504L65.366 7.96326C65.1325 8.13286 65.0349 8.43349 65.124 8.70791L65.9064 11.1159C66.1058 11.7295 65.4035 12.2398 64.8815 11.8606L62.8331 10.3723C62.5997 10.2027 62.2836 10.2027 62.0502 10.3723L60.0018 11.8606C59.4798 12.2398 58.7775 11.7295 58.9769 11.1159L59.7593 8.70791C59.8485 8.43349 59.7508 8.13286 59.5173 7.96326L57.469 6.47504C56.947 6.09579 57.2153 5.27016 57.8605 5.27016H60.3924C60.6809 5.27016 60.9367 5.08437 61.0258 4.80994L61.8082 2.40195Z" fill="white"/>
</svg>
