<svg width="126" height="37" viewBox="0 0 126 37" fill="none" xmlns="http://www.w3.org/2000/svg">
<path d="M18.6162 0.195801C8.50711 0.19596 0.3125 8.39135 0.3125 18.5005C0.31266 28.6095 8.50721 36.804 18.6162 36.8042H36.9209V18.5005C36.9209 8.39125 28.7254 0.195801 18.6162 0.195801ZM9.25098 27.2222C9.62645 27.1137 10.0811 27.2723 10.4199 27.3667L16.8203 29.0903C18.3893 29.5129 20.0423 29.5129 21.6113 29.0903L27.9971 27.3667C28.336 27.2722 28.7906 27.1135 29.166 27.2222C29.3724 27.2843 29.553 27.4116 29.6816 27.5845C29.8102 27.7572 29.8795 27.9668 29.8799 28.1821C29.8799 28.6864 29.5699 28.9694 29.166 29.1489C28.8708 29.2871 28.6464 29.3662 27.9971 29.5894L21.9287 32.7124C20.1698 33.3264 18.255 33.3264 16.4961 32.7124L10.4199 29.5894C9.77065 29.3651 9.54605 29.287 9.25098 29.1489C8.8471 28.9694 8.53613 28.6876 8.53613 28.1821C8.53647 27.9669 8.6059 27.7572 8.73438 27.5845C8.86304 27.4116 9.0446 27.2843 9.25098 27.2222ZM6.43652 21.2437C6.76832 21.1492 7.25946 21.2722 7.60547 21.3384L17.8369 23.1626C18.7488 23.3215 19.6819 23.3215 20.5938 23.1626L30.8105 21.3384C31.1566 21.2722 31.6474 21.1492 31.9805 21.2437C32.1865 21.306 32.3668 21.4332 32.4951 21.606C32.6235 21.7788 32.6932 21.9883 32.6934 22.2036C32.6933 22.6641 32.3984 23.0187 31.9805 23.1558C31.6474 23.2644 31.4093 23.3144 30.8105 23.4585L22.5703 26.8052C21.8865 27.0829 21.1861 27.3335 20.4531 27.4204C19.385 27.5471 18.2992 27.4809 17.249 27.2222L7.60547 23.4585C7.007 23.3145 6.76828 23.2644 6.43652 23.1558C6.01849 23.0188 5.7217 22.6653 5.72168 22.2036C5.72191 21.9881 5.79223 21.7779 5.9209 21.605C6.04953 21.4323 6.23034 21.3057 6.43652 21.2437ZM5.75 15.9624C6.08066 15.8608 6.56564 15.9395 6.91992 15.9761L17.8223 17.0737C18.7481 17.1651 19.6806 17.1651 20.6064 17.0737L31.4951 15.9751C31.8494 15.9396 32.3394 15.8609 32.6641 15.9624C32.8699 16.0224 33.0509 16.1474 33.1797 16.3188C33.3085 16.4905 33.3778 16.7 33.3779 16.9146C33.3778 17.3831 33.083 17.7228 32.6641 17.8657C32.3394 17.9743 32.1019 18.0117 31.4951 18.105L22.7266 21.0239C21.5635 21.4111 20.3704 21.7483 19.1445 21.7515C17.8784 21.7547 16.6464 21.401 15.4473 20.9946L6.91797 18.105C6.31242 18.0105 6.08178 17.9814 5.75 17.8657C5.33232 17.7228 5.03628 17.383 5.03613 16.9146C5.03625 16.7 5.10556 16.4905 5.23438 16.3188C5.3631 16.1474 5.54421 16.0225 5.75 15.9624ZM29.584 10.9663C29.9382 10.9663 30.4211 10.9519 30.7529 11.0522C30.9595 11.1119 31.1413 11.2369 31.2705 11.4087C31.3998 11.5806 31.4697 11.7903 31.4697 12.0054C31.4697 12.2203 31.3997 12.4293 31.2705 12.6011C31.1412 12.773 30.9596 12.8988 30.7529 12.9585C30.4211 13.0517 29.9382 13.0728 29.584 13.0952L21.1924 15.3062C20.477 15.4946 19.7417 15.625 19.002 15.6265C18.2148 15.628 17.4392 15.4834 16.6807 15.2729L8.83105 13.0952C8.47682 13.0728 7.99382 13.0518 7.66211 12.9585C7.45555 12.8988 7.27376 12.7729 7.14453 12.6011C7.01547 12.4293 6.94538 12.2202 6.94531 12.0054C6.94531 11.7903 7.01529 11.5806 7.14453 11.4087C7.27373 11.2369 7.45561 11.112 7.66211 11.0522C7.99381 10.9519 8.47682 10.9663 8.83105 10.9663H29.584ZM15.9609 6.28467C18.1233 6.03892 20.3064 6.03891 22.4688 6.28467L25.709 6.65283C26.0562 6.68826 26.5542 6.71847 26.8789 6.81885C27.2094 6.92762 27.5926 7.23778 27.5928 7.771C27.5928 8.23139 27.2896 8.60019 26.8789 8.72314C26.5471 8.81762 26.0562 8.81104 25.709 8.81104H12.707C12.361 8.81104 11.8698 8.81759 11.5381 8.72314C11.3318 8.664 11.1504 8.53925 11.0215 8.36768C10.8925 8.19587 10.8224 7.98582 10.8232 7.771C10.8235 7.23761 11.2064 6.92753 11.5381 6.81885C11.8628 6.71849 12.361 6.68825 12.707 6.65283L15.9609 6.28467Z" fill="#1C1B1B"/>
<path d="M48.1954 30.9368H42.4496V9.10898H48.1954V17.226H56.2516V9.10898H61.9974V30.9368H56.2516V22.2118H48.1954V30.9368Z" fill="#1C1B1B"/>
<path d="M71.7318 10.781C71.7318 12.4835 70.3638 13.7299 68.3877 13.7299C66.4117 13.7299 65.0436 12.4835 65.0436 10.781C65.0436 9.04818 66.4117 7.80174 68.3877 7.80174C70.3638 7.80174 71.7318 9.04818 71.7318 10.781ZM71.0326 30.9368H65.8341V14.5811H71.0326V30.9368Z" fill="#1C1B1B"/>
<path d="M90.1609 14.5811L84.2936 30.9368H78.5174L72.5892 14.5811H78.2438L81.5271 25.0391L84.8712 14.5811H90.1609Z" fill="#1C1B1B"/>
<path d="M107.736 14.5811L101.869 30.9368H96.0929L90.1647 14.5811H95.8193L99.1026 25.0391L102.447 14.5811H107.736Z" fill="#1C1B1B"/>
<path d="M125.312 14.5811L117.529 36.8042H111.844L114.124 30.7544L107.74 14.5811H113.395L116.921 24.7046L120.083 14.5811H125.312Z" fill="#1C1B1B"/>
</svg>
