<svg width="127" height="35" viewBox="0 0 127 35" fill="none" xmlns="http://www.w3.org/2000/svg">
<g id="Group 34059">
<path id="Vector" d="M29.7128 34.9268H21.2161C20.7818 34.9268 20.5038 34.7546 20.1972 34.4474L16.3697 30.7583C15.7306 30.1192 14.418 30.1192 13.7788 30.7583L10.0897 34.4474C9.78256 34.7546 9.22838 34.9268 8.79403 34.9268C7.33572 34.9268 6.60544 33.1635 7.63673 32.1328L15.5337 24.2359C18.0463 21.7232 20.4605 21.7232 22.9732 24.2359L30.8707 32.1328C31.902 33.1641 31.1717 34.9268 29.7134 34.9268H29.7128Z" fill="black"/>
<path id="Vector_2" d="M29.6933 34.9735H21.4734C21.0391 34.9735 20.4849 34.8014 20.1777 34.4942L16.3502 30.8051C15.711 30.1659 14.3985 30.1659 13.7593 30.8051L10.0702 34.4942C9.76303 34.8014 9.20885 34.9735 8.7745 34.9735C7.31619 34.9735 6.58591 33.2103 7.61719 32.1795L15.5141 24.2826C18.0268 21.77 20.441 21.77 22.9537 24.2826L30.8511 32.1795C31.8824 33.2108 31.1522 34.9735 29.6938 34.9735H29.6933Z" fill="black"/>
<path id="Vector_3" d="M20.9268 0.756569H29.1731C31.1856 0.756569 32.191 3.19215 30.7648 4.61164L4.14158 31.1077C2.71872 32.5238 0.293823 31.5161 0.293823 29.5087V21.389C0.293823 20.7903 0.531249 20.217 0.954902 19.7934L19.3318 1.41708C19.7548 0.993994 20.3287 0.756569 20.9268 0.756569Z" fill="black"/>
<path id="Vector_4" d="M2.17407 0.550162H10.7259C12.452 0.550162 13.3004 2.65155 12.0582 3.84993L3.33475 12.2645C2.10261 13.4527 0.0490523 12.5559 0.0839348 10.8444L0.255534 2.42987C0.276913 1.38565 1.12928 0.550162 2.17407 0.550162Z" fill="black"/>
<path id="Vector_5" d="M42.0286 6.3646H45.2715C45.6552 6.3646 45.9658 6.67573 45.9658 7.05887V13.9892C45.9658 14.6514 46.8041 14.9378 47.2092 14.414L53.2247 6.6341C53.3564 6.46419 53.5589 6.3646 53.7738 6.3646H57.347C57.9215 6.3646 58.2472 7.02174 57.9001 7.47915L50.2068 17.6018C50.0144 17.855 50.0183 18.2072 50.2175 18.4559L58.3114 28.5735C58.6748 29.0281 58.3513 29.7015 57.769 29.7015H54.1249C53.9145 29.7015 53.7159 29.6064 53.5837 29.4421L47.2007 21.5075C46.79 20.9967 45.9652 21.2875 45.9652 21.943V29.0072C45.9652 29.3909 45.6541 29.7015 45.271 29.7015H42.028C41.6443 29.7015 41.3337 29.3904 41.3337 29.0072V7.05944C41.3337 6.67573 41.6449 6.36516 42.028 6.36516L42.0286 6.3646Z" fill="black"/>
<path id="Vector_6" d="M60.3386 21.4436C60.3386 16.4532 63.6418 12.9346 68.1652 12.9346C70.1693 12.9346 71.6743 13.6328 72.777 14.8053C72.8226 14.8537 72.9042 14.8205 72.9042 14.7541V13.8803C72.9042 13.4966 73.2153 13.1861 73.5984 13.1861H76.6974C77.0811 13.1861 77.3916 13.4972 77.3916 13.8803V29.0069C77.3916 29.3906 77.0805 29.7012 76.6974 29.7012H73.5984C73.2147 29.7012 72.9042 29.3901 72.9042 29.0069V28.1692C72.9042 28.1022 72.8226 28.069 72.777 28.118C71.6748 29.2905 70.1693 29.9887 68.1652 29.9887C63.6418 29.9887 60.3386 26.3626 60.3386 21.4442V21.4436ZM72.903 21.5601C72.9475 19.3743 71.7446 17.6696 69.8008 17.2403C67.0839 16.6405 64.5915 18.8488 64.6854 21.6293C64.758 23.7824 66.097 25.4112 68.1365 25.7044C70.6379 26.0639 72.8513 24.0863 72.9025 21.5601H72.903Z" fill="black"/>
<path id="Vector_7" d="M80.2839 13.1877H83.4205C83.7068 13.1877 83.964 13.3638 84.0675 13.6305L87.311 21.9831C87.5394 22.5716 88.3715 22.5745 88.6039 21.9871L91.9076 13.6271C92.0122 13.3621 92.2682 13.1877 92.5535 13.1877H95.6895C96.1801 13.1877 96.516 13.6828 96.3349 14.1385L90.3171 29.2651C90.2119 29.5296 89.9564 29.7029 89.6717 29.7029H86.2358C85.9506 29.7029 85.694 29.5284 85.5899 29.2629L79.638 14.1363C79.4585 13.6806 79.7944 13.1877 80.2839 13.1877Z" fill="black"/>
<path id="Vector_8" d="M99.2766 6.3646H102.41C102.794 6.3646 103.105 6.67629 103.105 7.06L103.071 29.0078C103.07 29.3909 102.76 29.701 102.377 29.701H99.2766C98.8928 29.701 98.5823 29.3898 98.5823 29.0067V7.05887C98.5823 6.67517 98.8934 6.3646 99.2766 6.3646Z" fill="black"/>
<path id="Vector_9" d="M105.997 13.1867H109.096C109.48 13.1867 109.79 13.4979 109.79 13.881V14.227C109.79 14.8369 110.516 15.1458 110.962 14.7306C112.079 13.6908 113.445 13.1462 114.837 12.9859C115.247 12.9386 115.606 13.2638 115.606 13.6768V16.4713C115.606 16.837 115.323 17.1397 114.958 17.1639C113.082 17.2888 109.79 17.9634 109.79 22.1273V29.0082C109.79 29.3919 109.479 29.7024 109.095 29.7024H105.997C105.613 29.7024 105.302 29.3913 105.302 29.0082V13.8816C105.302 13.4979 105.613 13.1873 105.997 13.1873L105.997 13.1867Z" fill="black"/>
<path id="Vector_10" d="M122.095 29.7903C124.465 29.7903 126.385 27.8696 126.385 25.5003C126.385 23.131 124.465 21.2103 122.095 21.2103C119.726 21.2103 117.805 23.131 117.805 25.5003C117.805 27.8696 119.726 29.7903 122.095 29.7903Z" fill="black"/>
</g>
</svg>
