<svg width="149" height="27" viewBox="0 0 149 27" fill="none" xmlns="http://www.w3.org/2000/svg">
<path fill-rule="evenodd" clip-rule="evenodd" d="M0 4.35624C0 2.33626 1.68119 0.698738 3.75504 0.698738H18.7752C20.849 0.698738 22.5302 2.33626 22.5302 4.35624V5.57541V6.79458V8.01375V9.23291V10.4521V11.6712V12.8904V14.1096V15.3288C22.5302 17.3487 20.849 18.9863 18.7752 18.9863H12.5168V20.2054V21.4246V22.6438C12.5168 24.6637 10.8356 26.3013 8.76175 26.3013H0V22.6438V22.4856C0.101652 22.4638 0.211635 22.425 0.306981 22.3914C0.327191 22.3843 0.346743 22.3774 0.365419 22.3709C0.887214 22.1902 1.37452 21.9846 1.84243 21.7872C1.89181 21.7663 1.94098 21.7456 1.98995 21.725C2.71352 21.4409 3.40616 21.1003 4.09382 20.7513C7.19968 19.1683 9.88343 17.0237 12.3284 14.2044C12.9343 13.5058 13.5069 12.7623 14.0577 11.9578C14.0867 11.9154 14.1213 11.8617 14.1593 11.8026C14.3148 11.5609 14.5279 11.2298 14.6522 11.2209C14.7989 11.2108 15.1363 11.4416 15.3595 11.5943C15.4026 11.6238 15.4414 11.6504 15.4738 11.6717C15.8962 11.9512 16.3153 12.1769 16.7325 12.4016C16.8701 12.4757 17.0074 12.5497 17.1446 12.6255C17.2238 12.6693 17.3007 12.7189 17.3783 12.769C17.5702 12.8927 17.7662 13.0193 18.0116 13.0673C18.0906 12.7631 18.0182 12.4534 17.9475 12.1512C17.9268 12.0623 17.9062 11.9741 17.8896 11.8869C17.8614 11.7379 17.8396 11.5874 17.8179 11.4371C17.7823 11.1904 17.7467 10.9442 17.6826 10.7053C17.4107 9.68831 17.2523 8.63679 17.0936 7.58266C17.015 7.06084 16.9364 6.53838 16.8438 6.01916C16.799 5.76794 16.7492 5.51732 16.6997 5.26853C16.633 4.93285 16.567 4.60051 16.5149 4.27457C16.5085 4.2345 16.5056 4.1904 16.5026 4.14494C16.4923 3.98822 16.481 3.81532 16.3216 3.73589C16.2448 3.70992 16.1988 3.70544 16.1565 3.71128C15.9154 3.74518 15.6807 3.82058 15.4421 3.89725C15.286 3.94738 15.1283 3.99806 14.966 4.03803C14.3642 4.18677 13.7674 4.35861 13.1732 4.52971C12.5635 4.70529 11.9565 4.88008 11.3496 5.02831C10.7353 5.17864 10.1277 5.34456 9.52632 5.50876C9.32656 5.5633 9.12751 5.61765 8.92914 5.67118C8.82471 5.69932 8.72022 5.72724 8.61582 5.75514C8.11292 5.88952 7.61194 6.02339 7.12793 6.17935C7.08282 6.1939 7.03246 6.2042 6.9807 6.2148C6.82417 6.24683 6.65489 6.28147 6.57968 6.44389C6.85287 6.68049 7.17123 6.8541 7.51206 7.03997C7.70394 7.14461 7.90294 7.25313 8.10501 7.37896C8.32382 7.51483 8.58852 7.67243 8.88071 7.83864C8.91923 7.86062 8.96513 7.88499 9.01462 7.91126C9.24777 8.03502 9.56034 8.20095 9.55343 8.35805C9.54905 8.46009 9.36101 8.75037 9.24174 8.93141C8.89603 9.45623 8.47573 9.95346 8.13027 10.36C6.33544 12.4713 4.2371 14.1943 2.00925 15.3628C1.36545 15.7003 0.693293 16.021 0 16.3145V15.3288V14.1096V12.8904V11.6712V10.4521V9.23291V8.01375V6.79458V5.57541V4.35624Z" fill="#2B2B2B"/>
<path d="M33.3444 14.1373H30.211V20.626H25.9961V0.716248H33.3444C38.1971 0.716248 41.2196 3.0178 41.2196 7.3436C41.2196 11.6694 38.1971 14.1373 33.3444 14.1373ZM33.3167 4.26562H30.211V10.588H33.3167C35.7014 10.588 37.0324 9.34013 37.0324 7.37133C37.0324 5.40253 35.7014 4.26562 33.3167 4.26562Z" fill="#2B2B2B"/>
<path d="M48.8058 20.8756C44.3691 20.8756 41.402 17.7976 41.402 13.1668C41.402 8.7578 44.48 5.54118 48.7503 5.54118C53.4366 5.54118 56.5423 9.34013 55.8491 14.1651H45.3396C45.5892 16.5775 46.7538 17.9085 48.7226 17.9085C50.4141 17.9085 51.551 17.0767 51.9947 15.607H55.8214C54.9895 18.9623 52.4106 20.8756 48.8058 20.8756ZM48.6671 8.36959C46.8647 8.36959 45.7278 9.53423 45.3951 11.7249H51.7728C51.6619 9.67288 50.4973 8.36959 48.6671 8.36959Z" fill="#2B2B2B"/>
<path d="M66.1395 20.626V18.7959C65.169 20.1824 63.6993 20.9033 61.6751 20.9033C58.5971 20.9033 56.5451 19.1009 56.5451 16.328C56.5451 13.4441 58.8744 11.8912 63.2002 11.8912C64.0321 11.8912 64.7531 11.9467 65.6681 12.0576V11.1703C65.6681 9.5065 64.7253 8.53597 63.117 8.53597C61.4533 8.53597 60.455 9.5065 60.3163 11.1703H56.8502C57.072 7.75954 59.5399 5.54118 63.117 5.54118C66.9992 5.54118 69.273 7.67635 69.273 11.3089V20.626H66.1395ZM60.1777 16.217C60.1777 17.4649 61.065 18.2413 62.507 18.2413C64.4758 18.2413 65.6681 17.1598 65.6681 15.4406V14.3869C64.7531 14.2482 64.1153 14.1928 63.4498 14.1928C61.2591 14.1928 60.1777 14.886 60.1777 16.217Z" fill="#2B2B2B"/>
<path d="M75.3397 20.626H71.4853V0.716248H75.3397V12.0853L80.7469 5.81848H85.1836L79.0554 12.9172L85.9046 20.626H80.9965L75.3397 13.7491V20.626Z" fill="#2B2B2B"/>
<path d="M92.3227 26.2551C88.3296 26.2551 85.6676 24.0922 85.5012 20.6815H89.217C89.3834 22.373 90.4648 23.2603 92.295 23.2603C94.4301 23.2603 95.5393 22.1234 95.5393 19.9883V17.8254C94.7352 19.2396 93.21 20.0714 91.4076 20.0714C87.7751 20.0714 85.0576 16.9935 85.0576 12.8063C85.0576 8.50824 87.6087 5.54118 91.269 5.54118C93.2655 5.54118 94.7629 6.31761 95.8443 7.84273V5.81848H99.366V19.9328C99.366 23.8704 96.704 26.2551 92.3227 26.2551ZM88.912 12.8063C88.912 15.2188 90.1598 16.7439 92.1563 16.7439C94.1806 16.7439 95.5116 15.1633 95.5116 12.834C95.5116 10.4216 94.1806 8.86872 92.1563 8.86872C90.1875 8.86872 88.912 10.3938 88.912 12.8063Z" fill="#2B2B2B"/>
<path d="M105.59 13.4441V20.626H101.735V5.81848H105.285V8.67462C106.366 6.78901 108.668 5.6521 111.052 5.6521V9.64515C107.78 9.39558 105.59 10.172 105.59 13.4441Z" fill="#2B2B2B"/>
<path d="M120.763 20.626V18.7959C119.793 20.1824 118.323 20.9033 116.299 20.9033C113.221 20.9033 111.169 19.1009 111.169 16.328C111.169 13.4441 113.498 11.8912 117.824 11.8912C118.656 11.8912 119.377 11.9467 120.292 12.0576V11.1703C120.292 9.5065 119.349 8.53597 117.741 8.53597C116.077 8.53597 115.079 9.5065 114.94 11.1703H111.474C111.696 7.75954 114.164 5.54118 117.741 5.54118C121.623 5.54118 123.897 7.67635 123.897 11.3089V20.626H120.763ZM114.802 16.217C114.802 17.4649 115.689 18.2413 117.131 18.2413C119.1 18.2413 120.292 17.1598 120.292 15.4406V14.3869C119.377 14.2482 118.739 14.1928 118.074 14.1928C115.883 14.1928 114.802 14.886 114.802 16.217Z" fill="#2B2B2B"/>
<path d="M129.964 20.626H126.109V5.81848H129.659V7.92592C130.74 6.42853 132.126 5.54118 134.095 5.54118C136.12 5.54118 137.672 6.48398 138.421 8.17549C139.586 6.53944 141.083 5.54118 143.301 5.54118C146.296 5.54118 148.32 7.50998 148.32 11.0594V20.626H144.494V12.2795C144.494 10.1997 143.606 8.95191 141.915 8.95191C140.39 8.95191 139.142 10.1443 139.142 12.3626V20.626H135.315V12.2795C135.315 10.1997 134.428 8.95191 132.737 8.95191C131.184 8.95191 129.964 10.1443 129.964 12.3626V20.626Z" fill="#2B2B2B"/>
</svg>
