<svg width="98" height="44" viewBox="0 0 98 44" fill="none" xmlns="http://www.w3.org/2000/svg">
<g id="Group 34300">
<path id="Vector" d="M16.7319 3.76487H1.80309C1.64703 3.76425 1.49515 3.81514 1.37114 3.9096C1.24713 4.00406 1.15796 4.13678 1.11753 4.28707L0.185015 7.78115C0.156958 7.88546 0.153318 7.9948 0.174378 8.10074C0.195437 8.20667 0.240633 8.30636 0.306474 8.39211C0.372315 8.47787 0.457041 8.54738 0.55411 8.5953C0.651179 8.64322 0.757994 8.66825 0.866308 8.66847H3.94064C4.0495 8.66871 4.15685 8.69386 4.25442 8.742C4.35199 8.79013 4.43717 8.85995 4.5034 8.94609C4.56963 9.03223 4.61515 9.13237 4.63644 9.23882C4.65773 9.34526 4.65422 9.45515 4.62619 9.56003L0.610823 24.4916C0.570513 24.6419 0.581234 24.8013 0.641314 24.9449C0.701394 25.0885 0.807455 25.2083 0.942953 25.2855L5.34581 27.8328C5.43957 27.8875 5.5447 27.9198 5.65303 27.9274C5.76137 27.9349 5.87 27.9175 5.97048 27.8765C6.07097 27.8354 6.16062 27.7718 6.23247 27.6906C6.30432 27.6094 6.35643 27.5128 6.38478 27.4083L11.2816 9.20341C11.3226 9.05348 11.412 8.92116 11.5358 8.82681C11.6597 8.73245 11.8112 8.6813 11.9671 8.6812H15.7994C15.9554 8.68183 16.1073 8.63094 16.2313 8.53648C16.3553 8.44202 16.4445 8.30929 16.4849 8.159L17.4175 4.66493C17.448 4.55945 17.4534 4.44833 17.4332 4.34042C17.413 4.23251 17.3678 4.13079 17.3012 4.04337C17.2346 3.95594 17.1485 3.88524 17.0496 3.83689C16.9508 3.78854 16.842 3.76388 16.7319 3.76487Z" fill="white"/>
<path id="Vector_2" d="M29.3401 15.2066L32.7466 13.7079C32.8444 13.6665 32.9313 13.6032 33.0007 13.5229C33.0701 13.4427 33.1201 13.3477 33.1469 13.2451L35.4462 4.65216C35.4735 4.54756 35.4764 4.43813 35.4547 4.33224C35.4331 4.22634 35.3875 4.12678 35.3213 4.04117C35.2552 3.95555 35.1703 3.88614 35.0731 3.83825C34.9759 3.79036 34.8691 3.76525 34.7607 3.76484H19.8361C19.6804 3.76564 19.5292 3.81706 19.4055 3.91131C19.2818 4.00555 19.1923 4.13747 19.1506 4.28704L13.0828 26.8606C13.0442 26.9905 13.0438 27.1286 13.0815 27.2588C13.1192 27.3889 13.1936 27.5055 13.2957 27.5949C13.3978 27.6842 13.5235 27.7425 13.6578 27.7628C13.7921 27.7832 13.9295 27.7647 14.0536 27.7097L19.8318 25.1624C19.9294 25.1194 20.0161 25.0552 20.0853 24.9743C20.1546 24.8935 20.2048 24.7981 20.2321 24.6953L21.8119 18.811C21.839 18.7093 21.8887 18.6149 21.9572 18.5349C22.0257 18.4548 22.1114 18.391 22.2079 18.3483L24.2688 17.4185C24.3929 17.3634 24.5303 17.345 24.6646 17.3653C24.7989 17.3857 24.9246 17.444 25.0267 17.5333C25.1288 17.6226 25.2032 17.7393 25.2409 17.8694C25.2786 17.9995 25.2782 18.1377 25.2396 18.2676L23.6641 24.1264C23.6352 24.2308 23.6309 24.3404 23.6515 24.4467C23.6722 24.553 23.7174 24.6531 23.7834 24.7391C23.8494 24.8251 23.9345 24.8946 24.032 24.9423C24.1295 24.9899 24.2368 25.0144 24.3454 25.0138H29.4551C29.611 25.0137 29.7625 24.9625 29.8864 24.8682C30.0102 24.7738 30.0996 24.6415 30.1407 24.4916L32.3974 16.0981C32.4263 15.9935 32.4305 15.8837 32.4098 15.7773C32.3891 15.6708 32.344 15.5705 32.2781 15.4842C32.2122 15.3979 32.1272 15.328 32.0297 15.2798C31.9322 15.2317 31.8249 15.2066 31.7161 15.2066H29.3401ZM27.0663 10.4388L25.0097 11.3431C24.8855 11.3982 24.7482 11.4166 24.6139 11.3963C24.4795 11.3759 24.3539 11.3176 24.2517 11.2283C24.1496 11.139 24.0753 11.0224 24.0375 10.8922C23.9998 10.7621 24.0003 10.6239 24.0388 10.494L24.3965 9.17366C24.4382 9.02409 24.5277 8.89217 24.6514 8.79792C24.7752 8.70368 24.9264 8.65225 25.0821 8.65146H27.837L27.4836 9.95908C27.4572 10.0663 27.4056 10.1657 27.333 10.2491C27.2605 10.3326 27.169 10.3976 27.0663 10.4388Z" fill="white"/>
<path id="Vector_3" d="M37.9723 1.38364L31.862 24.127C31.833 24.2313 31.8287 24.341 31.8494 24.4473C31.8701 24.5536 31.9152 24.6536 31.9813 24.7396C32.0473 24.8256 32.1324 24.8952 32.2299 24.9428C32.3274 24.9905 32.4347 25.0149 32.5433 25.0143H37.6317C37.7876 25.0142 37.9391 24.9631 38.063 24.8687C38.1868 24.7744 38.2762 24.642 38.3172 24.4921L43.7463 4.28759C43.7859 4.13726 43.7748 3.97812 43.7148 3.83468C43.6548 3.69123 43.5491 3.57142 43.4142 3.49368L39.0113 0.954845C38.9169 0.901981 38.8117 0.871169 38.7036 0.864734C38.5956 0.858298 38.4874 0.876407 38.3874 0.917693C38.2874 0.95898 38.198 1.02237 38.1261 1.10308C38.0542 1.18379 38.0016 1.27972 37.9723 1.38364Z" fill="white"/>
<path id="Vector_4" d="M63.4168 4.28704L58.0899 24.1264C58.0618 24.2311 58.0582 24.3408 58.0795 24.4471C58.1008 24.5533 58.1464 24.6533 58.2127 24.7391C58.279 24.8249 58.3643 24.8944 58.4619 24.942C58.5595 24.9896 58.6668 25.0142 58.7755 25.0138H73.7043C73.8598 25.0142 74.0111 24.9631 74.1344 24.8686C74.2576 24.7741 74.346 24.6415 74.3856 24.4916L79.7124 4.65216C79.7405 4.54785 79.7441 4.43851 79.7231 4.33257C79.702 4.22664 79.6568 4.12695 79.591 4.0412C79.5251 3.95544 79.4404 3.88593 79.3434 3.83801C79.2463 3.79009 79.1395 3.76506 79.0312 3.76484H64.1023C63.9465 3.76494 63.7949 3.81609 63.6711 3.91045C63.5472 4.0048 63.4578 4.13712 63.4168 4.28704ZM68.4583 20.1102H66.6444C66.5358 20.1108 66.4285 20.0863 66.331 20.0387C66.2335 19.991 66.1484 19.9215 66.0824 19.8355C66.0164 19.7495 65.9712 19.6494 65.9505 19.5431C65.9298 19.4368 65.9341 19.3272 65.9631 19.2228L68.6627 9.19064C68.7038 9.04071 68.7931 8.90839 68.917 8.81404C69.0409 8.71969 69.1924 8.66853 69.3483 8.66844H71.158C71.2668 8.66868 71.3742 8.69383 71.4717 8.74197C71.5693 8.7901 71.6545 8.85992 71.7207 8.94606C71.787 9.0322 71.8325 9.13234 71.8538 9.23879C71.8751 9.34523 71.8716 9.45512 71.8435 9.56L69.1396 19.588C69.1001 19.7379 69.0117 19.8705 68.8884 19.965C68.7651 20.0595 68.6139 20.1106 68.4583 20.1102Z" fill="white"/>
<path id="Vector_5" d="M81.4501 4.28704L76.1232 24.1264C76.0952 24.2307 76.0916 24.3401 76.1126 24.446C76.1337 24.552 76.1789 24.6517 76.2447 24.7374C76.3105 24.8232 76.3953 24.8927 76.4923 24.9406C76.5894 24.9885 76.6962 25.0135 76.8045 25.0138H81.9142C82.0701 25.0137 82.2216 24.9625 82.3455 24.8682C82.4694 24.7738 82.5587 24.6415 82.5998 24.4916L86.7088 9.20762C86.7505 9.05805 86.84 8.92613 86.9638 8.83189C87.0875 8.73764 87.2387 8.68622 87.3944 8.68542H89.2083C89.3171 8.68546 89.4244 8.71054 89.5219 8.75869C89.6194 8.80685 89.7044 8.87679 89.7703 8.96307C89.8362 9.04934 89.8813 9.14962 89.902 9.25611C89.9227 9.36259 89.9184 9.4724 89.8896 9.57698L85.2228 26.8606C85.1829 26.9902 85.1813 27.1285 85.2183 27.259C85.2553 27.3894 85.3292 27.5065 85.4312 27.5961C85.5332 27.6858 85.659 27.7441 85.7935 27.7643C85.928 27.7844 86.0654 27.7655 86.1893 27.7097L91.9718 25.1624C92.0684 25.1187 92.1541 25.0541 92.2226 24.9733C92.2911 24.8925 92.3407 24.7976 92.3678 24.6953L97.75 4.65216C97.7773 4.54756 97.7802 4.43813 97.7586 4.33224C97.7369 4.22634 97.6913 4.12678 97.6251 4.04117C97.559 3.95555 97.4741 3.88614 97.3769 3.83825C97.2797 3.79036 97.1729 3.76525 97.0645 3.76484H82.1357C81.98 3.76564 81.8288 3.81706 81.705 3.91131C81.5813 4.00555 81.4918 4.13747 81.4501 4.28704Z" fill="white"/>
<path id="Vector_6" d="M58.4047 16.8889L59.3755 13.382C59.4056 13.2758 59.4102 13.164 59.3889 13.0556C59.3677 12.9473 59.3212 12.8454 59.2533 12.7583C59.1853 12.6711 59.0978 12.6011 58.9977 12.5538C58.8977 12.5066 58.7879 12.4834 58.6772 12.4862L51.7365 12.6688C51.5786 12.6726 51.4266 12.7291 51.3047 12.8291C51.1828 12.9291 51.0979 13.067 51.0637 13.2207L50.4421 15.9591C50.4207 16.0608 50.4222 16.166 50.4463 16.267C50.4705 16.3681 50.5168 16.4626 50.5819 16.5438C50.647 16.6249 50.7294 16.6907 50.823 16.7364C50.9166 16.7821 51.0191 16.8066 51.1233 16.8082H52.0346C52.1655 16.8094 52.2935 16.8468 52.4043 16.9162C52.5152 16.9857 52.6045 17.0845 52.6623 17.2015C52.7202 17.3186 52.7443 17.4495 52.7319 17.5794C52.7196 17.7093 52.6712 17.8333 52.5924 17.9375L51.1787 19.8098C51.1128 19.8974 51.0273 19.9683 50.9289 20.017C50.8306 20.0656 50.7222 20.0906 50.6124 20.09H48.6111C48.5024 20.0904 48.3951 20.0659 48.2975 20.0182C48.1999 19.9706 48.1146 19.9012 48.0483 19.8153C47.982 19.7295 47.9364 19.6296 47.9151 19.5233C47.8938 19.417 47.8974 19.3073 47.9255 19.2027L50.6294 9.17047C50.6696 9.02088 50.7582 8.88867 50.8813 8.79428C51.0045 8.69989 51.1554 8.64858 51.3107 8.64826H53.1246C53.2334 8.64831 53.3407 8.67338 53.4382 8.72154C53.5357 8.76969 53.6207 8.83963 53.6866 8.92591C53.7525 9.01219 53.7976 9.11247 53.8183 9.21895C53.839 9.32543 53.8348 9.43524 53.8059 9.53983L53.5504 10.4908C53.5106 10.6204 53.509 10.7588 53.546 10.8892C53.5829 11.0197 53.6569 11.1368 53.7589 11.2264C53.8609 11.316 53.9867 11.3744 54.1212 11.3945C54.2557 11.4147 54.3931 11.3957 54.517 11.3399L60.2952 8.79261C60.3927 8.75064 60.4793 8.68719 60.5487 8.60704C60.618 8.52689 60.6682 8.43212 60.6955 8.32985L61.6791 4.64048C61.7072 4.53617 61.7108 4.42683 61.6898 4.32089C61.6687 4.21496 61.6235 4.11527 61.5577 4.02951C61.4918 3.94376 61.4071 3.87424 61.31 3.82633C61.213 3.77841 61.1061 3.75338 60.9978 3.75316H46.0647C45.9094 3.75347 45.7585 3.80479 45.6354 3.89918C45.5122 3.99357 45.4237 4.12577 45.3835 4.27536L40.0566 24.1275C40.0285 24.2318 40.0249 24.3411 40.046 24.4471C40.067 24.553 40.1122 24.6527 40.1781 24.7385C40.2439 24.8242 40.3286 24.8937 40.4257 24.9416C40.5228 24.9896 40.6296 25.0146 40.7379 25.0148H55.6667C55.8251 25.019 55.9803 24.9698 56.1071 24.875C56.2339 24.7802 56.3248 24.6454 56.365 24.4926L58.4004 16.8889H58.4047Z" fill="white"/>
<path id="Vector_7" d="M1.20737 40.8832C1.97979 41.2755 2.83161 41.4875 3.69834 41.503C4.73306 41.503 5.27809 41.0785 5.27809 40.4289C5.27809 39.7793 4.80544 39.4567 3.61318 39.0279C1.96105 38.4547 0.883753 37.5462 0.883753 36.0984C0.883753 34.4002 2.29743 33.1266 4.64364 33.1266C5.5215 33.1082 6.39298 33.2791 7.19848 33.6275L6.70029 35.4361C6.05003 35.127 5.33847 34.9674 4.61809 34.9691C3.64299 34.9691 3.17034 35.3937 3.17034 35.9244C3.17034 36.557 3.73241 36.8372 5.01835 37.3212C6.77268 37.9707 7.59874 38.8793 7.59874 40.293C7.59874 41.953 6.32132 43.3668 3.58337 43.3668C2.61034 43.3788 1.64701 43.1728 0.764526 42.7639L1.20737 40.8832Z" fill="white"/>
<path id="Vector_8" d="M17.4213 35.1618H14.7515V33.281H22.3948V35.1618H19.6781V43.1943H17.4213V35.1618Z" fill="white"/>
<path id="Vector_9" d="M32.236 33.281V38.987C32.236 40.6852 32.8832 41.564 34.0372 41.564C35.1911 41.564 35.8639 40.7404 35.8639 38.987V33.281H38.1079V38.8427C38.1079 41.8994 36.558 43.3599 33.9605 43.3599C31.4525 43.3599 29.975 41.9759 29.975 38.8129V33.2937L32.236 33.281Z" fill="white"/>
<path id="Vector_10" d="M46.4587 33.4117C47.4654 33.2659 48.4817 33.1964 49.4989 33.2036C51.3853 33.2036 52.6116 33.5433 53.5697 34.265C54.6044 35.0292 55.2516 36.2477 55.2516 38.0011C55.2516 39.8988 54.5575 41.2065 53.5995 42.0174C52.552 42.8665 50.9595 43.291 49.0093 43.291C48.1553 43.297 47.3019 43.2473 46.4544 43.1424L46.4587 33.4117ZM48.7027 41.5037C48.962 41.5415 49.2242 41.5557 49.4862 41.5461C51.5215 41.5461 52.85 40.4423 52.85 38.0733C52.85 36.0142 51.6535 34.9273 49.7204 34.9273C49.3791 34.9198 49.0379 34.9482 48.7027 35.0122V41.5037Z" fill="white"/>
<path id="Vector_11" d="M65.3877 33.281V43.1943H63.1266V33.281H65.3877Z" fill="white"/>
<path id="Vector_12" d="M82.8435 38.1318C82.8435 41.3838 80.8635 43.358 77.9595 43.358C75.0555 43.358 73.2756 41.1334 73.2756 38.3101C73.2756 35.3382 75.179 33.1135 78.1171 33.1135C81.1744 33.1263 82.8435 35.3976 82.8435 38.1318ZM75.6559 38.2676C75.6559 40.2078 76.5714 41.5749 78.0745 41.5749C79.5776 41.5749 80.4675 40.1314 80.4675 38.2039C80.4675 36.4251 79.6159 34.8967 78.0617 34.8967C76.5075 34.8967 75.6559 36.3401 75.6559 38.2676Z" fill="white"/>
<path id="Vector_13" d="M90.7922 40.8826C91.566 41.2755 92.4193 41.4874 93.2874 41.5025C94.3179 41.5025 94.8672 41.0779 94.8672 40.4284C94.8672 39.7788 94.3903 39.4561 93.198 39.0273C91.5459 38.4542 90.4686 37.5457 90.4686 36.1022C90.4686 34.404 91.8823 33.1303 94.2285 33.1303C95.1062 33.1131 95.9774 33.284 96.7833 33.6313L96.2809 35.4399C95.6306 35.1307 94.919 34.9712 94.1987 34.9729C93.2236 34.9729 92.7509 35.3974 92.7509 35.9281C92.7509 36.5607 93.313 36.8409 94.5989 37.3249C96.3532 37.9745 97.1793 38.883 97.1793 40.2968C97.1793 41.9568 95.9019 43.3705 93.1639 43.3705C92.1909 43.3826 91.2276 43.1765 90.3451 42.7677L90.7922 40.8826Z" fill="white"/>
</g>
</svg>
