<svg width="163" height="35" viewBox="0 0 163 35" fill="none" xmlns="http://www.w3.org/2000/svg">
<path d="M49.5832 26.365C49.3404 26.365 49.1582 26.3346 49.0368 26.2739C48.9154 26.193 48.8547 26.0817 48.8547 25.94C48.8547 25.7579 48.9356 25.6466 49.0975 25.6061C49.2797 25.5454 49.482 25.4746 49.7046 25.3937C50.17 25.2318 50.5747 24.9485 50.9187 24.5438C51.283 24.1391 51.5056 23.6231 51.5865 22.9957C51.7079 22.0649 51.8293 20.9216 51.9508 19.5658C52.0924 18.1898 52.234 16.7227 52.3757 15.1646C52.5173 13.6064 52.6388 12.0685 52.7399 10.5509C52.7602 10.4294 52.7703 10.2777 52.7703 10.0956C52.7703 9.91344 52.7703 9.7212 52.7703 9.51884C52.7703 9.1546 52.7096 8.8713 52.5882 8.66895C52.487 8.44636 52.3049 8.26424 52.0418 8.12259C51.799 7.9607 51.5359 7.82917 51.2526 7.72799C50.9693 7.60658 50.6658 7.5054 50.342 7.42446C50.0992 7.36375 49.907 7.28281 49.7653 7.18163C49.6237 7.08045 49.5528 6.94892 49.5528 6.78704C49.5528 6.60492 49.6338 6.4835 49.7957 6.4228C49.9575 6.36209 50.1498 6.33174 50.3724 6.33174C50.6759 6.33174 51.0503 6.34185 51.4954 6.36209C51.9406 6.38232 52.4263 6.40256 52.9524 6.4228C53.4988 6.4228 54.0451 6.43291 54.5915 6.45315C55.1581 6.47339 55.6741 6.4835 56.1395 6.4835C56.3014 6.4835 56.4532 6.54421 56.5948 6.66562C56.7365 6.7668 56.8275 6.88822 56.868 7.02987C57.0097 7.41434 57.1412 7.7887 57.2626 8.15294C57.384 8.49694 57.5155 8.86119 57.6572 9.24566L62.1191 19.8997C62.1596 19.9806 62.2102 20.0312 62.2709 20.0515C62.3518 20.0515 62.4126 20.0009 62.453 19.8997L66.7936 9.82238C66.9352 9.11413 67.0465 8.53742 67.1274 8.09223C67.2286 7.64705 67.3197 7.29293 67.4006 7.02987C67.4816 6.7668 67.6435 6.63527 67.8863 6.63527H69.1915C70.0414 6.5948 70.9216 6.53409 71.8322 6.45315C72.7631 6.35197 73.4915 6.30138 74.0177 6.30138C74.22 6.30138 74.392 6.34185 74.5337 6.4228C74.6956 6.4835 74.7765 6.5948 74.7765 6.75668C74.7765 6.93881 74.7057 7.07034 74.564 7.15128C74.4426 7.23222 74.2807 7.30304 74.0784 7.36375C73.957 7.40422 73.8153 7.46493 73.6534 7.54587C73.4915 7.60658 73.3499 7.66729 73.2285 7.72799C72.7024 7.97082 72.3078 8.25412 72.0447 8.57789C71.8019 8.88142 71.7007 9.37719 71.7412 10.0652C71.7816 11.5222 71.8322 12.797 71.8929 13.8897C71.9536 14.9825 72.0042 15.9942 72.0447 16.9251C72.1054 17.8559 72.1661 18.8272 72.2268 19.839C72.3078 20.8305 72.3887 21.9941 72.4696 23.3296C72.5101 23.8558 72.7226 24.2807 73.1071 24.6045C73.5118 24.908 74.0379 25.1407 74.6854 25.3026C74.8878 25.3633 75.0598 25.4341 75.2015 25.5151C75.3431 25.596 75.4139 25.7276 75.4139 25.9097C75.4139 26.0513 75.3532 26.1626 75.2318 26.2436C75.1104 26.3245 74.9586 26.365 74.7765 26.365C74.3313 26.365 73.8153 26.3447 73.2285 26.3043C72.6619 26.284 72.0953 26.2638 71.5287 26.2436C70.9823 26.2233 70.5068 26.2132 70.1021 26.2132C69.6974 26.2132 69.2421 26.2233 68.7362 26.2436C68.2505 26.2638 67.7548 26.284 67.2489 26.3043C66.743 26.3447 66.2573 26.365 65.7919 26.365C65.6098 26.365 65.4479 26.3346 65.3062 26.2739C65.1646 26.193 65.0938 26.0817 65.0938 25.94C65.0938 25.7579 65.1646 25.6163 65.3062 25.5151C65.4479 25.4139 65.6199 25.3431 65.8223 25.3026C66.571 25.161 67.087 24.9586 67.3703 24.6955C67.6536 24.4122 67.7851 23.9569 67.7649 23.3296C67.7042 22.075 67.6536 20.8305 67.6131 19.5962C67.5726 18.3416 67.5322 17.1173 67.4917 15.9234C67.4715 14.7093 67.431 13.5356 67.3703 12.4024C67.3703 12.2608 67.3298 12.2001 67.2489 12.2203C67.1882 12.2203 67.1274 12.2911 67.0667 12.4328L61.2692 26.2132C61.1681 26.4965 61.0163 26.6179 60.8139 26.5774C60.6116 26.537 60.4699 26.4358 60.389 26.2739C59.3975 23.9266 58.3553 21.6096 57.2626 19.323C56.1901 17.0364 55.1986 14.77 54.288 12.5238C54.2273 12.3417 54.1261 12.281 53.9844 12.3417C53.863 12.3822 53.7922 12.5137 53.772 12.7363C53.7112 13.7481 53.6607 14.861 53.6202 16.0752C53.5797 17.2691 53.5595 18.4832 53.5595 19.7176C53.5595 20.9317 53.5595 22.0649 53.5595 23.1172C53.5595 23.6838 53.7416 24.1492 54.1058 24.5134C54.4701 24.8574 55.0468 25.1205 55.836 25.3026C56.0383 25.3431 56.2306 25.4139 56.4127 25.5151C56.5948 25.596 56.6859 25.7276 56.6859 25.9097C56.6859 26.0513 56.6049 26.1626 56.4431 26.2436C56.2812 26.3245 56.1092 26.365 55.927 26.365C55.3807 26.365 54.9557 26.3447 54.6522 26.3043C54.3487 26.284 54.0755 26.2739 53.8327 26.2739C53.5898 26.2537 53.2559 26.2436 52.831 26.2436C52.3858 26.2436 51.9305 26.2537 51.4651 26.2739C50.9997 26.2942 50.595 26.3144 50.251 26.3346C49.907 26.3549 49.6844 26.365 49.5832 26.365Z" fill="white"/>
<path d="M77.4462 34.8639C76.92 34.8639 76.4142 34.6818 75.9285 34.3176C75.4429 33.9533 75.2 33.498 75.2 32.9517C75.2 32.5672 75.3012 32.1827 75.5036 31.7982C75.7059 31.434 76.0196 31.2519 76.4445 31.2519C76.7683 31.2519 77.0921 31.3025 77.4158 31.4036C77.7598 31.5251 78.0836 31.5756 78.3871 31.5554C78.6907 31.5149 78.9031 31.434 79.0246 31.3126C79.146 31.2114 79.2876 31.009 79.4495 30.7055C79.5911 30.4627 79.7227 30.2199 79.8441 29.977C79.9857 29.7544 80.1375 29.461 80.2994 29.0968C80.4815 28.7528 80.7041 28.2975 80.9672 27.7309C81.21 27.1845 81.3314 26.6989 81.3314 26.2739C81.3314 25.9704 81.2808 25.6972 81.1796 25.4544C81.0987 25.1913 81.0076 24.9384 80.9065 24.6955L77.173 16.2269C76.9909 15.7615 76.7885 15.377 76.5659 15.0735C76.3433 14.77 76.0398 14.5575 75.6553 14.4361C75.4732 14.3552 75.3316 14.2742 75.2304 14.1933C75.1292 14.0921 75.0786 13.9504 75.0786 13.7683C75.0786 13.6267 75.1697 13.5356 75.3518 13.4951C75.5339 13.4547 75.6958 13.4344 75.8374 13.4344C76.3231 13.4344 76.7278 13.4445 77.0516 13.4648C77.3956 13.485 77.6991 13.5053 77.9622 13.5255C78.2252 13.5457 78.4883 13.5558 78.7514 13.5558C79.1966 13.5558 79.5709 13.5457 79.8744 13.5255C80.178 13.5053 80.5018 13.485 80.8458 13.4648C81.1898 13.4445 81.5945 13.4344 82.0599 13.4344C82.2015 13.4344 82.3533 13.4648 82.5152 13.5255C82.6771 13.5862 82.758 13.6874 82.758 13.829C82.758 14.0111 82.6771 14.1427 82.5152 14.2236C82.3735 14.2843 82.2218 14.3552 82.0599 14.4361C81.8373 14.517 81.6653 14.6384 81.5439 14.8003C81.4225 14.9622 81.3618 15.2253 81.3618 15.5895C81.3618 15.7514 81.382 15.9436 81.4225 16.1662C81.4832 16.3888 81.5742 16.662 81.6957 16.9858L83.5776 21.5691C83.5978 21.6298 83.6282 21.6602 83.6686 21.6602C83.6889 21.6602 83.7192 21.6298 83.7597 21.5691L85.3077 16.9251C85.3684 16.7632 85.419 16.5709 85.4595 16.3484C85.5202 16.1055 85.5505 15.8931 85.5505 15.7109C85.5505 15.3669 85.4494 15.0937 85.247 14.8914C85.0446 14.6688 84.8322 14.517 84.6096 14.4361C84.4477 14.3754 84.2858 14.3046 84.1239 14.2236C83.9823 14.1427 83.9114 14.0111 83.9114 13.829C83.9114 13.6874 83.9924 13.5862 84.1543 13.5255C84.3162 13.4648 84.4679 13.4344 84.6096 13.4344C85.1559 13.4547 85.5809 13.485 85.8844 13.5255C86.188 13.5457 86.5016 13.5558 86.8254 13.5558C87.0277 13.5558 87.2099 13.5558 87.3717 13.5558C87.5539 13.5356 87.7663 13.5154 88.0092 13.4951C88.252 13.4749 88.5454 13.4547 88.8894 13.4344C89.0311 13.4344 89.1828 13.4547 89.3447 13.4951C89.5268 13.5356 89.6179 13.6267 89.6179 13.7683C89.6179 13.9504 89.5673 14.0921 89.4661 14.1933C89.3852 14.2742 89.2536 14.3552 89.0715 14.4361C88.687 14.5575 88.343 14.7902 88.0395 15.1342C87.736 15.458 87.483 15.8526 87.2807 16.318L82.758 27.1845C82.5961 27.5892 82.414 28.0243 82.2117 28.4897C82.0093 28.9754 81.7968 29.4711 81.5742 29.977C81.3719 30.4829 81.1594 30.9989 80.9368 31.5251C80.7142 32.0512 80.4916 32.5672 80.269 33.0731C80.0262 33.6599 79.6519 34.1051 79.146 34.4086C78.6401 34.7122 78.0735 34.8639 77.4462 34.8639Z" fill="white"/>
<path d="M96.127 26.6989C95.2569 26.6989 94.4171 26.5977 93.6077 26.3953C92.7983 26.193 92.0394 25.8692 91.3312 25.424C91.2098 25.3228 91.0884 25.2115 90.9669 25.0901C90.8455 24.9687 90.7545 24.8372 90.6938 24.6955C90.4914 24.1492 90.3498 23.4814 90.2688 22.6922C90.2081 21.903 90.1879 21.1037 90.2081 20.2943C90.2081 20.1526 90.2688 20.0515 90.3902 19.9908C90.5117 19.9301 90.6533 19.8997 90.8152 19.8997C91.0175 19.8997 91.1491 19.9301 91.2098 19.9908C91.2907 20.0312 91.3717 20.1223 91.4526 20.2639C91.8978 21.7816 92.5554 23.0059 93.4256 23.9367C94.3159 24.8675 95.348 25.333 96.5216 25.333C97.1692 25.333 97.6953 25.1913 98.1 24.908C98.5249 24.6045 98.8487 24.2301 99.0713 23.7849C99.2939 23.3195 99.4052 22.8541 99.4052 22.3887C99.4052 21.7411 99.2737 21.1948 99.0106 20.7496C98.7678 20.3044 98.3934 19.8997 97.8875 19.5355C97.3816 19.1712 96.7341 18.7766 95.9449 18.3517C95.095 17.866 94.2755 17.3601 93.4863 16.834C92.6971 16.2876 92.0496 15.63 91.5437 14.861C91.0378 14.0921 90.7848 13.1309 90.7848 11.9775C90.7848 10.7836 91.0884 9.75155 91.6954 8.88142C92.3227 8.01129 93.1726 7.3334 94.2451 6.84774C95.3176 6.36209 96.5216 6.11926 97.8572 6.11926C98.6261 6.11926 99.3546 6.2002 100.043 6.36209C100.751 6.52397 101.317 6.68586 101.742 6.84774C101.985 6.94892 102.157 7.06022 102.258 7.18163C102.38 7.30305 102.481 7.51552 102.562 7.81905C102.663 8.244 102.744 8.76001 102.805 9.36707C102.886 9.97414 102.926 10.6419 102.926 11.3704C102.926 11.6335 102.744 11.765 102.38 11.765C102.198 11.765 102.026 11.7245 101.864 11.6436C101.722 11.5424 101.631 11.421 101.591 11.2793C101.247 10.0652 100.741 9.14448 100.073 8.51718C99.4052 7.88988 98.5857 7.57622 97.6143 7.57622C97.0073 7.57622 96.4913 7.6774 96.0663 7.87976C95.6414 8.08212 95.3176 8.38565 95.095 8.79036C94.8927 9.19507 94.7915 9.70096 94.7915 10.308C94.7915 10.7937 94.9534 11.249 95.2771 11.6739C95.6211 12.0786 96.1068 12.4935 96.7341 12.9184C97.3614 13.3434 98.0798 13.7987 98.8892 14.2843C99.9819 14.9319 100.852 15.5693 101.5 16.1966C102.147 16.8239 102.613 17.4917 102.896 18.1999C103.199 18.8879 103.351 19.6872 103.351 20.5978C103.351 21.9738 103.048 23.1172 102.441 24.0278C101.854 24.9384 101.014 25.6163 99.9212 26.0614C98.8487 26.4864 97.584 26.6989 96.127 26.6989Z" fill="white"/>
<path d="M105.571 34.2265C105.43 34.2265 105.288 34.186 105.146 34.1051C105.025 34.0444 104.964 33.9432 104.964 33.8016C104.964 33.6397 105.025 33.5081 105.146 33.407C105.288 33.326 105.46 33.2552 105.662 33.1945C106.087 33.0528 106.381 32.9011 106.543 32.7392C106.725 32.5975 106.816 32.3648 106.816 32.0411V17.5018C106.816 17.2387 106.765 16.9858 106.664 16.743C106.563 16.5001 106.421 16.2876 106.239 16.1055C106.057 15.9032 105.824 15.7818 105.541 15.7413C105.419 15.7008 105.328 15.6502 105.268 15.5895C105.207 15.5086 105.177 15.377 105.177 15.1949C105.177 15.033 105.207 14.9116 105.268 14.8307C105.328 14.7497 105.409 14.6992 105.51 14.6789C106.219 14.517 106.978 14.3046 107.787 14.0415C108.596 13.7784 109.295 13.5053 109.881 13.222C109.962 13.1815 110.043 13.141 110.124 13.1005C110.225 13.0398 110.316 13.0095 110.397 13.0095C110.519 13.0095 110.59 13.05 110.61 13.1309C110.65 13.1916 110.671 13.2725 110.671 13.3737C110.671 13.5356 110.64 13.8088 110.58 14.1933C110.539 14.5575 110.519 14.8712 110.519 15.1342C110.519 15.3366 110.539 15.458 110.58 15.4985C110.782 15.2961 111.136 15.0229 111.642 14.6789C112.168 14.3349 112.765 14.0314 113.433 13.7683C114.101 13.5053 114.748 13.3737 115.375 13.3737C116.468 13.3737 117.389 13.6671 118.138 14.254C118.906 14.8206 119.493 15.5592 119.898 16.4698C120.303 17.3601 120.505 18.3011 120.505 19.2926C120.505 20.2437 120.323 21.1644 119.959 22.0548C119.615 22.9452 119.119 23.7546 118.471 24.4831C117.824 25.1913 117.075 25.7579 116.225 26.1829C115.375 26.6078 114.465 26.8203 113.493 26.8203C113.271 26.8203 112.998 26.7899 112.674 26.7292C112.37 26.6685 112.057 26.5876 111.733 26.4864C111.429 26.3852 111.146 26.284 110.883 26.1829C110.863 26.1829 110.843 26.2132 110.822 26.2739C110.802 26.3346 110.782 26.4054 110.762 26.4864C110.762 26.5673 110.762 26.6483 110.762 26.7292V31.7679C110.762 32.0309 110.822 32.2535 110.944 32.4357C111.085 32.6178 111.278 32.7594 111.52 32.8606C111.763 32.982 112.057 33.0933 112.401 33.1945C112.603 33.2552 112.765 33.326 112.886 33.407C113.008 33.5081 113.068 33.6397 113.068 33.8016C113.068 33.923 113.008 34.0241 112.886 34.1051C112.785 34.186 112.674 34.2265 112.552 34.2265C111.945 34.2265 111.308 34.1961 110.64 34.1354C109.993 34.095 109.406 34.0747 108.88 34.0747C108.536 34.0747 108.182 34.0849 107.817 34.1051C107.473 34.1253 107.109 34.1456 106.725 34.1658C106.36 34.2063 105.976 34.2265 105.571 34.2265ZM113.402 25.424C113.625 25.424 113.888 25.3431 114.192 25.1812C114.515 24.9991 114.829 24.7158 115.133 24.3313C115.456 23.9468 115.719 23.4308 115.922 22.7833C116.144 22.1357 116.256 21.3364 116.256 20.3854C116.256 19.2724 116.144 18.3922 115.922 17.7446C115.699 17.0768 115.426 16.5811 115.102 16.2573C114.778 15.9335 114.445 15.7211 114.101 15.6199C113.777 15.4985 113.493 15.4378 113.251 15.4378C112.886 15.4378 112.512 15.5187 112.128 15.6806C111.743 15.8425 111.429 16.0347 111.187 16.2573C110.944 16.4799 110.822 16.6822 110.822 16.8644C110.822 17.0262 110.822 17.3399 110.822 17.8053C110.822 18.2707 110.812 18.7867 110.792 19.3533C110.792 19.9199 110.782 20.4359 110.762 20.9014C110.762 21.3668 110.762 21.6906 110.762 21.8727C110.762 22.3381 110.863 22.8541 111.065 23.4207C111.288 23.9671 111.591 24.4426 111.976 24.8473C112.38 25.2318 112.856 25.424 113.402 25.424Z" fill="white"/>
<path d="M131.699 26.9113C131.537 26.9113 131.456 26.8102 131.456 26.6078C131.456 26.365 131.476 26.0412 131.517 25.6365C131.577 25.2318 131.608 24.9181 131.608 24.6955C131.608 24.6146 131.598 24.5438 131.577 24.4831C131.577 24.4224 131.567 24.3819 131.547 24.3617C131.001 25.0294 130.303 25.596 129.453 26.0614C128.603 26.5066 127.702 26.7292 126.751 26.7292C126.124 26.7292 125.557 26.5471 125.051 26.1829C124.546 25.7984 124.141 25.2824 123.837 24.6348C123.554 23.9873 123.412 23.2588 123.412 22.4494V16.7733C123.412 16.3079 123.321 15.9335 123.139 15.6502C122.977 15.3669 122.664 15.1747 122.198 15.0735C122.077 15.0533 121.966 15.0027 121.864 14.9217C121.783 14.8206 121.743 14.6789 121.743 14.4968C121.743 14.3551 121.783 14.2439 121.864 14.1629C121.945 14.0617 122.057 14.001 122.198 13.9808C123.048 13.9403 123.817 13.8594 124.505 13.738C125.193 13.5963 125.891 13.4344 126.599 13.2523C126.701 13.2321 126.802 13.2118 126.903 13.1916C127.024 13.1511 127.136 13.1309 127.237 13.1309C127.52 13.1309 127.652 13.2725 127.631 13.5558C127.551 14.0213 127.49 14.4159 127.449 14.7396C127.409 15.0432 127.389 15.4276 127.389 15.8931V21.7209C127.389 22.2066 127.47 22.6315 127.631 22.9957C127.793 23.36 128.016 23.6433 128.299 23.8456C128.583 24.048 128.896 24.1593 129.24 24.1795C129.564 24.1795 129.878 24.1391 130.181 24.0581C130.505 23.9772 130.808 23.7951 131.092 23.5118C131.213 23.4106 131.345 23.2082 131.486 22.9047C131.628 22.5809 131.699 22.156 131.699 21.6298V16.743C131.699 16.3787 131.628 16.0853 131.486 15.8627C131.345 15.6199 131.152 15.4276 130.91 15.286C130.667 15.1443 130.384 15.0634 130.06 15.0432C129.837 15.0229 129.655 14.9723 129.513 14.8914C129.392 14.7902 129.331 14.6182 129.331 14.3754C129.331 14.173 129.402 14.0213 129.544 13.9201C129.685 13.8189 129.857 13.7683 130.06 13.7683C131.092 13.7076 131.911 13.657 132.518 13.6165C133.125 13.5558 133.621 13.4951 134.006 13.4344C134.39 13.3737 134.775 13.3029 135.159 13.222C135.22 13.2017 135.291 13.1815 135.372 13.1613C135.453 13.141 135.513 13.1309 135.554 13.1309C135.857 13.1309 136.009 13.2523 136.009 13.4951C136.009 13.5558 135.999 13.6267 135.979 13.7076C135.958 13.7886 135.928 13.8695 135.888 13.9504C135.867 14.0314 135.837 14.2135 135.797 14.4968C135.776 14.7599 135.746 15.0432 135.705 15.3467C135.685 15.6502 135.675 15.8931 135.675 16.0752V23.1172C135.675 23.5826 135.726 23.8962 135.827 24.0581C135.948 24.1998 136.08 24.2706 136.221 24.2706C136.323 24.2706 136.474 24.2807 136.677 24.3009C136.879 24.3009 137.011 24.3009 137.071 24.3009C137.253 24.3009 137.395 24.3515 137.496 24.4527C137.598 24.5539 137.648 24.6854 137.648 24.8473C137.648 25.0294 137.608 25.1812 137.527 25.3026C137.466 25.4038 137.334 25.4645 137.132 25.4847C136.161 25.5657 135.281 25.7377 134.491 26.0007C133.722 26.2436 133.055 26.4763 132.488 26.6989C132.367 26.7393 132.235 26.7798 132.093 26.8203C131.952 26.881 131.82 26.9113 131.699 26.9113Z" fill="white"/>
<path d="M139.189 26.365C139.028 26.365 138.886 26.3346 138.765 26.2739C138.643 26.193 138.582 26.0817 138.582 25.94C138.582 25.7781 138.643 25.6567 138.765 25.5758C138.886 25.4746 139.058 25.3937 139.281 25.333C139.726 25.1913 140.019 25.0395 140.161 24.8777C140.323 24.7158 140.404 24.4831 140.404 24.1795V17.1982C140.404 16.7733 140.343 16.4293 140.221 16.1662C140.12 15.8829 139.877 15.6907 139.493 15.5895C139.392 15.5491 139.301 15.4985 139.22 15.4378C139.139 15.3568 139.098 15.2253 139.098 15.0432C139.098 14.7599 139.22 14.5879 139.463 14.5272C140.11 14.3653 140.818 14.1528 141.587 13.8897C142.377 13.6267 143.044 13.3636 143.591 13.1005C143.692 13.0196 143.813 12.9488 143.955 12.8881C144.117 12.8071 144.228 12.7667 144.289 12.7667C144.471 12.7667 144.562 12.878 144.562 13.1005C144.562 13.2017 144.552 13.4142 144.532 13.738C144.532 14.0415 144.522 14.3551 144.501 14.6789C144.501 15.0027 144.491 15.2759 144.471 15.4985C144.471 15.6806 144.511 15.7716 144.592 15.7716C144.896 15.3467 145.25 14.9319 145.655 14.5272C146.08 14.1224 146.535 13.7886 147.021 13.5255C147.506 13.2624 147.982 13.1309 148.447 13.1309C149.156 13.1309 149.651 13.2624 149.935 13.5255C150.238 13.7886 150.39 14.1326 150.39 14.5575C150.39 14.861 150.299 15.1949 150.117 15.5592C149.955 15.9234 149.742 16.2371 149.479 16.5001C149.216 16.7632 148.933 16.8947 148.629 16.8947C148.447 16.8947 148.255 16.8542 148.053 16.7733C147.85 16.6721 147.648 16.5709 147.446 16.4698C147.243 16.3888 147.041 16.3079 146.839 16.2269C146.656 16.1258 146.484 16.0752 146.323 16.0752C145.796 16.0752 145.341 16.2674 144.957 16.6519C144.572 17.0364 144.38 17.8053 144.38 18.9587V23.9063C144.38 24.3111 144.501 24.6146 144.744 24.817C145.007 24.9991 145.422 25.1711 145.989 25.333C146.211 25.3937 146.373 25.4746 146.474 25.5758C146.596 25.6567 146.656 25.7781 146.656 25.94C146.656 26.2233 146.484 26.365 146.14 26.365C145.533 26.365 144.906 26.3346 144.258 26.2739C143.611 26.2334 143.024 26.2132 142.498 26.2132C142.154 26.2132 141.8 26.2233 141.436 26.2436C141.092 26.2638 140.727 26.284 140.343 26.3043C139.979 26.3447 139.594 26.365 139.189 26.365Z" fill="white"/>
<path d="M151.758 26.365C151.596 26.365 151.454 26.3346 151.333 26.2739C151.211 26.193 151.151 26.0817 151.151 25.94C151.151 25.7781 151.211 25.6567 151.333 25.5758C151.454 25.4746 151.626 25.3937 151.849 25.333C152.294 25.1913 152.587 25.0395 152.729 24.8777C152.891 24.7158 152.972 24.4831 152.972 24.1795V17.1982C152.972 16.7733 152.911 16.4293 152.79 16.1662C152.689 15.8829 152.446 15.6907 152.061 15.5895C151.96 15.5491 151.869 15.4985 151.788 15.4378C151.707 15.3568 151.667 15.2253 151.667 15.0432C151.667 14.7599 151.788 14.5879 152.031 14.5272C152.678 14.3653 153.387 14.1528 154.156 13.8897C154.945 13.6267 155.613 13.3636 156.159 13.1005C156.26 13.0196 156.382 12.9488 156.523 12.8881C156.685 12.8071 156.796 12.7667 156.857 12.7667C157.039 12.7667 157.13 12.878 157.13 13.1005C157.13 13.2017 157.12 13.4142 157.1 13.738C157.1 14.0415 157.09 14.3551 157.07 14.6789C157.07 15.0027 157.059 15.2759 157.039 15.4985C157.039 15.6806 157.08 15.7716 157.161 15.7716C157.464 15.3467 157.818 14.9319 158.223 14.5272C158.648 14.1224 159.103 13.7886 159.589 13.5255C160.075 13.2624 160.55 13.1309 161.015 13.1309C161.724 13.1309 162.219 13.2624 162.503 13.5255C162.806 13.7886 162.958 14.1326 162.958 14.5575C162.958 14.861 162.867 15.1949 162.685 15.5592C162.523 15.9234 162.311 16.2371 162.047 16.5001C161.784 16.7632 161.501 16.8947 161.198 16.8947C161.015 16.8947 160.823 16.8542 160.621 16.7733C160.419 16.6721 160.216 16.5709 160.014 16.4698C159.811 16.3888 159.609 16.3079 159.407 16.2269C159.225 16.1258 159.053 16.0752 158.891 16.0752C158.365 16.0752 157.909 16.2674 157.525 16.6519C157.14 17.0364 156.948 17.8053 156.948 18.9587V23.9063C156.948 24.3111 157.07 24.6146 157.312 24.817C157.575 24.9991 157.99 25.1711 158.557 25.333C158.779 25.3937 158.941 25.4746 159.042 25.5758C159.164 25.6567 159.225 25.7781 159.225 25.94C159.225 26.2233 159.053 26.365 158.709 26.365C158.102 26.365 157.474 26.3346 156.827 26.2739C156.179 26.2334 155.592 26.2132 155.066 26.2132C154.722 26.2132 154.368 26.2233 154.004 26.2436C153.66 26.2638 153.296 26.284 152.911 26.3043C152.547 26.3447 152.162 26.365 151.758 26.365Z" fill="white"/>
<path d="M35.9508 0.0444306C26.0414 11.0124 25.1829 21.7392 35.2254 33.1515C23.1331 24.5511 11.6531 24.0687 0.186342 34.421C10.708 22.85 11.0142 11.6218 0 0C12.1189 9.79377 23.8652 10.6189 35.9508 0.0444306Z" fill="white"/>
</svg>
