<svg width="159" height="36" viewBox="0 0 159 36" fill="none" xmlns="http://www.w3.org/2000/svg">
<path d="M48.1683 26.9327C47.9324 26.9327 47.7555 26.9024 47.6375 26.8417C47.5196 26.7607 47.4606 26.6494 47.4606 26.5078C47.4606 26.3257 47.5392 26.2144 47.6965 26.1739C47.8734 26.1132 48.07 26.0424 48.2862 25.9614C48.7384 25.7995 49.1315 25.5162 49.4657 25.1115C49.8196 24.7068 50.0358 24.1908 50.1145 23.5635C50.2324 22.6327 50.3503 21.4893 50.4683 20.1336C50.6059 18.7575 50.7435 17.2905 50.8811 15.7323C51.0187 14.1742 51.1367 12.6363 51.235 11.1186C51.2546 10.9972 51.2645 10.8454 51.2645 10.6633C51.2645 10.4812 51.2645 10.2889 51.2645 10.0866C51.2645 9.72235 51.2055 9.43905 51.0875 9.2367C50.9892 9.01411 50.8123 8.83199 50.5568 8.69034C50.3209 8.52845 50.0653 8.39692 49.7901 8.29574C49.5149 8.17433 49.22 8.07315 48.9055 7.99221C48.6696 7.9315 48.4828 7.85056 48.3452 7.74938C48.2076 7.6482 48.1388 7.51667 48.1388 7.35479C48.1388 7.17267 48.2174 7.05125 48.3747 6.99055C48.532 6.92984 48.7187 6.89949 48.935 6.89949C49.2298 6.89949 49.5935 6.9096 50.026 6.92984C50.4585 6.95007 50.9303 6.97031 51.4414 6.99055C51.9721 6.99055 52.5029 7.00066 53.0337 7.0209C53.5841 7.04113 54.0854 7.05125 54.5375 7.05125C54.6948 7.05125 54.8422 7.11196 54.9798 7.23337C55.1175 7.33455 55.2059 7.45596 55.2452 7.59761C55.3828 7.98209 55.5106 8.35645 55.6286 8.72069C55.7465 9.06469 55.8743 9.42893 56.0119 9.81341L60.3465 20.4675C60.3858 20.5484 60.435 20.599 60.494 20.6192C60.5726 20.6192 60.6316 20.5686 60.6709 20.4675L64.8876 10.3901C65.0252 9.68188 65.1333 9.10517 65.2119 8.65998C65.3102 8.2148 65.3987 7.86068 65.4773 7.59761C65.5559 7.33455 65.7132 7.20302 65.9491 7.20302H67.217C68.0427 7.16255 68.8978 7.10184 69.7824 7.0209C70.6867 6.91972 71.3944 6.86913 71.9055 6.86913C72.1021 6.86913 72.2692 6.9096 72.4068 6.99055C72.5641 7.05125 72.6427 7.16255 72.6427 7.32443C72.6427 7.50655 72.5739 7.63808 72.4363 7.71903C72.3183 7.79997 72.1611 7.87079 71.9645 7.9315C71.8465 7.97197 71.7089 8.03268 71.5517 8.11362C71.3944 8.17433 71.2568 8.23503 71.1388 8.29574C70.6277 8.53857 70.2444 8.82187 69.9888 9.14564C69.7529 9.44917 69.6547 9.94494 69.694 10.633C69.7333 12.0899 69.7824 13.3648 69.8414 14.4575C69.9004 15.5502 69.9495 16.562 69.9888 17.4928C70.0478 18.4237 70.1068 19.395 70.1658 20.4067C70.2444 21.3983 70.323 22.5618 70.4017 23.8974C70.441 24.4235 70.6474 24.8485 71.0209 25.1722C71.4141 25.4758 71.9252 25.7085 72.5542 25.8704C72.7508 25.9311 72.9179 26.0019 73.0555 26.0828C73.1931 26.1638 73.2619 26.2953 73.2619 26.4774C73.2619 26.6191 73.203 26.7304 73.085 26.8113C72.9671 26.8923 72.8196 26.9327 72.6427 26.9327C72.2102 26.9327 71.7089 26.9125 71.1388 26.872C70.5884 26.8518 70.038 26.8315 69.4876 26.8113C68.9568 26.7911 68.4948 26.781 68.1017 26.781C67.7085 26.781 67.2662 26.7911 66.7747 26.8113C66.3029 26.8315 65.8213 26.8518 65.3299 26.872C64.8384 26.9125 64.3666 26.9327 63.9145 26.9327C63.7376 26.9327 63.5803 26.9024 63.4427 26.8417C63.3051 26.7607 63.2363 26.6494 63.2363 26.5078C63.2363 26.3257 63.3051 26.184 63.4427 26.0828C63.5803 25.9817 63.7474 25.9108 63.944 25.8704C64.6713 25.7287 65.1726 25.5264 65.4478 25.2633C65.723 24.98 65.8508 24.5247 65.8311 23.8974C65.7722 22.6428 65.723 21.3983 65.6837 20.1639C65.6444 18.9093 65.6051 17.6851 65.5658 16.4912C65.5461 15.277 65.5068 14.1034 65.4478 12.9702C65.4478 12.8285 65.4085 12.7678 65.3299 12.788C65.2709 12.788 65.2119 12.8589 65.1529 13.0005L59.5209 26.781C59.4226 27.0643 59.2752 27.1857 59.0786 27.1452C58.882 27.1047 58.7444 27.0035 58.6657 26.8417C57.7025 24.4943 56.6901 22.1774 55.6286 19.8907C54.5867 17.6041 53.6234 15.3377 52.7388 13.0916C52.6798 12.9095 52.5816 12.8487 52.4439 12.9095C52.326 12.9499 52.2572 13.0815 52.2375 13.3041C52.1786 14.3158 52.1294 15.4288 52.0901 16.6429C52.0508 17.8368 52.0311 19.051 52.0311 20.2853C52.0311 21.4995 52.0311 22.6327 52.0311 23.6849C52.0311 24.2515 52.208 24.7169 52.5619 25.0812C52.9157 25.4252 53.476 25.6882 54.2427 25.8704C54.4392 25.9108 54.626 25.9817 54.8029 26.0828C54.9798 26.1638 55.0683 26.2953 55.0683 26.4774C55.0683 26.6191 54.9897 26.7304 54.8324 26.8113C54.6751 26.8923 54.508 26.9327 54.3311 26.9327C53.8004 26.9327 53.3875 26.9125 53.0927 26.872C52.7978 26.8518 52.5324 26.8417 52.2965 26.8417C52.0606 26.8214 51.7362 26.8113 51.3234 26.8113C50.8909 26.8113 50.4486 26.8214 49.9965 26.8417C49.5444 26.8619 49.1512 26.8821 48.817 26.9024C48.4828 26.9226 48.2666 26.9327 48.1683 26.9327Z" fill="black"/>
<path d="M75.2362 35.4317C74.7251 35.4317 74.2336 35.2496 73.7618 34.8853C73.29 34.5211 73.0541 34.0658 73.0541 33.5194C73.0541 33.1349 73.1524 32.7505 73.349 32.366C73.5456 32.0017 73.8503 31.8196 74.2631 31.8196C74.5776 31.8196 74.8922 31.8702 75.2067 31.9714C75.5409 32.0928 75.8554 32.1434 76.1503 32.1232C76.4452 32.0827 76.6516 32.0017 76.7695 31.8803C76.8875 31.7791 77.0251 31.5768 77.1823 31.2733C77.32 31.0304 77.4477 30.7876 77.5657 30.5448C77.7033 30.3222 77.8507 30.0288 78.008 29.6645C78.1849 29.3205 78.4012 28.8652 78.6567 28.2986C78.8926 27.7523 79.0106 27.2666 79.0106 26.8417C79.0106 26.5381 78.9614 26.2649 78.8631 26.0221C78.7845 25.7591 78.696 25.5061 78.5977 25.2633L74.9708 16.7947C74.7939 16.3293 74.5973 15.9448 74.3811 15.6413C74.1648 15.3377 73.8699 15.1253 73.4964 15.0038C73.3195 14.9229 73.1819 14.842 73.0836 14.761C72.9853 14.6598 72.9362 14.5182 72.9362 14.3361C72.9362 14.1944 73.0246 14.1034 73.2016 14.0629C73.3785 14.0224 73.5358 14.0022 73.6734 14.0022C74.1452 14.0022 74.5383 14.0123 74.8529 14.0325C75.187 14.0528 75.4819 14.073 75.7375 14.0932C75.993 14.1135 76.2486 14.1236 76.5041 14.1236C76.9366 14.1236 77.3003 14.1135 77.5952 14.0932C77.89 14.073 78.2046 14.0528 78.5388 14.0325C78.8729 14.0123 79.2661 14.0022 79.7182 14.0022C79.8559 14.0022 80.0033 14.0325 80.1606 14.0932C80.3178 14.1539 80.3965 14.2551 80.3965 14.3968C80.3965 14.5789 80.3178 14.7104 80.1606 14.7914C80.0229 14.8521 79.8755 14.9229 79.7182 15.0038C79.502 15.0848 79.3349 15.2062 79.217 15.3681C79.099 15.53 79.04 15.793 79.04 16.1573C79.04 16.3192 79.0597 16.5114 79.099 16.734C79.158 16.9566 79.2465 17.2298 79.3644 17.5535L81.1926 22.1369C81.2123 22.1976 81.2418 22.2279 81.2811 22.2279C81.3007 22.2279 81.3302 22.1976 81.3695 22.1369L82.8734 17.4928C82.9324 17.3309 82.9815 17.1387 83.0208 16.9161C83.0798 16.6733 83.1093 16.4608 83.1093 16.2787C83.1093 15.9347 83.011 15.6615 82.8144 15.4591C82.6178 15.2365 82.4114 15.0848 82.1952 15.0038C82.0379 14.9431 81.8806 14.8723 81.7234 14.7914C81.5858 14.7104 81.517 14.5789 81.517 14.3968C81.517 14.2551 81.5956 14.1539 81.7529 14.0932C81.9101 14.0325 82.0576 14.0022 82.1952 14.0022C82.7259 14.0224 83.1388 14.0528 83.4336 14.0932C83.7285 14.1135 84.0332 14.1236 84.3477 14.1236C84.5443 14.1236 84.7212 14.1236 84.8785 14.1236C85.0554 14.1034 85.2618 14.0831 85.4977 14.0629C85.7336 14.0426 86.0187 14.0224 86.3529 14.0022C86.4905 14.0022 86.6379 14.0224 86.7952 14.0629C86.9721 14.1034 87.0606 14.1944 87.0606 14.3361C87.0606 14.5182 87.0114 14.6598 86.9131 14.761C86.8345 14.842 86.7067 14.9229 86.5298 15.0038C86.1563 15.1253 85.8221 15.358 85.5272 15.702C85.2324 16.0257 84.9866 16.4203 84.7901 16.8858L80.3965 27.7523C80.2392 28.157 80.0623 28.592 79.8657 29.0575C79.6691 29.5431 79.4627 30.0389 79.2465 30.5448C79.0499 31.0507 78.8435 31.5667 78.6272 32.0928C78.411 32.6189 78.1947 33.1349 77.9785 33.6408C77.7426 34.2277 77.3789 34.6728 76.8875 34.9764C76.396 35.2799 75.8456 35.4317 75.2362 35.4317Z" fill="black"/>
<path d="M93.384 27.2666C92.5387 27.2666 91.7229 27.1654 90.9365 26.9631C90.1502 26.7607 89.413 26.437 88.725 25.9918C88.607 25.8906 88.4891 25.7793 88.3711 25.6579C88.2532 25.5365 88.1647 25.4049 88.1058 25.2633C87.9092 24.7169 87.7716 24.0492 87.6929 23.26C87.634 22.4708 87.6143 21.6715 87.634 20.862C87.634 20.7204 87.6929 20.6192 87.8109 20.5585C87.9288 20.4978 88.0664 20.4675 88.2237 20.4675C88.4203 20.4675 88.5481 20.4978 88.607 20.5585C88.6857 20.599 88.7643 20.69 88.8429 20.8317C89.2754 22.3494 89.9143 23.5736 90.7596 24.5045C91.6246 25.4353 92.6271 25.9007 93.7673 25.9007C94.3964 25.9007 94.9075 25.7591 95.3006 25.4758C95.7135 25.1722 96.028 24.7979 96.2442 24.3527C96.4605 23.8873 96.5686 23.4219 96.5686 22.9564C96.5686 22.3089 96.4408 21.7625 96.1853 21.3173C95.9494 20.8722 95.5857 20.4675 95.0942 20.1032C94.6028 19.739 93.9737 19.3444 93.207 18.9194C92.3814 18.4338 91.5852 17.9279 90.8186 17.4018C90.0519 16.8554 89.4228 16.1977 88.9314 15.4288C88.4399 14.6598 88.1942 13.6986 88.1942 12.5452C88.1942 11.3513 88.4891 10.3193 89.0788 9.44917C89.6882 8.57904 90.5139 7.90115 91.5558 7.41549C92.5976 6.92984 93.7673 6.68701 95.0647 6.68701C95.8117 6.68701 96.5194 6.76795 97.1878 6.92984C97.8759 7.09172 98.4263 7.25361 98.8391 7.41549C99.075 7.51667 99.2421 7.62797 99.3404 7.74938C99.4583 7.87079 99.5566 8.08327 99.6353 8.3868C99.7335 8.81175 99.8122 9.32776 99.8712 9.93482C99.9498 10.5419 99.9891 11.2097 99.9891 11.9381C99.9891 12.2012 99.8122 12.3327 99.4583 12.3327C99.2814 12.3327 99.1143 12.2923 98.9571 12.2113C98.8194 12.1102 98.731 11.9887 98.6917 11.8471C98.3575 10.633 97.866 9.71223 97.2173 9.08493C96.5686 8.45763 95.7724 8.14397 94.8288 8.14397C94.2391 8.14397 93.7378 8.24515 93.325 8.44751C92.9122 8.64986 92.5976 8.9534 92.3814 9.35811C92.1848 9.76282 92.0865 10.2687 92.0865 10.8758C92.0865 11.3614 92.2438 11.8167 92.5583 12.2417C92.8925 12.6464 93.3643 13.0612 93.9737 13.4862C94.5831 13.9111 95.281 14.3664 96.0673 14.8521C97.1288 15.4996 97.9741 16.137 98.6032 16.7643C99.2323 17.3916 99.6844 18.0594 99.9596 18.7677C100.254 19.4557 100.402 20.255 100.402 21.1656C100.402 22.5416 100.107 23.6849 99.5173 24.5955C98.9472 25.5061 98.1314 26.184 97.0699 26.6292C96.028 27.0541 94.7993 27.2666 93.384 27.2666Z" fill="black"/>
<path d="M102.559 34.7943C102.421 34.7943 102.283 34.7538 102.146 34.6728C102.028 34.6121 101.969 34.511 101.969 34.3693C101.969 34.2074 102.028 34.0759 102.146 33.9747C102.283 33.8938 102.451 33.8229 102.647 33.7622C103.06 33.6206 103.345 33.4688 103.502 33.3069C103.679 33.1653 103.768 32.9326 103.768 32.6088V18.0695C103.768 17.8065 103.718 17.5535 103.62 17.3107C103.522 17.0679 103.384 16.8554 103.207 16.6733C103.03 16.4709 102.804 16.3495 102.529 16.309C102.411 16.2686 102.323 16.218 102.264 16.1573C102.205 16.0763 102.175 15.9448 102.175 15.7627C102.175 15.6008 102.205 15.4794 102.264 15.3984C102.323 15.3175 102.401 15.2669 102.5 15.2467C103.188 15.0848 103.925 14.8723 104.711 14.6092C105.498 14.3462 106.176 14.073 106.746 13.7897C106.824 13.7492 106.903 13.7088 106.982 13.6683C107.08 13.6076 107.168 13.5772 107.247 13.5772C107.365 13.5772 107.434 13.6177 107.454 13.6986C107.493 13.7594 107.512 13.8403 107.512 13.9415C107.512 14.1034 107.483 14.3765 107.424 14.761C107.385 15.1253 107.365 15.4389 107.365 15.702C107.365 15.9043 107.385 16.0257 107.424 16.0662C107.621 15.8639 107.965 15.5907 108.456 15.2467C108.967 14.9027 109.547 14.5991 110.196 14.3361C110.845 14.073 111.474 13.9415 112.083 13.9415C113.145 13.9415 114.039 14.2349 114.766 14.8217C115.513 15.3883 116.083 16.1269 116.477 17.0375C116.87 17.9279 117.066 18.8688 117.066 19.8604C117.066 20.8115 116.889 21.7322 116.536 22.6225C116.201 23.5129 115.72 24.3223 115.091 25.0508C114.462 25.7591 113.734 26.3257 112.909 26.7506C112.083 27.1756 111.198 27.388 110.255 27.388C110.039 27.388 109.773 27.3577 109.459 27.297C109.164 27.2363 108.859 27.1553 108.545 27.0541C108.25 26.953 107.974 26.8518 107.719 26.7506C107.699 26.7506 107.68 26.781 107.66 26.8417C107.64 26.9024 107.621 26.9732 107.601 27.0541C107.601 27.1351 107.601 27.216 107.601 27.297V32.3356C107.601 32.5987 107.66 32.8213 107.778 33.0034C107.915 33.1855 108.102 33.3272 108.338 33.4283C108.574 33.5498 108.859 33.6611 109.193 33.7622C109.39 33.8229 109.547 33.8938 109.665 33.9747C109.783 34.0759 109.842 34.2074 109.842 34.3693C109.842 34.4907 109.783 34.5919 109.665 34.6728C109.567 34.7538 109.459 34.7943 109.341 34.7943C108.751 34.7943 108.132 34.7639 107.483 34.7032C106.854 34.6627 106.284 34.6425 105.773 34.6425C105.439 34.6425 105.095 34.6526 104.741 34.6728C104.407 34.6931 104.053 34.7133 103.679 34.7335C103.325 34.774 102.952 34.7943 102.559 34.7943ZM110.166 25.9918C110.383 25.9918 110.638 25.9108 110.933 25.7489C111.248 25.5668 111.552 25.2835 111.847 24.899C112.162 24.5146 112.417 23.9986 112.614 23.351C112.83 22.7035 112.938 21.9042 112.938 20.9531C112.938 19.8401 112.83 18.9599 112.614 18.3124C112.398 17.6446 112.132 17.1488 111.818 16.825C111.503 16.5013 111.179 16.2888 110.845 16.1876C110.53 16.0662 110.255 16.0055 110.019 16.0055C109.665 16.0055 109.301 16.0864 108.928 16.2483C108.554 16.4102 108.25 16.6025 108.014 16.825C107.778 17.0476 107.66 17.25 107.66 17.4321C107.66 17.594 107.66 17.9076 107.66 18.3731C107.66 18.8385 107.65 19.3545 107.63 19.9211C107.63 20.4877 107.621 21.0037 107.601 21.4691C107.601 21.9345 107.601 22.2583 107.601 22.4404C107.601 22.9058 107.699 23.4218 107.896 23.9884C108.112 24.5348 108.407 25.0103 108.78 25.4151C109.174 25.7995 109.636 25.9918 110.166 25.9918Z" fill="black"/>
<path d="M127.941 27.4791C127.783 27.4791 127.705 27.3779 127.705 27.1755C127.705 26.9327 127.724 26.609 127.764 26.2042C127.823 25.7995 127.852 25.4859 127.852 25.2633C127.852 25.1823 127.842 25.1115 127.823 25.0508C127.823 24.9901 127.813 24.9496 127.793 24.9294C127.262 25.5972 126.584 26.1638 125.759 26.6292C124.933 27.0744 124.058 27.297 123.134 27.297C122.525 27.297 121.974 27.1148 121.483 26.7506C120.992 26.3661 120.598 25.8501 120.304 25.2026C120.028 24.555 119.891 23.8266 119.891 23.0171V17.3411C119.891 16.8756 119.802 16.5013 119.625 16.218C119.468 15.9347 119.163 15.7424 118.711 15.6413C118.593 15.621 118.485 15.5704 118.387 15.4895C118.308 15.3883 118.269 15.2467 118.269 15.0645C118.269 14.9229 118.308 14.8116 118.387 14.7307C118.465 14.6295 118.574 14.5688 118.711 14.5485C119.537 14.5081 120.284 14.4271 120.952 14.3057C121.621 14.1641 122.299 14.0022 122.987 13.8201C123.085 13.7998 123.183 13.7796 123.282 13.7594C123.4 13.7189 123.508 13.6986 123.606 13.6986C123.881 13.6986 124.009 13.8403 123.989 14.1236C123.911 14.589 123.852 14.9836 123.812 15.3074C123.773 15.6109 123.754 15.9954 123.754 16.4608V22.2887C123.754 22.7743 123.832 23.1993 123.989 23.5635C124.147 23.9277 124.363 24.211 124.638 24.4134C124.913 24.6157 125.218 24.727 125.552 24.7473C125.867 24.7473 126.171 24.7068 126.466 24.6259C126.781 24.5449 127.076 24.3628 127.351 24.0795C127.469 23.9783 127.597 23.776 127.734 23.4724C127.872 23.1487 127.941 22.7237 127.941 22.1976V17.3107C127.941 16.9465 127.872 16.653 127.734 16.4305C127.597 16.1876 127.41 15.9954 127.174 15.8537C126.938 15.7121 126.663 15.6311 126.348 15.6109C126.132 15.5907 125.955 15.5401 125.818 15.4591C125.7 15.358 125.641 15.186 125.641 14.9431C125.641 14.7408 125.709 14.589 125.847 14.4878C125.985 14.3867 126.152 14.3361 126.348 14.3361C127.351 14.2754 128.147 14.2248 128.737 14.1843C129.327 14.1236 129.808 14.0629 130.182 14.0022C130.555 13.9415 130.929 13.8706 131.302 13.7897C131.361 13.7695 131.43 13.7492 131.509 13.729C131.587 13.7088 131.646 13.6986 131.686 13.6986C131.98 13.6986 132.128 13.8201 132.128 14.0629C132.128 14.1236 132.118 14.1944 132.098 14.2754C132.079 14.3563 132.049 14.4372 132.01 14.5182C131.99 14.5991 131.961 14.7812 131.921 15.0645C131.902 15.3276 131.872 15.6109 131.833 15.9144C131.813 16.218 131.804 16.4608 131.804 16.6429V23.6849C131.804 24.1503 131.853 24.464 131.951 24.6259C132.069 24.7675 132.197 24.8383 132.334 24.8383C132.433 24.8383 132.58 24.8485 132.777 24.8687C132.973 24.8687 133.101 24.8687 133.16 24.8687C133.337 24.8687 133.474 24.9193 133.573 25.0205C133.671 25.1216 133.72 25.2532 133.72 25.4151C133.72 25.5972 133.681 25.7489 133.602 25.8704C133.543 25.9715 133.415 26.0322 133.219 26.0525C132.275 26.1334 131.42 26.3054 130.654 26.5685C129.907 26.8113 129.258 27.044 128.707 27.2666C128.589 27.3071 128.462 27.3476 128.324 27.388C128.186 27.4487 128.059 27.4791 127.941 27.4791Z" fill="black"/>
<path d="M135.218 26.9327C135.06 26.9327 134.923 26.9024 134.805 26.8417C134.687 26.7607 134.628 26.6494 134.628 26.5078C134.628 26.3459 134.687 26.2245 134.805 26.1435C134.923 26.0424 135.09 25.9614 135.306 25.9007C135.739 25.7591 136.024 25.6073 136.161 25.4454C136.318 25.2835 136.397 25.0508 136.397 24.7473V17.766C136.397 17.3411 136.338 16.997 136.22 16.734C136.122 16.4507 135.886 16.2584 135.512 16.1573C135.414 16.1168 135.326 16.0662 135.247 16.0055C135.168 15.9246 135.129 15.793 135.129 15.6109C135.129 15.3276 135.247 15.1556 135.483 15.0949C136.112 14.933 136.8 14.7205 137.547 14.4575C138.314 14.1944 138.962 13.9314 139.493 13.6683C139.592 13.5873 139.709 13.5165 139.847 13.4558C140.004 13.3749 140.112 13.3344 140.171 13.3344C140.348 13.3344 140.437 13.4457 140.437 13.6683C140.437 13.7695 140.427 13.9819 140.407 14.3057C140.407 14.6092 140.398 14.9229 140.378 15.2467C140.378 15.5704 140.368 15.8436 140.348 16.0662C140.348 16.2483 140.388 16.3394 140.466 16.3394C140.761 15.9144 141.105 15.4996 141.498 15.0949C141.911 14.6902 142.353 14.3563 142.825 14.0932C143.297 13.8302 143.759 13.6986 144.211 13.6986C144.899 13.6986 145.381 13.8302 145.656 14.0932C145.951 14.3563 146.098 14.7003 146.098 15.1253C146.098 15.4288 146.01 15.7627 145.833 16.1269C145.676 16.4912 145.469 16.8048 145.214 17.0679C144.958 17.3309 144.683 17.4625 144.388 17.4625C144.211 17.4625 144.024 17.422 143.828 17.3411C143.631 17.2399 143.435 17.1387 143.238 17.0375C143.042 16.9566 142.845 16.8756 142.648 16.7947C142.471 16.6935 142.304 16.6429 142.147 16.6429C141.636 16.6429 141.194 16.8352 140.82 17.2196C140.447 17.6041 140.26 18.3731 140.26 19.5265V24.4741C140.26 24.8788 140.378 25.1823 140.614 25.3847C140.869 25.5668 141.272 25.7388 141.823 25.9007C142.039 25.9614 142.196 26.0424 142.295 26.1435C142.412 26.2245 142.471 26.3459 142.471 26.5078C142.471 26.7911 142.304 26.9327 141.97 26.9327C141.38 26.9327 140.771 26.9024 140.142 26.8417C139.513 26.8012 138.943 26.781 138.432 26.781C138.098 26.781 137.753 26.7911 137.4 26.8113C137.065 26.8315 136.712 26.8518 136.338 26.872C135.984 26.9125 135.611 26.9327 135.218 26.9327Z" fill="black"/>
<path d="M147.427 26.9327C147.27 26.9327 147.132 26.9024 147.014 26.8417C146.896 26.7607 146.837 26.6494 146.837 26.5078C146.837 26.3459 146.896 26.2245 147.014 26.1435C147.132 26.0424 147.299 25.9614 147.516 25.9007C147.948 25.7591 148.233 25.6073 148.371 25.4454C148.528 25.2835 148.607 25.0508 148.607 24.7473V17.766C148.607 17.3411 148.548 16.997 148.43 16.734C148.331 16.4507 148.096 16.2584 147.722 16.1573C147.624 16.1168 147.535 16.0662 147.457 16.0055C147.378 15.9246 147.339 15.793 147.339 15.6109C147.339 15.3276 147.457 15.1556 147.693 15.0949C148.322 14.933 149.01 14.7205 149.757 14.4575C150.523 14.1944 151.172 13.9314 151.703 13.6683C151.801 13.5873 151.919 13.5165 152.057 13.4558C152.214 13.3749 152.322 13.3344 152.381 13.3344C152.558 13.3344 152.646 13.4457 152.646 13.6683C152.646 13.7695 152.637 13.9819 152.617 14.3057C152.617 14.6092 152.607 14.9229 152.587 15.2467C152.587 15.5704 152.578 15.8436 152.558 16.0662C152.558 16.2483 152.597 16.3394 152.676 16.3394C152.971 15.9144 153.315 15.4996 153.708 15.0949C154.121 14.6902 154.563 14.3563 155.035 14.0932C155.507 13.8302 155.969 13.6986 156.421 13.6986C157.109 13.6986 157.59 13.8302 157.866 14.0932C158.16 14.3563 158.308 14.7003 158.308 15.1253C158.308 15.4288 158.219 15.7627 158.043 16.1269C157.885 16.4912 157.679 16.8048 157.423 17.0679C157.168 17.3309 156.893 17.4625 156.598 17.4625C156.421 17.4625 156.234 17.422 156.037 17.3411C155.841 17.2399 155.644 17.1387 155.448 17.0375C155.251 16.9566 155.055 16.8756 154.858 16.7947C154.681 16.6935 154.514 16.6429 154.357 16.6429C153.846 16.6429 153.403 16.8352 153.03 17.2196C152.656 17.6041 152.469 18.3731 152.469 19.5265V24.4741C152.469 24.8788 152.587 25.1823 152.823 25.3847C153.079 25.5668 153.482 25.7388 154.032 25.9007C154.249 25.9614 154.406 26.0424 154.504 26.1435C154.622 26.2245 154.681 26.3459 154.681 26.5078C154.681 26.7911 154.514 26.9327 154.18 26.9327C153.59 26.9327 152.981 26.9024 152.352 26.8417C151.722 26.8012 151.152 26.781 150.641 26.781C150.307 26.781 149.963 26.7911 149.609 26.8113C149.275 26.8315 148.921 26.8518 148.548 26.872C148.194 26.9125 147.82 26.9327 147.427 26.9327Z" fill="black"/>
<path d="M34.9249 0.612302C25.2983 11.5803 24.4643 22.3071 34.2202 33.7194C22.473 25.1189 11.3205 24.6365 0.181024 34.9889C10.4025 23.4179 10.6999 12.1896 0 0.567871C11.7731 10.3616 23.1841 11.1868 34.9249 0.612302Z" fill="#007582"/>
</svg>
