<svg class="block size-full" fill="none" preserveAspectRatio="none" viewBox="0 0 69 67"><g id="Layer 1"><path d="M46.3467 13.0526C46.1433 8.86194 44.5455 5.43103 41.2935 2.78678C36.228 -1.32051 25.4501 -1.80819 22.1466 7.71259C20.9433 11.1876 20.6468 14.7239 20.7203 18.3239C20.7448 19.6399 20.289 19.983 19.049 19.9095C17.2306 19.809 15.3999 19.8041 13.5767 19.8801C10.8809 19.9977 8.23179 20.505 5.88897 21.9484C0.40932 25.3279 -1.66883 33.3292 1.47045 39.473C3.50939 43.4676 6.558 46.1559 11.3907 46.3863C13.8756 46.5088 16.3385 46.4696 18.8137 46.3544C21.1296 46.2466 21.1247 46.3005 21.0193 48.5429C20.9335 50.7117 20.7497 52.8781 21.0389 55.0518C21.6565 59.708 23.6047 63.4796 28.1188 65.418C29.3441 65.9449 31.1233 66.3076 32.9074 66.3787V63.7173C32.9075 63.1458 32.7106 62.5918 32.3499 62.1485C31.9892 61.7053 31.4868 61.3999 30.9273 61.2838H30.9077C29.9544 61.0853 28.6163 60.355 27.9987 59.583C25.9671 57.0515 25.7025 54.0544 25.8275 50.9862C25.9402 48.2561 26.1706 45.5335 26.2686 42.8083C26.3347 40.9532 26.1191 40.8184 24.2762 41.0267C20.6002 41.4409 16.912 41.5168 13.2238 41.6835C9.24636 41.8673 5.84976 39.0735 5.27386 34.9025C4.75677 31.1089 6.00906 25.9479 12.0303 25.1759C13.2973 25.0093 14.5545 25.0534 15.8141 24.9823C18.8456 24.8083 21.8697 25.3867 24.906 25.0779C25.7074 24.997 25.9353 24.6809 25.9157 23.9334C25.8765 22.4165 25.901 20.8971 25.901 19.3752C25.8226 17.003 25.7123 14.621 26.1853 12.2683C26.717 9.62654 27.4767 7.06071 30.2264 5.89665C35.0787 3.85281 40.2912 7.16854 40.8965 12.4399C41.1416 14.5867 41.1146 21.9974 41.122 24.1074C41.1101 24.5202 41.6651 24.6369 41.8906 24.2909C42.585 23.2258 43.431 22.2626 44.1902 21.2451C45.4376 19.5835 46.3958 17.9048 46.3958 15.9002C46.3958 14.7754 46.3811 13.7485 46.3467 13.0526Z" fill="var(--fill-0, #6AC9FD)" id="Vector"></path><path d="M55.5928 42.1972C53.5 42.6162 51.3826 42.6873 49.2554 42.6873C48.2752 42.6873 47.9223 42.2756 47.812 41.364C47.5669 39.2613 47.1356 37.1733 47.1626 35.6172C47.0964 32.0319 47.4346 29.1401 49.9465 27.0399C53.8676 23.783 60.3275 25.7386 62.3615 30.7649C64.5328 36.1416 61.6704 40.9596 55.5928 42.1972ZM67.1329 29.3411C65.0646 23.8418 59.6854 20.2369 53.8994 20.4795C48.508 20.7001 44.1875 24.2829 42.6852 29.9758C41.727 33.6248 42.4573 37.3008 42.7416 40.9841L42.7563 41.1728C43.0455 44.714 43.8493 48.238 43.3518 51.838C42.8053 55.7591 40.9159 59.19 37.257 61.2314C37.1631 61.2844 37.0656 61.3311 36.9654 61.3711C36.514 61.5572 36.1289 61.8747 35.8601 62.2825C35.5914 62.6902 35.4514 63.1692 35.4583 63.6575V66.3532C36.0938 66.3388 36.728 66.2872 37.3575 66.1988C41.0605 65.7087 43.8493 63.1331 45.8343 59.935C47.8194 56.7369 48.682 53.1589 48.6281 49.4634C48.6085 48.0763 48.8413 47.6352 50.2577 47.645C51.5876 47.6555 52.9166 47.5736 54.2352 47.3999C55.6221 47.2164 56.9945 46.9363 58.3424 46.5618C66.0007 44.4052 69.9291 36.8033 67.1329 29.3411Z" fill="var(--fill-0, #3085D4)" id="Vector_2"></path></g></svg>