<svg width="217" height="50" viewBox="0 0 217 50" fill="none" xmlns="http://www.w3.org/2000/svg">
<path d="M31.0713 33.7559C31.0713 35.4864 32.4741 36.9046 34.2046 36.9046C35.9351 36.9046 37.3379 35.4864 37.3379 33.7559C37.3379 32.0254 35.9351 30.6072 34.2046 30.6072C32.4741 30.6072 31.0713 32.0254 31.0713 33.7559Z" fill="black"/>
<path d="M12.3877 16.2461C12.3877 17.9761 13.7901 19.3949 15.52 19.3949C17.2499 19.3949 18.6523 17.9761 18.6523 16.2461C18.6523 14.5162 17.2499 13.0974 15.52 13.0974C13.7901 13.0974 12.3877 14.5162 12.3877 16.2461Z" fill="black"/>
<path d="M49.7234 25.001C49.7234 38.8076 38.5949 50 24.8627 50C21.7414 50 18.7539 49.4213 16.0043 48.3623V34.9295C16.0043 33.3501 16.296 31.837 16.8316 30.4445C16.9914 30.0265 17.1733 29.6186 17.3791 29.2208C17.4171 29.1424 17.457 29.066 17.501 28.9857C17.8227 28.3487 18.1624 27.7559 18.5221 27.2053C21.3597 22.8087 24.9206 20.8596 24.9206 15.7778C24.9206 10.6961 20.4525 6.79781 15.5207 6.79781C10.5889 6.79781 6.12675 10.8166 6.12675 15.7778C6.12675 20.7391 9.71367 22.8188 12.5532 27.2535C12.8949 27.782 13.2247 28.3507 13.5304 28.9615C13.5364 28.9696 13.5384 28.9756 13.5484 28.9857C13.8142 29.486 14.052 30.0044 14.2518 30.5409C14.7633 31.9073 15.0411 33.3862 15.0411 34.9295V47.9725C6.19269 44.1406 0 35.2952 0 25.001C0 11.1944 11.1325 0 24.8607 0C27.984 0 30.9695 0.578708 33.7231 1.63766V15.0725C33.7231 16.6178 33.4453 18.0947 32.9338 19.4611C32.7339 19.9996 32.4961 20.516 32.2284 21.0164C32.2224 21.0244 32.2204 21.0304 32.2144 21.0405C31.9087 21.6513 31.5789 22.218 31.2372 22.7485C28.3937 27.1832 24.8087 29.1243 24.8087 34.2242C24.8087 39.324 29.2749 43.2042 34.2047 43.2042C39.1345 43.2042 43.6046 39.1854 43.6046 34.2242C43.6046 29.263 40.0417 27.1953 37.2041 22.7967C36.8464 22.2461 36.5047 21.6533 36.183 21.0164C36.143 20.934 36.1011 20.8596 36.0611 20.7813C35.8553 20.3834 35.6734 19.9755 35.5136 19.5575C34.982 18.165 34.6863 16.6519 34.6863 15.0725V2.02749C43.5307 5.85741 49.7234 14.7028 49.7234 25.001Z" fill="black"/>
<path d="M55.7231 11.8767V17.1434H65.267V39.1383H71.8533V17.1434H81.3632V11.8767H55.7231Z" fill="black"/>
<path d="M98.3924 29.1657C98.3924 23.9533 95.2691 18.5942 87.5258 18.5942C80.26 18.5942 76.4912 23.5293 76.4912 29.1637C76.4912 34.2495 79.4307 39.6829 87.5737 39.6829C93.9602 39.6829 96.9497 36.5643 98.1506 33.0238H91.86C91.1367 34.2515 90.0156 34.9809 87.6397 34.9809C84.6602 34.9809 82.9157 33.0941 82.7518 30.6768H98.3545C98.3884 30.0378 98.3884 29.6741 98.3884 29.1677L98.3924 29.1657ZM82.8318 26.8006C83.0176 24.8354 84.2206 23.023 87.5238 23.023C91.0667 23.023 91.886 25.2775 92.0099 26.8006H82.8338H82.8318Z" fill="black"/>
<path d="M113.937 32.3828C113.13 34.0807 111.967 34.9126 109.701 34.9126C106.39 34.9126 105.031 32.2944 105.031 29.0572C105.031 25.8201 106.472 23.3284 109.731 23.3284C112.464 23.3284 113.434 24.8937 113.803 25.9788H120.094C119.86 23.7685 117.558 18.5942 109.677 18.5942C102.467 18.5942 98.6323 23.6861 98.6323 29.1014C98.6323 34.8362 102.011 39.6809 109.669 39.6809C116.193 39.6809 119.431 36.1645 120.232 32.3808H113.941L113.937 32.3828Z" fill="black"/>
<path d="M121.623 26.6499V31.9025H134.476V26.6499H121.623Z" fill="black"/>
<path d="M160.591 33.8837V32.5233C160.591 27.6264 157.682 26.5534 156.571 26.1133C159.255 25.2573 161.289 23.1856 161.289 19.6652C161.289 14.9772 157.712 11.8767 151.457 11.8767H136.692V39.1383H143.204V28.6331H148.714C152.664 28.6331 153.671 29.7825 153.671 32.5394V33.4316C153.671 36.3291 153.723 37.9387 154.177 39.1383H160.931C160.555 37.8503 160.589 35.7524 160.589 33.8837H160.591ZM149.986 23.6699H143.206V16.8379H150.044C153.148 16.8379 154.565 18.0596 154.565 20.2137C154.565 22.5105 153.182 23.6679 149.986 23.6679V23.6699Z" fill="black"/>
<path d="M162.827 10.3174V15.369H169.118V10.3174H162.827ZM162.827 19.1346V39.1383H169.118V19.1346H162.827Z" fill="black"/>
<path d="M192.991 33.5139V10.3174H186.669V20.6558C186.095 19.9163 184.517 18.5941 180.636 18.5941C175.714 18.5941 170.391 22.5607 170.391 29.3083C170.391 35.5555 174.517 39.6828 180.044 39.6828C184.171 39.6828 185.574 38.3646 186.667 36.8295C186.699 37.6051 186.739 38.5455 186.821 39.1383H193.029C192.989 37.2776 192.989 35.3746 192.989 33.5139H192.991ZM181.897 34.7377C178.672 34.7377 176.861 32.3244 176.861 29.1676C176.861 26.2178 178.508 23.5031 181.917 23.5031C185.326 23.5031 186.823 25.7054 186.823 29.1415C186.823 32.5776 185.154 34.7377 181.897 34.7377Z" fill="black"/>
<path d="M216.157 29.1657C216.157 23.9533 213.034 18.5942 205.295 18.5942C198.027 18.5942 194.26 23.5293 194.26 29.1637C194.26 34.2495 197.2 39.6829 205.341 39.6829C211.727 39.6829 214.717 36.5643 215.918 33.0238H209.627C208.904 34.2515 207.785 34.9809 205.407 34.9809C202.427 34.9809 200.683 33.0941 200.521 30.6768H216.124C216.155 30.0378 216.155 29.6741 216.155 29.1677L216.157 29.1657ZM200.597 26.8006C200.785 24.8354 201.986 23.023 205.289 23.023C208.834 23.023 209.653 25.2775 209.777 26.8006H200.597Z" fill="black"/>
</svg>
