<svg width="147" height="32" viewBox="0 0 147 32" fill="none" xmlns="http://www.w3.org/2000/svg">
<path fill-rule="evenodd" clip-rule="evenodd" d="M26.3644 0.341995L12.707 24.0721C11.6228 25.9557 9.61831 27.1163 7.44887 27.1163H0.720703L14.3781 3.38622C15.4623 1.50254 17.4668 0.341995 19.6362 0.341995H26.3644ZM26.5398 20.423C27.7633 22.557 27.0372 25.2857 24.918 26.5178C24.1624 26.9571 23.3316 27.1468 22.52 27.1123L22.5196 27.1149L15.0742 27.0889L18.7514 20.6342C19.1266 19.888 19.7143 19.2394 20.4874 18.79C22.6065 17.5579 25.3163 18.2891 26.5398 20.423ZM4.6145 0.343605L4.61413 0.346184C3.80246 0.311677 2.97172 0.501382 2.21607 0.940703C0.096918 2.17275 -0.629159 4.90145 0.594337 7.03542C1.81783 9.16938 4.52759 9.90054 6.64675 8.66849C7.41979 8.21905 8.00745 7.57046 8.38273 6.82422L12.0599 0.369515L4.6145 0.343605Z" fill="#5000FA"/>
<path d="M41 20.649L47.35 10.98H41.064V6.416H54.275V9.192L47.701 18.925H54.339V23.679H41V20.649Z" fill="#0D0D0D"/>
<path d="M54.8516 15.064C54.8516 2.74598 73.2646 2.77798 73.2646 15.064C73.2646 27.35 54.8516 27.285 54.8516 15.064ZM68.2216 15.064C68.2216 9.19198 59.8936 9.22498 59.8936 15.064C59.8936 20.84 68.2216 20.871 68.2216 15.064Z" fill="#0D0D0D"/>
<path d="M74.2539 15.064C74.2539 2.74598 92.6679 2.77798 92.6679 15.064C92.6679 27.35 74.2539 27.285 74.2539 15.064ZM87.6259 15.064C87.6259 9.19198 79.2969 9.22498 79.2969 15.064C79.2969 20.84 87.6259 20.871 87.6259 15.064Z" fill="#0D0D0D"/>
<path d="M93.9121 15.192C93.9121 10.214 96.7191 6.19301 102.208 6.22401C103.867 6.22401 105.56 6.67101 106.709 8.13901V6.41601H111.718V22.689C111.718 29.072 107.315 31.658 102.944 31.658C98.6681 31.658 94.4221 29.072 94.4221 24.892H99.6881C99.6881 25.945 101.187 26.808 102.783 26.775C104.602 26.744 106.549 25.754 106.71 22.722V21.829C105.592 23.138 103.964 23.616 102.242 23.616C96.6891 23.617 93.9121 19.946 93.9121 15.192ZM98.9541 15.256C98.9871 17.682 100.901 18.862 102.815 18.862C104.762 18.831 106.71 17.587 106.71 15.193C106.71 12.895 104.952 11.012 102.815 11.012C100.198 11.012 98.9211 13.181 98.9541 15.256Z" fill="#0D0D0D"/>
<path d="M119.348 1.342V23.68H114.242V1.342H119.348Z" fill="#0D0D0D"/>
<path d="M133.899 8.20301V6.41601H138.911V23.68H133.899V21.957C132.718 23.426 131.027 23.904 129.368 23.904C123.879 23.904 121.039 19.5 121.071 14.744C121.134 10.021 123.847 6.12801 129.431 6.12801C131.123 6.12901 132.783 6.76701 133.899 8.20301ZM133.899 14.936C133.899 12.639 132.144 10.756 129.974 10.756C127.421 10.756 126.145 12.766 126.113 14.873C126.081 16.947 127.389 19.084 129.974 19.084C132.144 19.084 133.899 17.234 133.899 14.936Z" fill="#0D0D0D"/>
<path d="M146.06 20.938C146.06 22.34 144.816 23.776 143.091 23.776C141.495 23.776 140.219 22.34 140.219 20.938C140.219 19.245 141.495 18.096 143.091 18.096C144.816 18.096 146.06 19.244 146.06 20.938Z" fill="#0D0D0D"/>
</svg>
